<mxfile host="app.diagrams.net" modified="2024-04-11T21:08:53.860Z" agent="Mozilla/5.0 (Windows NT 10.0; Win64; x64) AppleWebKit/537.36 (KHTML, like Gecko) Chrome/124.0.0.0 Safari/537.36 Edg/124.0.0.0" etag="MgrvS9qP6wflZxan3Qh9" version="24.2.3" type="github">
  <diagram name="Page-1" id="zxp_N4VPgGiAJEiuuhm-">
    <mxGraphModel dx="2231" dy="1405" grid="0" gridSize="10" guides="1" tooltips="1" connect="1" arrows="1" fold="1" page="0" pageScale="1" pageWidth="1169" pageHeight="827" background="#ffffff" math="0" shadow="0">
      <root>
        <mxCell id="0" />
        <mxCell id="1" parent="0" />
        <mxCell id="bJ0D-iuFFQinNIH-9HkA-1" value="&lt;font color=&quot;#000000&quot;&gt;AWS Cloud&lt;/font&gt;" style="points=[[0,0],[0.25,0],[0.5,0],[0.75,0],[1,0],[1,0.25],[1,0.5],[1,0.75],[1,1],[0.75,1],[0.5,1],[0.25,1],[0,1],[0,0.75],[0,0.5],[0,0.25]];outlineConnect=0;gradientColor=none;html=1;whiteSpace=wrap;fontSize=12;fontStyle=0;container=0;pointerEvents=0;collapsible=0;recursiveResize=0;shape=mxgraph.aws4.group;grIcon=mxgraph.aws4.group_aws_cloud_alt;strokeColor=#808080;fillColor=none;verticalAlign=top;align=left;spacingLeft=30;fontColor=#232F3E;dashed=0;" parent="1" vertex="1">
          <mxGeometry width="1170" height="827" as="geometry" />
        </mxCell>
        <mxCell id="R_4JafRuiWa1Q7gdGqQE-19" value="" style="shape=image;verticalLabelPosition=bottom;labelBackgroundColor=default;verticalAlign=top;aspect=fixed;imageAspect=0;image=https://cdn-kanjl.nitrocdn.com/gHntoYcLolfCACvcjkpntOfGqZHQvDKE/assets/images/optimized/wp-content/uploads/2021/01/e35922227955eb0e052cb60ab20de2f5.DB1-GLOBAL-NOVA-LOGO2.png;" parent="1" vertex="1">
          <mxGeometry y="836.65" width="190.11" height="65.35" as="geometry" />
        </mxCell>
        <mxCell id="R_4JafRuiWa1Q7gdGqQE-1" value="" style="sketch=0;points=[[0,0,0],[0.25,0,0],[0.5,0,0],[0.75,0,0],[1,0,0],[0,1,0],[0.25,1,0],[0.5,1,0],[0.75,1,0],[1,1,0],[0,0.25,0],[0,0.5,0],[0,0.75,0],[1,0.25,0],[1,0.5,0],[1,0.75,0]];outlineConnect=0;fontColor=#232F3E;fillColor=#8C4FFF;strokeColor=#ffffff;dashed=0;verticalLabelPosition=bottom;verticalAlign=top;align=center;html=1;fontSize=12;fontStyle=0;aspect=fixed;shape=mxgraph.aws4.resourceIcon;resIcon=mxgraph.aws4.route_53;" parent="1" vertex="1">
          <mxGeometry x="22" y="103" width="50" height="50" as="geometry" />
        </mxCell>
        <mxCell id="R_4JafRuiWa1Q7gdGqQE-5" value="&lt;font color=&quot;#000000&quot;&gt;Route 53&lt;/font&gt;" style="text;html=1;align=center;verticalAlign=middle;resizable=0;points=[];autosize=1;strokeColor=none;fillColor=none;" parent="1" vertex="1">
          <mxGeometry x="15" y="82" width="67" height="26" as="geometry" />
        </mxCell>
        <mxCell id="R_4JafRuiWa1Q7gdGqQE-6" style="edgeStyle=orthogonalEdgeStyle;rounded=1;orthogonalLoop=1;jettySize=auto;html=1;exitX=0.5;exitY=1;exitDx=0;exitDy=0;exitPerimeter=0;entryX=0;entryY=0.5;entryDx=0;entryDy=0;entryPerimeter=0;flowAnimation=1;curved=0;fillColor=#d5e8d4;strokeColor=#82b366;" parent="1" source="R_4JafRuiWa1Q7gdGqQE-1" target="L7dk3Sz008ZvUSCZmKO--5" edge="1">
          <mxGeometry relative="1" as="geometry">
            <mxPoint x="47" y="224" as="targetPoint" />
          </mxGeometry>
        </mxCell>
        <mxCell id="bJ0D-iuFFQinNIH-9HkA-2" value="Region N. Virginia ( us-east-1)" style="points=[[0,0],[0.25,0],[0.5,0],[0.75,0],[1,0],[1,0.25],[1,0.5],[1,0.75],[1,1],[0.75,1],[0.5,1],[0.25,1],[0,1],[0,0.75],[0,0.5],[0,0.25]];outlineConnect=0;gradientColor=none;html=1;whiteSpace=wrap;fontSize=12;fontStyle=0;container=0;pointerEvents=0;collapsible=0;recursiveResize=0;shape=mxgraph.aws4.group;grIcon=mxgraph.aws4.group_region;strokeColor=#147EBA;fillColor=none;verticalAlign=top;align=left;spacingLeft=30;fontColor=#147EBA;dashed=1;" parent="1" vertex="1">
          <mxGeometry x="90" y="29" width="1060" height="781" as="geometry" />
        </mxCell>
        <mxCell id="bJ0D-iuFFQinNIH-9HkA-3" value="&lt;font color=&quot;#000000&quot;&gt;VPC Sandbox - vpc-09a4838243accb58b (10.129.0.0/16)&lt;/font&gt;" style="points=[[0,0],[0.25,0],[0.5,0],[0.75,0],[1,0],[1,0.25],[1,0.5],[1,0.75],[1,1],[0.75,1],[0.5,1],[0.25,1],[0,1],[0,0.75],[0,0.5],[0,0.25]];outlineConnect=0;gradientColor=none;html=1;whiteSpace=wrap;fontSize=12;fontStyle=0;container=0;pointerEvents=0;collapsible=0;recursiveResize=0;shape=mxgraph.aws4.group;grIcon=mxgraph.aws4.group_vpc;strokeColor=#248814;fillColor=none;verticalAlign=top;align=left;spacingLeft=30;fontColor=#AAB7B8;dashed=0;" parent="1" vertex="1">
          <mxGeometry x="185" y="68" width="945" height="721" as="geometry" />
        </mxCell>
        <mxCell id="R_4JafRuiWa1Q7gdGqQE-142" value="&lt;span style=&quot;&quot;&gt;&lt;font style=&quot;font-size: 40px;&quot; face=&quot;Verdana&quot;&gt;ARQUITETURA INFRAESTRUTURA - ANYDIDAS&lt;/font&gt;&lt;/span&gt;" style="text;whiteSpace=wrap;html=1;fontColor=#FF8000;align=center;fontStyle=1" parent="1" vertex="1">
          <mxGeometry y="-64" width="1168" height="60" as="geometry" />
        </mxCell>
        <mxCell id="R_4JafRuiWa1Q7gdGqQE-143" style="edgeStyle=orthogonalEdgeStyle;rounded=1;orthogonalLoop=1;jettySize=auto;html=1;entryX=0;entryY=0.5;entryDx=0;entryDy=0;entryPerimeter=0;fillColor=#d5e8d4;strokeColor=#82b366;flowAnimation=1;curved=0;" parent="1" source="R_4JafRuiWa1Q7gdGqQE-119" target="R_4JafRuiWa1Q7gdGqQE-1" edge="1">
          <mxGeometry relative="1" as="geometry">
            <Array as="points">
              <mxPoint x="-91" y="128" />
            </Array>
          </mxGeometry>
        </mxCell>
        <mxCell id="ft8GjzFSA65vmO5fQOrG-1" value="" style="shape=image;verticalLabelPosition=bottom;labelBackgroundColor=default;verticalAlign=top;aspect=fixed;imageAspect=0;image=data:image/png,iVBORw0KGgoAAAANSUhEUgAAEokAAAPqCAMAAABm6PGYAAAAilBMVEVMaXEAdb4Adb4Adb4Adb4Adb4Adb4Adb4Adb4Adb7rZggAdb4Adb4Adb4Adb4Adb7rZggAdb7rZgjrZgjrZgjrZgjrZgjrZgjrZgjrZgjrZgjrZgjrZgjrZgjrZgg2cpQAdb7rZgiwajY6cZF1bmNmbm+EbVhJcIaha0Edc6jOaB+TbE0OdLPcZxMiNGezAAAAIHRSTlMAYCDgEPCgQMCAQDDQsHBQgJDwwBBgIOCg0DCQsFBw0HNNPgkAAAAJcEhZcwAAbroAAG66AdbesRcAACAASURBVHic7N2HetvK0qVhKjonWcmyrbHPOf/kuf/bm2crUBSJjK5Vq4HvvQERICgA1bWqNwDafHgr8ZkvAAAAAAAAYO3O/0icrf08AwAAAAAArN6pphD158+XtZ9pAAAAAABw4H2iO74OvXeqStT52s4sAAAAAADo8/5vohu+Hr0TVSWKeB4AAAAAANjzK7MS9ZemKLkjVSGKeB4AAAAAANhznVqI+vuT70Ptra4SRTwPAAAAAAC88jO3EkU8T+2DrhD15+x0XecWAAAAAAB0u7zIrUQRz1M7F1ai/hyt69wCAAAAAIBuV8mFKOJ5YqfKQtSfT6s6twAAAAAAoMdNdiXqgm9I6p20EvWHeB4AAAAAANh6n12I+vv3N9+G0pm2EkU8DwAAAAAAbH3Pr0Td8m0IHWkLUcTzAAAAAADA1nV+IYp4ntRHcSWKeB4AAAAAAHh2a1CJIp4n9EZdiCKeBwAAAAAAnlxeGBSiiOcJncsrUR9Xc24BAAAAAEC3e4M6FPE8oWN5IerPn+PVnF0AAAAAANDpxqAO9ffv3yu+JZF3CZWoz6s4swAAAAAAoM9vgyrUP37xTYmcJVSiiOcBAAAAAIB/fDeoQj245OuQOEooRBHPAwAAAAAA/7g2qEE9Ip6n8TGlEkU8DwAAAAAAbDa3DkWoB8TzJN6kFKL+nKzg1AIAAAAAgB6XBiWoZ8TzFM5zKlF/Piz/1AIAAAAAgB5fPYpQD4jnCRwnFaL+fFv8qQUAAAAAAH1uDCpQz77zbcV7l1WJIp4HAAAAAMDqXXnUoJ5cr/3rEDjLqkQRzwMAAAAAYPW+W1Sgnt2v/euId5RWiCKeBwAAAADA2t15VKCe/Vj79xHvJK8SRTwPAAAAAICVu/WoQG0Rzwv2Jq8Q9efPm0WfWgAAAAAA0OPapAC1RTwv2KfMStT5ok8tAAAAAADo8dWkALVFPC/WcWYh6s/Zkk8tAAAAAADoc2FSgHpBPC/Ut9RK1J8vCz61AAAAAACgx5VL/enFT76zQKdnuZUo4nkAAAAAAKzYD5f604sbrsdAR7mFKOJ5AAAAAACs2HuX8tOuO67IOCfJlSjieQAAAAAArNetT/3pBfG8OG+yC1HE8wAAAAAAWK1rl+LTK8Tz4nxKr0T9OV3quQUAAAAAAN2+GtWfdhDPi3KcX4j6c7TMUwsAAAAAAHpcXtgUn14hnhflm0El6tMyTy0AAAAAAOhxZVR92nXBFxfj9MygEkU8DwAAAACAdbrxKT699psLMsSRQR2KeB4AAAAAAOv03qn49MotV2SIE4M6FPE8AAAAAADW6ZdR7ek14nkh3hiUof5xvMBzCwAAAAAAul071Z72EM+L8NagCvWPz8s7tQAAAAAAoMdPq9rTa8TzAhwbFKEefFzcqQUAAAAAAD0uL5xKT3uI5wU4NyhCPSKeBwAAAADA2txblZ72XXE9lnZ65lCEekA8DwAAAACAtbnxKj3t+cX1WNpngxLUE+J5AAAAAACszG+rwtOhSy7Iwk4silCPiOcBAAAAALAu391KT3uI5xX2xaEC9ezdok4tAAAAAADocW1VdmpAPK+wtx41qEcnizq1AAAAAACgx61d6Wkf8byijh0KUC8+LOjUAgAAAACAHpcXXmWnBsTzijp3qUE9+ragUwsAAAAAAHrc2xWeDnznOyzo9Myh/vSCeB4AAAAAACtyY1Z2anLNBVnOZ5cS1DPieQAAAAAArMaVX93p0D3XYzknHvWnF8TzAAAAAABYje9uVacmP7gei/niUoDaIp4HAAAAAMBa3PmVnZoQzyvmrUn9aceXhZxaAAAAAADQ49av6tSEeF4pxzb1pxfnyzi1AAAAAACgx6Vf0akR8bxSzl3KTzvOlnFqAQAAAABAj6+GVadGxPPKOLUpP+0ingcAAAAAwCrcGBadGv3keizinU/5aQfxPAAAAAAA1uDKsObU7IbrsYgTm+rTLuJ5AAAAAACswQ/HolOzOy7IAo58qk+vHFV/ZgEAAAAAQJ/3jiWnFsTzSnhrVH3a9an+UwsAAAAAAHrcWtacmhHPK+CDT+1pz2n15xYAAAAAAHS7dqw4tSKeN9+5VfVpF/E8AAAAAACW7qtpzakZ8bzZTn0qT/uI5wEAAAAAsHQXjgWnVhdcj3O986o+vUI8DwAAAACAZbsyLTm1+c31ONOJUeVpH/E8AAAAAACW7caz4NTqlutxniOv2tNrb2s+swAAAAAAoM9704JTK+J5M711qjwdOK763AIAAAAAgG6/TAtO7YjnzfLBrPS053PFpxYAAAAAAPS4dq03tSOeN8u5VeHpwMeKTy0AAAAAAOjx07Xe1I543hzHZpWnA8TzAAAAAABYrMsL13pThyuux+nemRWeDhDPAwAAAABgsa5sy00dfnE9TndmVng6QDwPAAAAAIDFurEtN3W55IKc6sis7tSAeB4AAAAAAAv13rfa1IV43mQf7QpPB75VemoBAAAAAECP777Vpi7E86Z6Y1Z1anJS56kFAAAAAAA9rn2LTd2I50107ld4OvShylMLAAAAAAB63DpXm7oQz5vm2K3o1Ih4HgAAAAAAS3R54Vtr6vad63GSd4Z1p0PE8wAAAAAAWKJ752JTt2suyCnO3IpOzYjnAQAAAACwQDfOtaZu91yPExw5lp0anFd3ZgEAAAAAQJ/fzqWmHj/4dif4aFdzanZW3ZkFAAAAAAB9vlvXmnoQzxvvjWPVqdGX2k4tAAAAAADocWddaepDPG+8c8OaUzPieQAAAAAALM2td6mpB/G80Y4da07NiOcBAAAAALAwl9aFpn53XJAjvXOsObUgngcAAAAAwLJ8dS819fjJ9TjO6ZllzakZ8TwAAAAAAJblxrrO1O+G63GcI8eKU5uz05pOLQAAAAAA6HHlXmnqRTxvnBPPmlOLo5pOLQAAAAAA6PHdvM7Uj3jeKG8sC06tPlV0agEAAAAAQI879zpTP+J5o3wyLTm1IZ4HAAAAAMBy3LrXmQYgnjfCsWe9qR3xPAAAAAAAFuPavsw0wC3X43DfXCtObYjnAQAAAACwGF/ty0wDXHA9DnZ65llv6kA8DwAAAACApbiwLzMN8Zvrcagj24JTq891nFkAAAAAANDnyr/KNATxvMFOTMtNHT5WcmoBAAAAAECPH/5VpiGI5w31xrbe1OG4jnMLAAAAAAC6vfcvMg1DPG+gT7blpg7E8wAAAAAAWITbGqpMQxDPG+bYttrUhXgeAAAAAABLcO1fYhro4pILcohvvuWmLsTzAAAAAABYgJ9VVJkGueJ6HOD0zLfa1IV4HgAAAAAA9bu8qKDENNAvrscBjnyLTZ1O7M8sAAAAAADoc1VFjWkg4nkDnBhXmzp9sD+1AAAAAACgx00VJaaBiOf1+2Jca+r2zf3UAgAAAACAHu+rqDANRTyv31vnYlMn4nkAAAAAANTuVx0lpqGI5/U5Ni419SGeBwAAAABA3a7rKDANRjyvz7l3sakT8TwAAAAAAOr2s5IK01A/uB67nZ4ZV5r6EM8DAAAAAKBqlxd1FJiGu+aC7PTZu9bU443xmQUAAAAAAH3uaykwDXbPd97pxLrS1Ofc+MwCAAAAAIA+N5XUl4Yjntfpi3elqc+Z8akFAAAAAAA9ftdSXxqBeF6Xt96Vpl5ffE8tAAAAAADo8b2a+tJwxPM6HJsXmnoRzwMAAAAAoFrXtVSXxiCe1+HcvNDUi3geAAAAAADVuq2nvjTCHRdkm9Mz80JTP+J5AAAAAABU6vKimurSGD+5Htt8dq8z9fvkeWYBAAAAAECfr/VUl8a44Ytvc+JeZxrg1PPUAgAAAACAHjf1VJdGIZ7X4ot9mWmAI8tTCwAAAAAAelxVVFwahXhei7f2ZaYBiOcBAAAAAFCl7xUVl0Yhntfsg32VaRDieQAAAAAAVOiuotrSSMTzGp1XUGYagHgeAAAAAAAVuq2quDTKLddjg1P7GtMwxPMAAAAAAKjPZUWVpbEuuB4bvKuhzDTEsd2pBQAAAAAAPb7WVVwa5zff/qET/xrTMJ/dziwAAAAAAOhzUVNlaSzieYeOaigyDfLR7dQCAAAAAIAeV3WVlkYinnfobQU1poGI5wEAAAAAUJkfVVWWRiOet+9DFTWmYYjnAQAAAABQl/eVVZbGIp6377yGEtNAxPMAAAAAAKjLbV2FpdEuLrkgXzmtosQ0FPE8AAAAAABqcl1ZYWm8K67HV97VUWIa6J3RmQUAAAAAAH2+1lZYGu0X18ArJ1VUmIY6MTqzAAAAAACgz0VldaUJiOftOqqjwjTYB59TCwAAAAAAelxVV1caj3jerreVVJiG+uZzagEAAAAAQI+b2spKExDP2/GmjvrScMTzAAAAAACoxvvqykpTEM97cV5LhWkw4nkAAAAAANTiV31lpQmI520dV1JeGoF4HgAAAAAAlbiurqg0yQ+ux2fvqikwDXbmcWYBAAAAAECfnxWWlaa45kp4clZJeWmMLxZnFgAAAAAA9Li8qK+oNMk9V8Kjo3rqS8OdO5xZAAAAAADQ56rCotIkxPOefKylujQG8TwAAAAAAKpwU2FRaRrieQ/e1FNeGoN4HgAAAAAAFfhdY01pGuJ5D87rqS6NQTwPAAAAAIAKfK+xpjQN8bx/HNdTXBqFeB4AAAAAAP6uaywpTXXHBbnZvKuoujTKkcHJBQAAAAAAnW7rrClN85NrYbM5q6i4NMong5MLAAAAAAC6XF7UWFGa6oZrYXNUUW1ppFOD0wsAAAAAADrc11lSmop43uZjVcWlUYjnAQAAAABg7qbOitJUxPPeVFRZGot4HgAAAAAA3n7XWVCajHjeeV3FpXGI5wEAAAAAYO17pRWlydYezzuuqbA0GvE8AAAAAACc3VVaT5ruduXX47fKakvjvDU4wwAAAAAAoM1trQWlyS7WfS2cntVUWBrv2OAcAwAAAACAZpeVlpPm+L3qa+GottLSSJ8NzjEAAAAAAGj2td6C0mTrjuedVFVXGu+jwTkGAAAAAADNbiqtJs2x6njem9oqS6MRzwMAAAAAwNVVvfWkGdYcz/tUWV1pPOJ5AAAAAAC4+l5tNWmOFcfzjmurK41HPA8AAAAAAFPv660mzXFxudoL8lttdaUJPhicZwAAAAAAcOi23mrSLFdrvRZOz6qrK433zeBEAwAAAACAA9cVF5Nm+bXWa+GotqrSFCcGJxoAAAAAABz4WnExaZ61xvNO6qsrTUA8DwAAAAAARxc1F5NmWWk87011RaVJiOcBAAAAAGDoquJS0kwrjed9qrCsNAHxPAAAAAAADP2oupg0zyrjecfV1ZQmIp4HAAAAAICd9zVXkuZaZTzvW5VlpQnODU42AAAAAAB45VfdtaR5fqzwWjg9q66kNNGZwdkGAAAAAAC7rmsuJM13vb6L4XOVVaVJvhicbgAAAAAAsONn7bWkee7Xdy2cVFhSmoh4HgAAAAAAXi4vaq4jzbe+eN6XKmtK0xDPAwAAAADAy1XtpaS5VhfPe1tjSWkq4nkAAAAAAFi5qbuONN/a4nnHdZaUJiKeBwAAAACAk/e1F5JmW1s877zKitJkpwanHAAAAAAAPPlVeR2pgLtVXQunZ5WWlCY6MjjnAAAAAADg0XX1daT5fq7qWvhcZT1puk8G5xwAAAAAADy6rb2MVMDNqq6Fk1pLSlMRzwMAAAAAwMXlRfV1pALWFM/7Umc5aQbieQAAAAAAuLivvopUwprieW+rrShNRTwPAAAAAAAXN/WXkQpYUTzvuM5q0izE8wAAAAAA8PC7+iJSGeuJ551XXFGa6rPBeQcAAAAAAJvN9yWUkQq4Xcu1cHpWZzFplo8GJx4AAAAAAGyuqy8hFXKxlmvhc8UFpemODc48AAAAAAC4XUQZqYTfK7kWTmotJs1CPA8AAAAAAAOX9VeQSllJPO+o4nLSDMTzAAAAAAAw8HUZVaQSVhLPe1ttMWke4nkAAAAAAOS7qb+CVMwq4nkfaq4mzUE8DwAAAACAdFcLKSIVsYp43nm9taR5TgxOPgAAAAAAK/d9AQWkYi4ul38xnNZcTJrng8HpBwAAAABg1e4WUkMq5Gr518K7mmtJ83wzOP0AAAAAAKza7SIKSMX8Wv61cFJzLWke4nkAAAAAAOS6XEgFqZjFx/OOai4lzUU8DwAAAACAVF8XUkAqZvHxvLd115LmIZ4HAAAAAECqi4UUkIpZejzvQ82FpNmI5wEAAAAAkOlqIfWjghYezzuvvJY00xeDrwAAAAAAgNX6sZgCUjHLjuedVl1Hmu/c4DsAAAAAAGCt3i+kelTSj0VfC+9qLyXNdGbwHQAAAAAAsFa3yykglXO95IvhpOo6UgHE8wAAAAAAyHK9lOJRUfcLvh6Pqq8kzUU8DwAAAACALF8XVD8qZ8nxvI91l5EKIJ4HAAAAAECSy4ulFI/KWm487031haT5iOcBAAAAAJDjaknlo4KWG887r72MVMAng+8BAAAAAIA1ullM7aisxcbzjqsvI5VwavBNAAAAAACwPu+XVD0q6m6h18K7+stIBRwZfBMAAAAAAKzPrwXVjsr6udBr4az6KlIJxPMAAAAAAEhwvaTaUVk3y7wej+qvIhVBPA8AAAAAAL2fS6odFbbMeN7HBVSRSiCeBwAAAACA3OXFompHZS0ynvem/hpSGcTzAAAAAACQu1pS5ai0RcbzzpdQRSri2ODbAAAAAABgXW6WVTsqbIHxvOMFlJAK+WzwdQAAAAAAsCq/F1U4Ku52edfCu0UUkYr4aPB1AAAAAACwKt8XVjoq7GJ518LZAkpIpRDPAwAAAABA6npRdaMAv5d2PR4to4ZUBvE8AAAAAACkbhdXOipscfG8j0uoIJVCPA8AAAAAAKXLi0WVjQIsLZ73ZhklpFKI5wEAAAAAIHS/uMpRcQuL531aRgWplG8GXwkAAAAAAKtxs7CyUYBlxfOOl1FAKubE4DsBAAAAAGAtrhZXNwpwuaSL4dtCKkjFfDD4UgAAAAAAWInviysbBbha0LVweraQAlIxxPMAAAAAAFC5W1zVKMKvBV2PRwupH5VDPA8AAAAAAJXb5ZWNIiwonneylAJSOcTzAAAAAADQuFxe0SjEcuJ5b5ZSPiqIeB4AAAAAABpfF1g1irCceN4nowrQW4PP8I8zg+8FAAAAAIA1uFle0SjGUuJ5xwaFn60PH00+yBeDbwYAAAAAgOW7WmLRKMT9Qq6FbwZ1n2cnm88eH+TPucE3AwAAAADA8v1YYM0oxo9lXAunZwZ1n2efbTq0iOcBAAAAACDwfok1oyDXi7ggjwzKPlunmw3xPAAAAAAA1uN2kTWjGMuI550YVH2efdpsiOcBAAAAALAe10usGEVZRDzvjUHRZ+uL0QB14nkAAAAAAIT76lv3ufHb1G8J8bxPBkWfZ4/FH5d43lH6dwMAAAAAwNJdGNR3Wnz9afeRFhDPc+lAevDt4SO5xPM+pX85AAAAAAAs3JVBeafNtd8w9Zv6r4Zzg5LP1vHDR7Ipjp2mfzsAAAAAACzbD4PyTotfjg1bd7VfDadnBhWfZx+fPhTxPAAAAAAAVsGv6+jFb8d9/X7WflW4JOEeHJl9KOJ5AAAAAACE+mVQ3GnxTxDut+WnqtqJQcFn6zkNRzwPAAAAAIA1uDao7bT5utlsLv0+VuXxvC8G5Z6t8+3HIp4HAAAAAMAK+G1O9+J6Y9mzVXk8761BuWfrzfZjucTzPnaePAAAAAAAMMel30TwrV8Px+W3tV/d8TybGNw/Tgw/13HmtwMAAAAAwLL51XleXD2cecN43vuaL4lzg2LP1rudD+YSz/uc+OUAAABU6fhNlT5wvtuZn5xKLzlgtoV0TtwYFHZaXDx9xB92n+w2+Uub4/TMoNiztfsrIp6H5Sld6jeOBof8o6636m+8FUi7a4MTN0bgSf5X6F3mvNw5qEj8ZIA3piejdMv3mcExtXhX+FDFzt6+ffv227t3n2t5yVOM23hrcJztPli91ABC76b+aqy8j3uQm+35neve7pNdVPLtNnGp9zx4dX8jnoflKV3q/+F7hgof6aN6o9DfQ85HsHuDEzdC5M66/yf2LrPGPVoFDx+up7V4K7pvl4rVINK5Pr49f3fkXZJShAmsC+cUorBey9hiy/lp+Xl51nB3v9/JX9sMJ06/2Nc/IuJ5WJry6edL1zMU9H/6yuDQJok5HcHqKvxdRrZ0/yf2LrPCPVqPBW+MBofZpPwym+9TistzXFEf3747Mu23Uxy+c+MFhSismGsX8CiGRZ6t79sD8UsQ1hvP++L0i93rMCeeh6Up/7/LtjIT1F97YVt66xFzOqLdWZ/TPV8jT8b/4C5TmKBZxjVFVH465yeDo2pW/FB9nHx698WtP+pUcXa+GBxoCwpRWLNFRHhuLR5+m728cf20+2z1xvOsOqf3Wn5t4nnVzq6EmYBXZdsqeNTmF18Njm0C5+B7h5oWWWIX0v7NXaYsxUqTaSXqTfkjtR0UJamMZDr79O6NUQg04No65Nt4QSEKq2bwG5zt8iL0UW6WnWLPnd+nqzWeZ1PsebD/LO7S1v0t6dvBwkT8g7XNT0U1qFzUNkX7UeQIo0A1taDFzhb4v8F3mbXNLFdk81xTRBELgK6VTEllJN3Hb19MqlFHilNhO9WOQhRWbRG91X6zwF/s7hHlVzCrNZ5Xvkl8hpP9T+cSzzv4YMAUIcUZ18JM2DZmdf6zDU2OBapnLldwrS/6LmO8+1kISTu25/SkkOKM66AoSWXEwsdvDqE1yVaFBsfZiEIU1s17V8uB/AYwvdh93zIMEdY5vOTU6v/2waMU8TwsSUzPqWupIK5DparZRc/8MuXDfB92ePmCO7r/FX6XWdfMcs0yk2eKKKQI5zooSlIZsfHpc/acFsXqsuvrLoUorNwSAjzO+YHv5h+0zh2dvB4SDjt+iedhQWLaYlxbhEIO9kE1xZFdztvSdqolDBlc6ouvRC1iNXMoSTbPdA0pJq/m2lP3KeRojX38lnrVKXoNTaueFKKwds67Wg7l/Kz8utJj8IH2/HL+YludOP1qG+5uxPOwHEFNG66DokIO9lGNY/mcG447VTIhPnp65H/ibzOL2PVmINFWKWs6dtMp0lab4oicJBaj1jt+jUIUVs94V8uhYneemWdvc7qwESTT1RjP80rwN/yEbOJ5vluFoBpRTRueTSuRe8XZTmnvEHg6YlVysqPX0f4r/i6zotZb0RqT5RLSl6CDNV0NX2l54GNWTE9xcJYzyShEAQt4VTWcvrT18/VHjdogfIYa43lWq1WNzeUu8by17WuE8sIq/Z7/ekIj1PcGBziO8zpPjyo60MIfCf4df5dZT+utKJvnGXiM6kQ3TXcGHW0FPmVMfvugOC+Or7sUorB6xrtaDnYZ/Sg3x96yv+FnrTCeJ7lnDda4IOwSz1vbvkYoL6zS7zkoKnSvuIvqWlAjW8SC1bBXYfC48r9///4vwW1mAZ31w6jWwBy7zOI60Q0O7lDMUKxKnH2TN0ZJzrdhjji5EHVmNekEq2XwU5zJeZfpgxG1Pww+1J764nmKTTaGa7y52cTzVvOOgCBxTTEXll9Z7ADpSoYXvbgPPR2xKri1xe9MqLjLuG5/VppsgckxsBb3ymoZzFh1JeqfTjXxo6NkFyLtIQ2RXYj6QCUKBhaw7YnzRNWD/Inhc311gZFTq38cH5s/JPE8LENg+PnO8QQFz+2pZUe3Z84LPX38k+fxHWf/W3KbWcfMct1bo+ECUuBwTstBUV77M2c4kYb0FOe75WE9UXohasUhVBipvxJlOHpp63DR33Dqxo+Ur20Gr0eElrs18TwsQuR/LMsiePDKRg2RsV2Gm2wM5n9ri++R/pfkNmM5Cbg43fKSYZdQYO+E5VvIt7jjrcbZO930FkXw1e5Cyy9EeY06wVqZblsxQvTWM3P8PDwMw3hebav0Xu2kLbdq4nlYhMhKhOWMusDjffDe4BhHcL6/9nK/tQlapP+75C6zipnlwiUwg6PdE7q0ZnWkT6y2xUmjq0Upyrxur7v5hajVh1DhofpK1F38s9x0DQ/C8XMhRqssnhfYJT5Ba/qNeB4WIDQ+5DgoKrxr9WB2oLfo0xGqYSnISfy48r9//6O5zSxgD+Y+yu4Bu4M/DX1ndrx6XB7gsqlqUYrDNHvdNShEEUKFheofIAKnmMzW9M5hWDmrLJ7ntVbV+gNyiectYHdM5IltiTEcFBU/ucd/etGu8NMRyXMm/pbi4eV/aO4yK1jwEJYm/OJqsS+sjlsFhh5wVc4UBRzJ9Fev193kQtTj2aASBQcf8n+PsxjOXXrR+MphOGC9qnieV665PZVgE8+Tjp3EsgTXZQzbMeMDUzcGRzlYfGEu1O/Vn9t/i24zi1/wUL6y2e1FGNsSZThJ2uf5zYFgdrkkJWb1uptdiHr8TgmhwkH6z3Em5519mhdkDZu4qornnVv93+hYLXLp7l7LDtsIEDwlyHBQlOCO8tXgMIf6HX86IllOInsmWZRS3WaWvuAhXQGzG5oRXYbzq2MyP+eVt9HtRJKhG8HHMIpHIYoQKhxUv7OWYNDCZM1DKgwf7WtapJc08Q7XsXs18TzULrprwzA9Jdgr7uLS4DgHcl7qGcL4VGtOreouY9jWUpT0jc1tK8LglijHfVW8xpEaOI99jlS0HDrtq3DsUYgihAoHltunjnAleZibqCX0Zlg8MxzX0sYr1tz1+yGeh9qFb5zm959HsVec+SDtXYY7bIzi2+97LXkQ+JfsNlP7oIdu2ucOt/Gt4UfvNyiK+Tn7zkLro58ER2D0unua3Iv0/FJgtrKPlao9ufND8TA3UdseSYJF97EqejNKXknY01nkIZ6HusUX+v2CauGH/LeqyXyKwlwk335fzXPA/5TdZhY9s1w8nbKj1TpD/KKaX0edojJSm7eB1WbFe2YGRAAAIABJREFUvCKff1EuhShCqLBgl0cfx3qcatsWSYZ9XPXE87x6prvDrcTzULf4QTZt5fo84Yf813180SvOaz2DuPb7ip5d/iO7y1Q/6aGL+MXR7OgFszntnlGY5Nwk7oVRscRs87prU4gihAoLbnn0kQynf2+1jkC5NPmAu6qJ53nN1+teY7GJ51X+K0cSRc3c7bsVFQjeGxzqIJrTEejW87xeivbQ/S/dbWbBKXBxVMtpno3oQcZuUJRX872Nj1FtUYoDdLnIfApRhFBhwS2PPs51zrPtMO2JN8PAQy3xPLNe0p67skvZbOnDZBFD8bLsVpIRbSjxw+BQh7C+xQ5iOBR/I5wE/2/dbab2oaPtxNk8tzOp2K7YblCU4JirFDQtSvJkb/K6m12I2v0GvbYix1qZ5dFHst7Xp30UyL3Bp9tTSzzP6/9m39KlTTyv7p85ckhixG6DolT3lLbsthnr/PswlmdaVuH7X9xm5lO/OXqVZSS93W6rZczPafUpIkkpOd8Bn3uC7ELUqyQHIVQ48PhpTnRpuAvdVscAFMd15jrSIjZ5t0d9q0PE81AxSX7IbVCUKvB9c2lwsP2sN6cdxm8UmbIvWnmb8dsArQx5gsVrfKtm+c+sjPlFctB1OgvoLZL8xsp/7AmsClGEUOHALI8+kvVTctdKrOEUWNNpGnvMQs29D0/E81AtUXeQ2emRlQj8dg1sYt12PJDhRoWiDOjfv/9beZup+3GylTqbZzY0SdQdZDZljPk5XcovbX4TfGqL0KtXIYoQKhzUnewXzfycpHM6heHjvek0jT1eBfxPvZ+XeB5qpeo4NevGlN1ULqpoivqlOh2B/Gp+qnHlf//+S3qbsRs7XYT+1dFqfKsov+Ozw/4DRWWkYsUTeoqrrP+BPZ5ZIUpfZQcOmf33H8d6hEXnCPA7gw+477fhN7zPbMfR/udum3ieV7s/KqAql5ttliA66lraUA131xjNbwjiT9mx/3fpbcbhVa+4hO4Yp8NXDUwya6hjfk630nvoKQo0Bk/BZoUoxqHBQtUvqNbLtd2JAMNurhrei1zCbo/OKvrEC81NIIxsCJ/XLnLKRYI7g+Pt4zyKcTC3IYjCi+w/2vvMAntvM7oGDA57S1aS8bp2TlSHXavCw6IUZyE/AOpWiCKECgtm2exRrPeX7pmSqlsTHayCeJ5Z/X7IfFabeF7hFSwsnS5BbJVSUzbaWo7S3iM8HXHcVlmEjWb/1t5mFth7m/Du6DQ0Q/fQ5fUyIjvsepX8wiTpgfTQq10hikoULFjl0UcyrOa86Nk5WjawdAT/eJ5mD5fBhhR3bOJ5S93WCDGE+5Ja/eO5lx12FRuWWifgBzMbyaXcaUVciVpe723Gq5pTyFGXUrMaFWK2S7OngnVnScGz9GyrsfwKUYRQYSH7pzmD8FVpvN4GI8MPbx/PM3s4GLYfHfE81EhY57caFCXdTMJvgNG+ZVSi+haGtKRPLur7TM1rm01SJvoadZZ90R211SMK83OGKFc8lIyALfZpp8kuRDW9sXgNPMFaJf8055AuXo/V+3J1a/ih3fdyMmskHdabTDwPFVJGn60GRWkndFtVSJoY7vI6hdUlpmzm/n/q20zVe+A0SHlTM8qpKcclOQ2Ksnlu81bs5654uB+2dhwmvRDV1HeS+5GAB8k/zVkMh36/6J5XLm7QH8r9tejM60c7rJ+QeB4qJK2UO5XAtZUos9jYIesI/Ai9N2QdaZvZv+T3mYrb7Bvk7OXv01gm3a3YaVAU83OGeVvo9/5J8VnLfNSJLAtRhFDhwGky4kiOk5a2+kfRXpp80l2/zL7iPdKHon5DV4OI56E62t0gnAZFSQ/879+vBofcRVuYi2OUAP2hPO7/Kb/PfDY4xcUkZbR8moOkO8g5jcdSVEYWobHAMZ5iXlFq6NWyEEUIFRYq7pOwfkQe0F30y+Bj7vNeoDfbVvfLwI9t0+Y99AMD2vCwUZlAvUJwYdSs00RaNgnkM5FLO1XgP/LbTM199vtOk545bE6AdvXvzOCInzHJeagypShF4CGzSO5ZiHJb3sdK1bvnrnbRfqTeeeWmY66s43lm1fvBLUY2/a9Lm+CBMOL/rkZTfOQTus33iVCfjjAufXfijVb+m/4+s6CBhDnZPKNinrgSZ3TpaA+8akVKUYoTkBh6NS1EEUKFhXo3OnGc+L01ZI3fsZRmHc8za5ceXsR1iec5rTjCmrph06cxSB/6fm9w1K2sF3xGcbm3aR9cfiS0dixnxSNr8ctmaIa6n9so2Sk+8qoVuF4lP7W8QqdrIYoQKixUW4kSryyONOjFyjH3YBzPcxutN3yUA/E81EXeGOTTjKnfK65/pmAi+ZUQx+PeJj6hdwnxsrOlzCzPyubZDM04Ve8R4zMoivk5Y8wvPn9RfMwiV8YUtoUoQqiwkPbTnMt6c+lh7xaO8bx73288qVG+zYhlIOJ5qIt8Bp9PRC2h19ZpXvs+xy1eJ/K4t2nXn76mtHY4bYE2R9ojh8vQDHl0x6dtW1IZWY7Zj5aKSy1tz57sQlTH2oDZfuRYKenvsaQb6QPdSMNW+O8MP7nRwJY98uW5HmOetonnoSb6RhifedIJG2H4HPwh6xWfcSzubdrz+WPzIeM+U/GOzLvy2mJMogoJz1w2g6KYnzPO3OKpouqb9X8pvRDV8avK/WTAg2ofGayXaofMK9+YVtNsd3Iy2+NhVAKBeB5qklCNsfm/k/FP2bgT1XGH16nu8k/ntXaowF1SNWV4ct1YWjbPphKVUI2xGRRl1oLvb2YjpCIllhR6dS5EEUKFg2orUQnvSsMN3ZP8p+Fnt30pynssbDSqG9kmnuczhgG+MmYD2QyKSjj2vxe+4/msb7QjDb0vB9IW9r5mLYK4zDmaJbEW4XECMtrQbZ5QmJ8z1rx2NsXzfU7o1bkQRSUKFlzy6GM5BtteDF3fd5wG6xrPc/uPOe626xLP+7OUWbIIlFF9cBkUlXNn+Wpw5M2sNwYZaWivchztHf9HWshoCTHwxCcOk9OXce3YXDlmK58VOJvVCak4vpRIgHUhihAqLBhtmjpKwljZ4YbvheT4mG8azzPbbHTk7EObeN5SZskiTkry2WVWUtLqgG0oOud0BElvvNNGP+/yWjvqj4EnZvNMogo5ndwuu3mnHHzd2jdo6ye52FKureTmuu5CFCFUWHD5tz/SpfSBbqzhz7uOBTXPeJ5Nvu3JyBIu8TxUI2d8nUktJmlC9y+DQ28iaRGTXXDZZ1l7cT002iW9B9V/n8l8RfM4e+cpx24S03B74KzCjA30JB2IJS+QoXJ+RVs9hShCqLBgs1PFONYb+ozIAPw2+Lj7PDdycivdj21EJp6HSiRtBmEyKCrr1vLe4NgbSFrEvsvioLnlzmvVYT54zNln3Wdqn1meOg3AohqTVIsxGV3L/JwppmdsFKmBjOSneSHK58UEqyb6OZbmuOnc1oi5qJa9XQY7DB3ImJ3ZZfSiJfE8VCLpn6tJV1DWhO7hkW4pSWHuVrYik9vwq722Hu7jp1n3mVonkD7JzOaZ3KSz3qENDt3pga0uk1sbFPOKEoqcyYWo/u8j+fMBf+odLJm0aj/QmHVXxz2yDXYYOnBk9nMdPQbDptm72t0yoZH1zzV/nPSDH0mH77N54CuSStRXWfUzteFX2wH9OAQ/rbVj5CBFN7k92A5DM9KeWDwmhjDJeZKTqT33ijmw+tBrdiGqt6RNCBUOKn0tTXtbGGLU4rZjTc0xnme2kcmECq5NF2ztsQnESus39ejFzDp601S0pI3nt+4+mBiCvJT+sp72wM1bwql0BOmj5GyWwz067SXao5uO+TnTTK32KM63/MqyL0QRQoWFOudKJm1vNNCotW3t5IiB/OJ5bv8vv40/BJtu71q3y4RE3gg+i60SEvPSXw0O/4Bk0ef95lK1i+xt3qnU/rKebuJ5rR0zpheny83mWQTU8h65PJbHqURNNPH5UvHR1KFX/0KUXdgE61RnmN9xx7mtkSETx/Yuv3ie22PBhDS8TRvsx4gvCAshKwkcshgUlbjKcXFpcPz7JEd+udn8lPyhzJMs2YVw67msmfgyVPHeGMn7ozjcohMfuQyOnvk5k51Na+hTfDRxm2YFhShCqLBQ5fhiyz6irZFlnHuTj73LLifiFmae9KRIPA/+EncltRgUlRmXNhzQp2kRU97U08ZxSceV3zwX3BILCvU232a3YBt0BWWegtFDOAOkTfqv36SrV3K9aWvjNRSiJOO5gD5VZvkTX5YGGLlPtGVZzW1H8ez/6fsmFXCJ58FeYkuURyo49eYy8t4hIGkRe5isqNq7I2uPQm2Jc3sHT9xzttrm2+xs3pTwf2mZXegGh8/8nBmmPGB+UXywgOukXRWFKEKosFBle0Tmy1Kv0Q+6aQOCOyQO02hymvg43WjS2grxPNhLLcQ4DIpKTX5nVUnaSeonD4cti0XmlPu0Jd6X7rrMG83kHd2TJWfzHIZmpBZiHB5QJJWRhZqSz1OkxKSthnUUojJXKoCt6J9jBMft5l6Mbv5XDcgYw2RD9Wc23URPJs5iJZ4Hc6ktURaDoqQZqgNuzaiayuTjTCPVxMScDKT0Nr/N5m0+ZN5nKp1Znt8Okx9VyG2VMJgwxvycGSaUfBTVX2UlqpJCFOPQ4OAk+OcYwrGJaGt8DUc7yHSg31bfeHaz/L6JcwxsCmoO3e9wlFsWdyiA5zbc/jA4A69IWsQee+FUK0wpUxC1d/mXgmZqVeWsypnl6dk8g2ay5I4gg0FRbgMh6jJ+fIWi9ClsNcy+fIY+4hNChQOP/VLHSdzcaIAJC66OYUOreJ5bo/TU+q1NPK/KAjTiZQ+tM2gJSj4DafO0W0haxJ6+dtWNMGOZRbpF7s5DSG5rR5Ub4hjM8E0/B8nFuJXPyarf+Bq04orTDUjNLkQN7kYlhAoHNTZHqCabTjNhCEXqZJIWVvE8t4eCyUsrNvG8Wgd4IFb2v6Kv6d9vdofqS67Kg6Q69DSpXjWjLGGZRbpD7u41lFuJqnGl0+Dd7Cz7HBwlnwCDQVFuffiVGf1mqTg8Wei1mkIUIVRYyJ+MOJrlXnNbU0bO/jb57K8YxfNsWomeTR6zRDwPztL/t+ZP7E7vuM0vxr0iOeanP3gp+WN///6VV/u049d2OwuTV3Hqm0josDtKegEvvQyTH+vMPgO1G7nYKZlnp/pvVE8hKn9zBsAjjz2W44DvF5PCFS4ffpdRPM8tsT/9OZF4Hpzld2emn5zUvQP/cWHVFCVpEdsOblJdf/IIpPSH9WpAQHIbbn1LHgbZvPRJ79ktUQYvJqmT/pdg5FOyZF5R1MWyp6JCFCFUWMjfo2Os3M2d+kwLtVnmDW1eiBwWKV+ZMfyCeB58GbSbpg+KSq9EeY3ok7SIbTvhVNFI9Vx4aaPd63xn8n0mPWc2lsXclOyoQn4yLb2CySTnuca9WyriAqL115oKUYRQYaG+vU1UG+xMM22DaMtjshmdaxNpezJnQyDiefBlUBFPz6ZJJnR3uzO6QCSFuZfam+rsi0+xdFz5q2LuafaNprKue49lr+RB7wZPKelN225PnfUZ9xUq5hVpQq9VFaIIocJC2M8xzI3yoW60CfPKlfMxxvjl8o27Ve3ntM7bxPOqW6tGOIdNSdMHRUmLBqbnYIekEvVSflStyUxbMbI+ic2Hlt7a8Ul6pmdzyOZlRxUsqnHZA8aY5DzbqHqqIiUmWX6tqxBlN4MXq2SwRcVIDm9L7aa+Qxi8/hwyiefZbTM6K9hmE8+rcEIcYhm0A+UPijI4BfkRxReSa2JndwzRQpN0a9hr5UCBvb0X8yf+VDWz3ORhIzeqYFGESW4LY37OfKOaohTnWxF6zS5EOY7nAnrUt8muxdtSq6mJNukez9EHU5jbI8G8vnGbpu/soahw41HkT67CWOzMejPgg4pI1kh2vnPVnVC5Naw09Lr3+8mvKtS0PbPLSEpOQvrzCZWo+cb89BWfR9BqmF2I+jiyiE0IFQ5qekp4YPGi0GrySqvlYXnE8+zaRz8v43CI5+E1jyK/Njd1wKMcZzOjT9MittPGo9qQRHhzk15S+z+f/H1na9qm1SOblxxV8MilZV82BqegeiMmqkrm2cVXomorRBFChYXqKlH524x3mf4WRTyvTf6j9J6ZaQPiebBkkntWb2u2x2PziAuXjUs1Ewx3/6LqDj9touMUysmWN/sXjkFrRz37M7sMAkiNKrj0heWmOtMn/S/C8FVbSUos9IrZ1FiIcqm9Y+XqeUh4pFoxnWj60+1Px8O5L/vlTWL3RDB3AivxPFhyyT3nFmGkw6XbpW8h+ERSnnw1XVHVHiy7uUmvqINsq0FZoZobjUsNJneB2KVLIndQFPNzShje2KYoAofHAOorRBFChYXaKlGW85S2Zux5dGdyCK8ktyc8sOsendtK5BPPyx2LCi8ezUDiCT6HpDN92l3oWnY6/VYc7OuknOgbUM3ikgbvD5uyDW40yfO3h7PpD8isRNk8n+QWMO32yanT4HKi4jk/utWwwkIUIVRYiPg9RlI2uo83Z7qH5ZEZvA6dmP2jmL+uYhPPy96dBk5s/gHlDopy6Qy79bg0JA09rxvAVCnRO80ZVF5QB9k8j9aOeZMVZXyKD5kLxDbTEHIHRTE/p4jBX6LisguubdZYiKISBQsBv8dIkhXayWbtDG05ACs/npe/CfWeb7MPySaeNzdniAWxaYlK7sS0iX8n7yH4RHJb2rvNiGqimlqf9JHl8JqxqETlDuAeyiab9+fPh7yzYLRBTOqgKLvxpJUaGiFQpMRiWw2zX1UmFaIIocJB6mTECVwWrJvNWsy3LLLlx/PsYszzHxJ9nvWI5+GZUU9m6qAog+N/NCPqXZDkjrtXQBEVRSVT4S+Vv6uGBxCP1o7EyspwRrN7E8+CUQUmtZWO+TllDH3FVGQfQvfoyS5EnUx6mieECgeVdUVYDlN6MS/LZjmLPTue98Ht30SJ5V3ieXDj0xKVOyjKZAPBv+nzsp5ICil7dxnVtiRzwvRDKceVH2bzNptvBreZOmaWG72ThU9WbmfUEpX7duLTIFe5gVVoxUFGhl6zC1Fn06r9hFDhIHWPjvEsE2xbMxexTUblvpYdz7PrkS6xTkc8D26cxtRlDooyqkSpRmp3khzp/gcQlW8EXWfSceVNeU6P1o4KNscwyuZlRhWcHrgSC3LMzylmWBVasuQc+F+o0kKUyUoF1q6SUZJPLpWPdePNXGJ16krYSn4bOrX7fZa4mRHPgxnpTvN9Mv/pOJ2I/Cl9mi7kg+9bVb+J7/hVjhNoLOCa9N/6d98aZfMSW8i8xsYkhjrtmvHrNeghU3LhxV0utRaiCKHCQuYeHeNZvS4dmDWv3LbOJtpgqIVd72iZZ0TiebCiykMNlJgJ/ml0GiSDjLpJWsQOe5NEzc9fx52M8ZSrS03ZPJvWDvuBpFbzUvKiCl4vpokL5UxyLmbQt6jICcT9E6q2EGW3NTnWqYpJkltOCZJDszMlluPYc7dUt/s/WWbmoU08r45NjRDNrMavGODTwuqfcHilpNe94jAP7zGijGR08520wNu416JN+23qPmj9nLJ5wZOVu5jVXxKnB2jWQN+FePv2rdOD84nL+Q67nOotRGlWKs5jrvM1kfygP4Wc0C9vBij6e4xmGV97MXshX/LUP1ZqPC/7P/yBQTfVfj6hQ/MXBEiYtUSJ9tdv9MPg8F9kbxihKVE2FNxEX0Nj9aYcZYPdr8ZPbVNa+BZ7pudyyuYlRhXMsjqJg6IklajI4zt98+XdJ4/m+yF1EsWVF9VqWHEhSrNSwRCQ2SSVqLrqQXkse4a25o8/lU43HSwznmcXYi71PG3z4FvXoDjEcIs9J5a/DY5+R3N5QUhyz23YJFC06hRb8lRu9duS5LRZy0mdPt3LbC/zrDc3u0haXmZD8ugpyKy++fwpvT9qyEgLRc0s6GG34kKU6Bdf8myvlOR7oi9hEKNdjZoUSJR4rcc/SYzn+U2NLPVTtXlBIJ4Hu5aoxF4gt9WA4KadXpJKVNNBipL4oZO4lEtnDdW8jdWgxbTE2QDHZlv2Z50Hu5W/vIUySTeRaDL9h8+5K59DqtCKzxHT8lFzIUozJ8R+SKA/Te/a2s/yQKIpphPNnVe+MZuWu5XYn+C0o/CDYv9SiefBh9//nbRBUW7LHfM7beeRHGTTJxS16UVeaMq0fVvznE/qLHHmTy+zCkzWm5tZZ1jqRSM5PN1k+tOjzP8E/RvjSB6IQ5510xeVZ5X4JSsVVKJmk/SuFZo9s3Se2bWtEq1Dym7+4dKW5W2mrW6V22qOeB5cGP5nTRsUZTeLMHF4u2w/17y//PdH4LkTdhq27rJoVGPxXfOw2UDkSdabm+E+WklnQrRUKN26+Fgz9bhJf0FR8qYdcVbTC1HzriHJ/SFvK9DFoHfNh9sskz1F8iSWmwOmvRX6JAuenJWb30A8Dy4Mm03TGjHt7jKpO0ZoWsSa+75EV2VcDlT5s2rJ5m02RrEz2/cRt2xe1pmy2x8mcYauZn6O+uiOsmpRvQ/Oimsv4lG38kKUphLFavdskndh811FXNjNMnmlTIrCMp5XInc4idsDYslYv088L28oKCxYNptmDYr6ZXDsrzVsLKfzW3GEzcky0WUZNgZRmfNsH2xvcIN5Ztv7z3SkR4YtUWnlS02FQT+ZPqkW1VsvUbxpB7R81F6I0twf2JJtNkmGht61IexiE6+VCVFIHvxHa11wjeW3RFfyP6pNPI9C+MpZzt+7T/pO/PZnbQ1eKUhaxFpqbZqvImydRbj9SPslYrUZmunMcrdsXtabm2NLVFpgRNOPn3FkRxkLvL3xPMVI2PJPutUXojQL4ix2zyZZLXHeVMSH5b5yW6WeZy0bv5LieZLdS8Youqhr89zHmLp185y/197lEcvg0Pclbl6qqVK2VB1FyzJB6yzKceXth2BViRLtFDaSXTYv683NsSUqbVCUZLOcnDLb6TfFse3p6/5SvGkXb/movhAluj+UOdurJvme6F0bwG1Poz2l3hYs+xNy4nlWD9EPijbNE8+DBb882t/ESLDBoR/ISiqq+pLatsTQTE2MqXleC9eUOo7Aa9SiPow0gF02L+nNza817EHS25Hkqshq+HqjLzr2tVsoysGlL6X6C1Ga3TJZ655P8T1RMRzCskTzotTLgmcGMSWeJ1mVGqXs5j/E82DAtcR/l3JqLM9GmRmEk0iKQW03T1FbUUj6UVjf7YpvZrQ/tHOcXGtYgEl5czv1aw17kDS7RHI20uaynMofrvv6IRWfofCS6wIKUZqVCrZkm43eNReeEZKtYu8Kor2rR8qI5x1Lfntj9G9FOwrxPBjwG4z0KGdQlOegvramoXiSw2s7iktNX1HElaasaHatE3k1/BjeaQyzeTlvbnYbFT9Jeo2VHFtiZVb99HnW/XE+KD5D3WfwQIk6pqQi6ZnKroqkd42K4QCWm8q9KDOvfGOblUkYmuv3ZFRgCWKXTzyPePB62aaecwZFSSZ0j/Yj6/K8yz06zV0/4uxqgoUPOn8oZrN//ILghtm8lDc315aopIV6SWUk9cHrg/gL7/7pK3o+ytbB0wtRRf5LSP79sSXbbJK34cKtFoskWh2dquBQE+Wg0+HKVdoGs3sy6lnVGc8mnseaxXq5tkQlDYoyXfFI+P/7QFKnbG8oFnVClw+CCgua3VsrGtxddtndaSyHI2W8ubm2RCVt6KRJw5Qd9zDSB22VuvuiVlx+RVs+llGI0qxUsCXbbJKUPRXDfp7jk7YK7m7ETlaP/LYULj5OyeYQi9fYUAvjjSBSBkWZFuZuEppSN6p1kY67p6ZDuHj4XDmuvHOGo1vE/cxsZrljNi/lzc23JSpnjKWmMJdxZC9OpZtTf+z8LIrzXbIMvpBCFFuyVULSu+Y4xtGNsNl9ipKbG/2wPEL5m5D0LjlI8WSBTzyPRYu1sm2JShoU5Xqj+ZpzfUp6ezqOTVMoLd5+J/xVda8R2e0/WzjhPpdjNi/lzc23JaqnhFHz+cgem6YtRXUWoRU/xIItH0spRGlCqJZbptZF0rtGxbCX8cr939J7G3lOKlHHQ+weoSMeiIjnIZdzr2nKoCiD427UncEKI+lJ6prHrqkMFr67Ccfe91wXduGzlLJCK8tsXsabm9/2MDsyXmQlJcr0CcHSWVGdy52Kmli59dalFKLYkq0Wku8pNSxcB88x3ltFH2QlQ2JHU78WyneZ7RXQukg8D7mse00TzozvFq0Z25eKmnu6KlGaUmnZu9ul8FfVmc1zbHVxetr1zOZlvLn5PW7tyOjYlnQLpeQOX1GWojqPVvEBirV8LKYQpSnFsyXbbJqVgspPkoDv+8GDws39nm+H2jV5wzW6gJU54nlI5T1+r6tCEYSxWa9JjqzzE2gmLpWM1yu7mvtKaDZdt1v5b98vPLN5CW9u1i1RKZeM5MAMJgQLiypd7ZCSJ+EKz1mzchEGyUoFlajZJL1r2WHhCtzqHu2mKDivfGO7fZN2aovfWm5IgI14HjJ5j99LmI3kuXPpg6IR8KEUB9a9kKMp65S81ITrZr2ZTb9ai1H7rWk2L+HNzbolKiPRqSnNOcxlkWzK9ajjU0jetAudsfTBIQU325fcH9iSbTZ61yxcCneimaLogqrruvwP5ZVguJNLSNeQzwaBDBVcIfMdSRNqL55D+h4ttUWs+2vW1HVuCp404bjynmyeqLVjHJuZ5a7ZPP2bm3dLVMbDiaba4FCJEk4t7zhcxYNwoRdt6WytJh8L/hzYkq0Oks4Mp3ZlT8YL1X8jXpg8C2+F622dfCo0z2I6F33ieWZ7GkHBfEfShEFRzgMJS1ZLBpKM3u5JmGkaosuV+YTl3f7xVgZ3ln0FV/TnMc3mJby5ebdEZcwO0DyAyg+riWb7tD/dFVbFm3Y4qmJ7AAAgAElEQVSZfzyLKkRp7g9syTabJDxD71of8xem4tvKeYYRlfE8yZ6VowTVi23ieTbvB5BxbgB6oO8CEvazjKfev1R0hfQk4zQ7eBQbCC9s4O7fT9FvB1qfmeWu2Tz9m5vlVbJLv1gv6UEwCarK8nkdz5iK5+AiL9rLKkRpVsI/FPzEKyVZNWFYcA/hnshTFJ5XbnvAwnie4aNR0OMz8TxkcQ89ZwyKMjjodv2Vh9IkIwv7CmyS6mCxcyuc8tibzdt8MbixHPBYerXN5ulLdbbNYc/0o3QlK4Qmc1lOVeu+HZU3xSVYou1/WYUo0YtWyU+8UpLvid61Htbr1MXnlf/zimhwVA108Ty/HX+iHhqI5yGLfUtUwqAog4PuIK/MSW69fZ1vmrhboYYzTQfXg/5snuHGHzZb9BiXX8Rnwr4lKqGNTnJ1uGwTI1sObf8aFQWeAi/aCytEab55tmSbT/E9UTHsIdyKZpKAAo3ntBLZe5DhAM2wOg3xPOTwb4nSD4ry3Cxi60I5q2+jysX3HpTkUxRq+dUtmw3p4hJujDWCQwrAN5snf3Ozb4lKWCaTVBxs5rKomqLaf/iKvz6/nLm0QpRmpYIt2Wajd82B59SkrYh1e889rWQTc/2en8/Csms+8TyT8R0Q8W+JGpI/Kss8CF5umtFAkoPq/SiaK7VIlU945x4yt9GzyGDQC6Ib0zye+M2tgpYo/RUjOSqbNnTVQ2hr6U1yDc4+TYsrRGm2KnBp/auY5PdBxbCb+9J9xBhZ0zawu4BDbXDqN8Eh7p+pTzyPvVZXpYaWqIDkczdmuL8iuQ/1NyNpLtUS15rwRzVoBcxv548H+TMJdVvXjyeez11BS5S8TUxTnfOZyyL6P9Had6843x/nnqTlFaI0v322ZJtN0rtGKqab+ctB+Xnl//hhcGSHRO+FPm1CW4HPDDbxvNl3atREOFl5OuEuCQ/M+2/Vk7MkYcUBhyT5Wkq0/Oqun2FBTYPbSpP0RQ/L+VnPtG9ulkPtD4gbtjWVKJ9NYkSP3K0FRcXvcW7LR3oh6qz8j0BySGzJNpskJUTFsJtkSMR0MdWZe8tjFcXz/BZyI5fkiOchgfv0vSfi3eLMN8dQ5xUlt6EBd1DNxTr/1ArHjA3J5tlm0LJn2Dpn89RvbqZtc3vEQTZNpVJ7TF1UMYS2j6B40575op1fiPpQ7vt+JvngbMk2m6R3jVBMJ8+RSS9iZsgKd+AZQxLPM5xbEPkbJZ6HBPbdP4/Eg6LMlz2Uw/o2qn7kIRthSCqE84dw6VqZh/XG2Y4ACnipGsM5myd+czNsQG8injUj6UFwmssiGRjUfmkr3rTnVaIWWYjSVOR9Wv+qJblhUTHsZL5KHZWW8HwlksTzbOJqL0K7hYjnQa6Slij1oCiDI+4zqBmmEMkerkNGX2majeY24Ok6mQduomi7QVzuEFvrbJ64VaaOlih1F52kB8GpEiXqEmxr91O8ac960V5kIYot2Woh+Z7IxHQxbQ7aiphXvrGd4qJYkD+W/OpGiR3lRjwPcpW0RIkHRbnfbf4O3Ly/FMky0KAh7JKVmZlFPuG48oGf1LbkErcX7QDe2Tztm1slLVHqLjpJD4LVXBZNRbLtkBV/e84VtMxClOb+wJZss2neiSs/ScHM35hi5pX7vhMJwjKSxuhxYocU+MTzGFm3FrW0RIkHRQnn/Ew3JM1WiOR4Bn1USUh/ZtlT0kH2YGgntu+2aJkb2Htn87RvbpW0RKlHByzwkHpoHrtb1nQlb9ozTs5CC1FUoioh6V3LHt7o7VL2cDdNXHjEc4/1+aM0+qhmJ45wFnzINvE8/hethe6lea7lTeieLWY0YRPF0QxbzNH0G82ag6grYw7M5jlXohKT4ObZPOlm2rbxzQPSLcY1PQhWc1k0Qa2WqoTij894uF1qIUpzf2B9ezZJ5yoVwy6SkakzxL0UeDaDhfWAbRm2i39bzSEnD5KFSBW9P4+kg6LcbzePfi3qMhnY3yOJq8+62HSjHQenCA1uKW3SkuDu2Tzlm5vhsl+b6OXAVzRlGa9hCJJLoeVbVDwBT3/RXmwhStMdykZIs0kWT6Jfc+vm2Rm0FTWvfLPZ/DY5xD3hLQqG7eLR9RmfeB7/jNbBfBuIXdK94io5L4MmKxUguQcNbLOV5EnnLLToqpiDnzp8biyH0m415tk86Zube3vYLuUqmWZtUHhAA2g685s/h+I6nPwPJ70QFdc8V/enXw/Jb5PetQ6S6RAzRM0r39hu4xQdz/ui+M2NEx8kIJ4HpYpaopRZtGoqUYELIK9IiitDx15JmoSn39CvZYtmg7N5otaOaaQ9Ljv8iy+6N7eKWqK0rRWSi8TsYUvzw2iuJyoegKe+aOcXosJm6mlWKghazCZJUbbta4nNZvND9XQ3TWhWzXOUS3Q8z3CyRfwjEPE8KFXUEhVb7d9ncLiDiM6JJBE39Fgk5dPpwUfd7Xr4Dn+GyzovcmaW22fzlKGtmlqipIOiJEuDZnNZNGXr5jKr4ql/4ov2ggtRoq887OOvh+QapHetnfvafegME9N+sNh4nmZU5DjxG04Tz4NQVS1Rgk0Sttz3x9gSRRYlFcvBUUPJstTUDjxdmH5EQ5x1pUE6gnrLPpsnfHOrqiVK2kQnWQ91e9ZSHHNLWUVxIU570V5yIUqzAk7OYj7F90TFsIPn1O4XocER09ei2HG555Lf3CiKJ2biedCpqiVKOSiqnhLd0EjbPJLaz+XQjyhZmhnecPTKpWxc+fBsnuXddEfGwOYKuoB0t+CqWqKk/dqS43GbyyIp0jYftOIvTzoniy5Eaf4BsCXbbPSuJZMMKZ0heFyHaTRx8JvDBI6rdIr4rE88j7Dw4rkP39unGxRluktEg4vI/8JbkkMZ/nEUk5gm1j1148rHlMoMo+47Et7EK8jm6d7cHPvPuwgHRUmOxy0NkzcWWfGmPamlbtmFKM1KxXnkEayDpBJFxbCd+57awdM67g0OsUHkUX9W/OTGkSxR+sTzuG8snm63+TJ0g6Lcbzg7QoPhTyQrQT+Gfx7J1zNpX0Ldmtmo1S/DfWh3JPTfVpDN04W2vDvmDulelTJHJuWRdMg0Pl8q5tlNuXoWXojSrFSwJdtskl9mTlq+DrLdaKaJHt5t2hIWGc8zfHTWPBjaxPOytjSCSm0tUcJBUe5p8F2CTjFJWHFEaUWSV590tcnyrmOyeaLWjunk/bdVxNFUb261tUQJ4yOaSf+ywxlI0pjfWBBS/C4nvGgvvRClGYRNymK2b4rviYphK/dXpvBladPmhbhgiONeP5ppFsTzIFJbS5RwUFRNA7SCo+Eb1Q14zMQrRaVwSu5Rl+ocNcbKPYum7r+tIZuna5WprSVK2EQkqVjarfnlZYAUb9rjX7TzC1HReVTJQbAl22yS3jVh+Lk27q9M4avSkk20x4tLyxjOtfgYdrCvEM+DRnUtUX//3qnOTVVFukkxslEkabgxlag7xQcaf3u7lDVvjys/akJGM8TvSvtKDdk82ZtbfS1RulV7SQ+C3VwWSaG28agVz/2j24vyC1HRj+Kayrz4n/wSSW5cVAzbuG9kFL8oLXnwHi8snuf4cBTcH7tFPA8S1bVETd7PbDyDYx1uxICliX4pDmNUQU3RtDb+vi5bMRqXzXOcuviadhm2kq3iRGejvpYoXe1GsiLqt+SnOOrGx0vFUI6xL9qn6XXr8AuELdkqIfmeMrayrYPkOXgGwSBd07fGqGYww4ejM1VF3yeep6q9IUNFQ7m3IifT7TKt/LcJvwFJwoqjGt4kMbixtzfdZTOyJGtfepHOLK8jm6daCbLvl2uiOTWicaV+c1kUR934HSr+7sgH+RUUojT3B7Zkm03ToVH5SYpjOq97K3pe+cZ3gm5Qj8JpejvsIdnClU88jz0UFkwXJCpI8a92U0EX7p6buIF9jyTXyriPpFibGZMX3Cini43t1jIMu+/5MPKI5qgjm6d6c/O/NhqoAiSSg/Fb8ZMcdsPflbxpjzsVayhErTSEWh/JqkHCTraVMB2StKXYRls3CXWUoFyIY5hAF561iecR7F6wGluiZIOiajs5Y0smYymOYWSV8V7wkUZOyJcNXhuZzauh9iJMKEleuwrQLARV2RKlaiPS9CD4zWWR/L9o+LuKi3HcvNdVFKI01Wi2ZJstb1NLVLB4L9hFW7QqPV7MsUt6oscRFoqJ5yFclS1RskFRtVWiRpcmxpG0iI3s85FcwL/tPtGD0b8Cg3tJD1n4vZ7Si+bNrcqWKNXbkuZa8Vvwk1wUDX9XsQQ96tJZRyFKU3lkS7bZJCnKb5WfpDDuWzwJNtH2nZUV8mb4RfF7G0lY0Ceeh3B1tkSpBkXJYlal3IaeDkklauwhKALroz6TLEE/+onD547STrXqcWq4zNVMckbqbIlSVW80zfmSQxklqxKleNMe8yS/kkKUZqWCLdlmk8Rl6F1r4b7Fk2BeuW89LiSe57hMp9xPgHgeglXaEqUaFPXD4FDHCY0tSsqWYxOGkvGRIwZw6WaLjW6Aq6HcMC40M10t2TzRm1udLVF//nxRnJzVTnLOqkQpnnxHtOaspRClCaEqRwEulOR3qfnXWh/TCUlbonejS5PD3RcQC3Hc2kbaHUQ8D8HcZ++10gyKMj34DqGduZKrZfSKjqJNeMSHklUvxw8F87mhdNCs9VTUA6Q4IY7t54NoIiSSNUHDSpRkx6CGv6t40x5e4M0vRInK85p/ippjWTTJ75LetWbuQQnFvPKN73kImJV7rvi5jSQtyfiEKRhet0zu25G2kwyKci37d3kfeD4k957RB6BoQhre86uYoD7yI21JWjvmktQW6snmad7cKjodr2ne0dc6yVlx2E3Xt+LPDi7wGhSiRJkEyUoFW7LNp/ieCMI0s39nkswrVz7pjjNye6EBHIdanAV8oR184nnKUCJkZCNtipNM5dMFrcop/4/4haTdZ0QQ7okitz+0B08Xd53QFei4tnNAco+tJ5snqbVU0SzXTPK+JDkSw0nOkuNO+rtDz8F6ClGrDaHWht61RO7vTCGDkpq4luSKx2UcF3CFe0xvrB4Q2e9iieptifr7V/F1uG+S0ShwXqHk84//WIqvaWjLs+w5ZUoTch3DgAR9xzXN51a8uVXbEiWaZiI5EsM0jOS4D/+s4uc5tDVnRYUozcq3+B1qiSS3LyqGjewn62rmlW98p+gWTyc6Ph2Jh+35tIWp5shCqd6WqNgU2rMqNxa8GN9UNJCkcDlhSUfxcDBwDKSsi27SypdkvMRs8bMYa8rmKdKKFbdEScKcmsKlX995Vu+FYmrZwBftNRWiVhtCrQ29a3lMM2lbcY//B0yHDJdOhTg+HcnrMcTzEKfmlqiIwXQH6qzUhZ0ZSZllSuxSUTH8PeiTyDb4ndSCbHAfGSL8XlNRNk/y5lZxS5TkmUwzz11wICNlVaIUb9rDKpirKkRpVirYkm02yf2LimEj2RPeRLe6U3FnegoKx/MckwTyjBrxPMRRbDoWRjEoyn2XjBZRIwslYcUpdTRFSfXXkA8ia6KbVG103Iy2SfQzcE3ZPEVo67PBUU4neFOX9CAYTnKWHHdDKVHxpj3on8y6ClGrDaHWRvJuzBtfE/uBHZpNxR+ZVuXKxvMsn5rluwkQz0MYQYtLZClHcGG4R8JbRC2LSOoskzZFVDSvDeh6vlZdMNOmUtZSgQl+J68qmyd4czuNb4WIfHUS9FhIehAM0zBZx6140x7ys1pZIUpzf2BLttkklyUVwybui9OyeeWbtcTzHLf5iR9gcYB4HqLE/1O9jQxVCwZFBX76UEGnRtJDN+mzK3KDA0pksibDaQtfjnuANIotLlSVzROEtuIvi7PIFTXBBGRJD4Ji4NVIkuNuqEQpSsUDXrTzC1Fn0rINW7JVQvI9iWci18E1kLalm1e+2Wx+mxz0vmGTNIbxaQbakZBw9onnGT4oYQ7B2/t15D/u+EFR9redNkHJRcl60LQii+Cj9a+0yMaVT7z0q6lEhRYX6srm/TmLPBcbTUvUu8hVfEGqTdJEZziXRTI3qKESpfiz/UdvUIjSVgMYhF2HY8X3RMWwifvkWOG88o1vaKRkKMTxoTkjyO9TkTMcY4A5BC1RoV1F8YOiZJWF4kouCryQ3HemfTRFfL+vRnapis1P7cB2HL3YLLAVoLJsXvybm6IlKrQPLb5bO/DDv/BLw2jeeA8rcIrJHP0F3tUVolYbQq2NZC2F970Gl6InvMmE88o3voW5gRtdD+L4uJjSFeQTz6Nbc1EEZZb3seWu8PK/bP50caU3Mn3k/MkFVaC+u7zscpk6lDL91WqwwGmplWXzwkcCSFqiQnu7j4LPkGhmqV8lStOQf1iJUrxp9xZE1leI0qxUsCXbbJLfJRXDBvZvBMp55cbz28utxPuE0nakTEoinocQ8S1R34P/dcc0/uyotxI1be53D0lYcWqnm+C76llpUWzg92ByLNXgJjJQ3IJsZdm8+Dc3SUtUaHtN+KCotc7P0cxqPaw6K/Zy7LtoVliI0qxUsCXbbJLAkGD8Xn1MN4vbks4rN+4RK9ca5pgjyNk9jngeIgiq2e+DZ9qV3ayzgfs+GR0i8uKSsOLUe4jintg9DVJ1tUx+2rCcvdgiqkGktmxeeMePIIH1UEsL7LwKfzBRVEbi54GNp/mtHP7UFW/aPQXeNRai1hpCrY4kJ0Pv2iHXFqAt6bzyjXKPnnGKxfMsFy7Dm8CbEc9DgPjq/kN3S2SBIHwB4Efgh48WUKaTtIhNbvgRRNY7+7Vk+4hMbsCuqR0oakW2tmxe+JtbfN/L4/5fkY8x0c3qK53krBkT1XCBK9ahu5/mV1mI0nzfvEXMJunTSNiey5770rR4Xvlms4ncHH2OUnkZTVvwONoNVV/4xPPo11wOUUtUbMUr+v9u4EePd138dEgqUZNvIYpwXMc5lY0rn75lpGXkvUXQ3ba6bF7o8HZhS1RoNSd6jVDy5uf3dCVpBWtKJSrOd2eBd5WFqNWGUKsj2dKS3rUD9jsYieeVK0dSjPSrzOGJFmPGyXpS8MlUGPaPYyJRS1Rsq0rwoCjX/7LDFPpfvEOyIvTe+eN1VIF+xv/1BzMaAR33o20VUl2oL5sX/eYmWPN7LKVFvuZGP5qtdJKzphu/4alS8We7CrzrLERpKo/M+JhP8T0Fr4BUyXSnuBfieeUb49xImS4Fy0fmtBqxTzyPhs2lkLVEhbZvBg+Ksl8C6Ta9ptNCctOZfgcRxOPaN/aTTHP/O+9hw+dGMkDIVMb6snnB0ykFa37PZaLAPxH9dhv40V8kDX9oJ1oCPUwlSv5w14Hn7zGacjGsNIRaHXrXctivTKvnlW+Md3UqMzFL0n04Ul4tn3geSpO1RIWWc4L/89rPJ+w2dRe6VpJPPePzCfJxrdU91QSB6dk8z21A2gV0BVSYzQt+cxO0RD0PcYp8vY/tINGUZOzSMKLnzsOHSsXPtONntdZClGalgneI2SS3MSqGB+y30pbPK1cuwY5UJBJiOc8ir3maeB4KE/xP3b6zR/6R2EFR9neeHoVvTJIdW+eUzwSVw7YgvqpoOav26rjA0+7bnENtVGM2L/a5Q/BOs33zjCx6xe4Mrylg2qVhRAWZwwv8i+Cvfmo/7vyCfVJ73EpDqNWhdy3Hheghbyr9vPKNZv13khInI39NokH0/iwdiOehqMv4/6kvr8yR3SKxg6JMdygdrD1LNokkrDinEiW4rFvub4q//GDWIACDG8gI5Zc9qkonPgt9cxO8e26fmyLXFzvqCgUoKiN+aZgPkqNueqZUvGm3/6zyd0vKymlKDo5XiNkkGXMqhvvsIxL6eeUb4YDUsQqsw1v20Mc+63QjnoeiBM0+L/8HIv9Txf7vdd+ztdecKNchyZ141kcW3BSb72+qu/Gss1NbNq30C5mmoFBaZGhL2RIVWtmIbdZeZw+CqiJzuMSr+MutXXTrLURpKlFsyTabpHctts20Rq6zubcS5pUbT9MtEM/Lvxc0yJwnaRTPY0OFBRB0cOy040QOki7c9bPHvRu3V9l2XUlY8X7OJxSMlGyMx6luxvPmotVWiSr8bn5aVzjxWeQIJGVLVGw4NHRQlOSB1K0SJfu5HP5pxZt2W0FkxYWolYZQ6yPJDFEx3GO/f1HGvPKN8WvS9dwDE2znMl7uhCSfWIHdBi8YT9oSFVsemP3fpkvkB9co2jMm2cN23oZ/gjxl0xWnWi2bt+hluSNtl7KB+CqzeaGhLWlLVGyBIXQFf5Xzc1T/LRoqcIpxbi3/W1ZciFppCLVCku8pdhOICtnP6siYV75RvRdMMGtRe+P6wJwbS/OJ52WGFFGGtiUqdqRd5H9f+0WQAUpW6iRhxXnFFsFX9vPwr97H/9UHM8OWkvESJRV9Oa8zmxe6BKZtiQp9sAt9LpEMundLw6im+zdsTKD4s80HveZCFIOwK6Fp1Vj7Wd4n6LefJ2deeXDoZY7ZPWKWTfS5FWKfeB7NtfVTT9OJXEyIHBS1hErUnAHg+yRduDM/Y3x30mEgVDWufG4UNX9PqJFOZh7wrkqzeZFvboLa3KsFvMgWrNCe9cDP/cIsDSNb/DwsvShGpX9sPOj8QlT5DUOHk6xUUImaTZKiLHnvXQTXwdxbOfPKVXtqTzFzGd6n/2dH841Lh3geShEU91+/M0e2jEQOipLMRYo2L+32iuLjzv0+BVPVD/ZrVHUnz/0qLbek7VRwn6VKs3mRzdiCrpdXC3ih62mBS4WaTeQS92ZuoCvcHh634k27sSCSX4hKjV6sMoRaIckbMhXD12S7I0+WM698Y5xbnBnPs3xezm6dJp6HUgQvzq8zc6G9RYGDouxXQYYoN8bwTvFxZ/dwxT8w7O/JoWqda4gFjmNw9xip3M2m0mxe5Jub4Jli73Um8tEu8A1XM8k57vNPIRuR0dDM9lnwZ5t6j1ZeiFpnCLVCkt8mu6S/Jtk4eo6seeXG52aJG/xkZ9KI56EQeUtUbDNN4KAoyVykcMVOkKTiMrvFWNDItpfHjxyDtuNm7hgAy51AepS62dSazYvsQRa8eO4lziJf9QPX8BWVkfSu+9d0v5eGYrPiTbuhcLn2QtQqQ6g1krT30rv2mugpb7qseeXOI7RmtSnk3w8a5DcCEc9DGfKWqNiSTmA6WrUjWqzZFYxnkrDizKHckrvi66ZfVYZzdszSc42nW6kV9FqzeYFvbvqWqNg/GXWeVjnJWfcU3vALV6TEDn9Wqy9EaVYq2JJtNkmKsmAwfgnsZ8amzSvfGL8pzXmb8Fy4zf9Z+sTzvBbvMJLgTf1i/xNFxtwCB0UFfmql2cWdJ5KSy8EQptHiK62vmn6vRfMDZmfzPAcw9ig0N7XabF5gC7K+JSp24FJcs4XkzS9zVPUBYdG6oTKhmM9x8GdXX4haZQi1SpJ+RXrXXnEdhbSVNq98I9w8eqw5L4eWO02HbswyjFE8z2u0JsYR/Es9KH2EbvMZNqjPftvWgS4KjdKShBXnD1gXjLPaveREjygFOttko19KKvJAXG82L+7NTRA5O2zzifxrcXGS1U1yPpVMDHrQ9Git+Lv7f5NClCaEypZs8ym+J4awvOL/LpA3r1w1QnaK6WfF85nRYb3KJ1/AzMGKCbpMD/tEQ/+Pz9wgoZ19Q+5QhZZLJC24BT5nfMVs54SqLpICWyBWmVAr8n5WbzYvrANZ8aB1WEWMrOnExdsCP/QLpx4E4XJww+9bsei6XwCjELXKEGqV6F3TU22PPFnivPKN8RSt6UkCzwSBQxcQ8TwUIGhsaUiDRSaY9rcyK8Z+t4zByqyXSD5qgc8Z/729xE8vRbfg+dk8UWtHaWcF1mYrzuaFvbkJXjsbPnroXw06U6J2dKP5OcqBcg1TRxV/fu/azC9EGVRoJPV6tmSbTfLzpGK461I0gmG6xHnlG+NtxqfH83RtwSNYlF6I52G+lJao2AjTwVSqUlSjqON9L3FGLqv5pPHVoe19X3SNFJk6X2dEbf4GGTVn86JCWzktUbE1waiuorX1IEh/Lw2FZsWa6+uCSH4h6qNBGGp1IdRK0bsm5zoHaSt1XrlzfmTqIrzn9j4eu8URz8NsOS1RsS/sUQlp+yGFwxXIdmluNkUa3OKfG54/pmp8QInvTxMyKm7+MlDF2bywN7eclqjY5bSol1xJN7rBKNJnioHhz5p+3Yo37VfXCoWoB5IjZeft2STZWSqGu1zDZ1up88o3wamXOaaGCTwfGj2Gt/nE85g6WKuklqjYvxs1KEoyoVujxAaDoWPnnxXZ50/QS/00BF50iZTI5pmu8vSbG1uqOZsX1eijaHtpfOeM7HmPal1fWQ+CtC7TtKip+ABfsg64kUUhan3j0Col6V2j22CH5NF3ltR55RvjQVoT33yOFb+x0UyizUbxPKOZBhgjqSUqdsZQ1KCoyM+sViBGLgmilakqxt8WHz+n6AmlSDav2orMzO1Cqs7mRd1qBcWV5uWq0Lf+oPd5SaXCZn6OdsGzadCD4k17pyBCIeqRZqWCLdlmk/QsUjHcYb8mnTyv3LlY93vS4Qj37BjB5Ufp0zDmsJcgxhPM4G4JLEfuuxY1KCrwI8sVyJFLVj2KxNAEobmHpRbVuPIyJ0XS2hFgZm6p6mxe0PggxYpfcwwndKf4L41/crZVzc/RFqIa29gUpeOXggiFqCealQqLQ62b5Hui2eCFagbDdMnzyjfGb0uTcouey5c2WTTieZhH8ObcEq8K3VshpjXVdgjfJPNjb5KFoesiX53gs77XjSsvks1zXeYZYNZokbqzeUF3WsHbd8sH/xD5N4MWyCRPpUFVtLFCv59DjRkgxR/e/jEKUc8kKxXsuz2bJjhU+UkqyjV5tpU9r3xjPFV3Up+CT6lll83sNuJ5mEXQEtVWSgj900WGCx3wD4ePMrvGI2kAKvTdxVcRb6uIsocAACAASURBVDebu/A/8qBMNk/U2hFhzgidyrN5MeOD8lqiYssMQa+5kR95y6Px/oP459IUzlMUw7Y/KwpRW5JTwZZss0lSlPQavJBsGj1L+rxy0cvlJFPieZHjLKdrulvmIJ6HOQS1hLb/iaENrkW2/j8g6nhRmX23UnzOEpPVH4Rf6heXqukBZbJ5rnfXIWbcgSvP5sWMD8priQquh4a81GvahCzqEepCVGPpUPGm/enpb1GIerGqEGrFJP0aVAxf+L8IpM8rd67XTXjx8dzcx+g3STwPMyS2RAXv8hlyVYQGChPMrGhIOoCK1RTjr/Ur0SJQoWyeqLUjxPTXl8qzeTFvbpktUbEZoJCIm+axNOKTjyV/vmy8ShQpsaefVX4h6swnXSBZqaASNZskRWmzgYIB0TTQ6fLnlW+CRwHPMSGe57l+OWtKRVlG8Ty2VqhPYktUcIy4VNvIK/YbZow0s8ojGZtVrOxyGVr5/Mf38L/woFQ2z3Rf2kEmr3scV57Ni6mtZLZExdYGQ1q1JW9+Duud8kLUWWM/kOJ8Pz7UU4jaJTlg3htmk7wmUzHcso2dbRnMK99sNvcmZ+PA6Hie56PyzJ17yvKp1VEzr46iybR9GFHoXw8ZFGW/FDLWtP1Mn0luNOW+yKVkK4sVWT07joeZWo+pdjTWVsCbm+JCaF++C11NCxkUJalEfRrwQYLp6zLND5GKH+3Dz4pC1C5NCJUBs7NJbmomGyg4sF+RdphX7rzD4K+xR+K5t49VycUnnmdVoMMA8V0inZHc0JaakEFRkR84xbwhTJLSzrxi2S7/nXcHKdYkFrt/frCJ7+k1H/KTgCkygjeZria20BBQxNCddczPOf2oOMzXmsusig9yTCFq33pCqJWT9PnSu/ZMtC/NDA7zyjfOS/cjK3Wmu9xYFfGN4nkUzSuT2xIVXNgJ+CoWUsrYdT/nfEiWhgrGLO233h2iWDZP1NoRZVKFof5sXsSbm+KNs6uuEtrXHTFKQVKi+Rzwwcd4k/BbaelgU/xpi1Vdq0KUpmzPAvZ8iu/JYwMFC/7PkQ7zyjfOg3VHphc9FzDNRnMTz8M0yS1RwQPtAgZFSeYiac1q45VUovj+Xit4XVe9i9ykF/X6s3kR44MEZ6V5/s+T0Oe8iKeSyM+7lduDcJqSR2guGypWWz9SiDqwmnFolaN3Tcp2S7gtj3nlzt1jI+N5nptMZ69V7SGeh2myW6JiK+YBg6JsB/DNMCfrJfmABb8/2708RiiXzau8LjNlQWgB2byAN7fslqjYDxCwcKjpQz8u/8GHe5OQzGutVyou0LcUog5I7g+sX88mqURRMXzmP2/UY175Jnp/9DlGrcCb7rds1qVIPA+TKFqiukvPoVtQBKwLaG5B4mx1Z62wk2RtqOi8L/89T/oUzOaJWjvCjO8ZWUI2L2B8UHZLVPCFWL6is/gehJyGqNZrW1Ejekch6sACOkiDeXxP9K5J2VZXnpnMK984BxlHFes8/xEabGnymk/Gwu7UoIMiw9sdJYrt3Sz/7/hX6Od9ciMul4zeRmJLEnab/vGaVL/5YdHMqcEtY4bxi+mLeLMq3pKtWPDrKZ+FfjHlB0VJihYhm/4NPL6sim1L0VDxpp3SA/aa3UJu/ikxl/gb3SWpG6dvoODCfznTZV75ZrP5bXA6Go15rzj2/C9kd7/wiecx1K4iivHbfQ0toasL5TZdeyaZi/RdnSGbXNyQ3GXKhiz9G6u7lczmiVo7wvT02RxaQjYvYHyQYAZC31cV+ipVPv6z7B6Eo7ShGG3fVNXz7AaLGK0/i1HawpRJn5BkhcVsKE0e/xEPLvPKN84NZCOyIPlbqjbxG4ZkdMOwu5milaJvsq/IEVraKfrW/iDy0+58bPFg7cn5N0lZZ9bmfgf8h012Ktt2bZp+H2zk3WYR2bzyO/dKok89nyH0Siw/KEryZPqt+Mce5CixcbAtR7mKlJjfs3PlKxUCSb/RfZJ+vtwNFHz4b3tjM698o8qRTDH8xeLU88HR5J/PLuJ5GM2hJSq2llH+H3Lkp936Kuq9ejF1vqEkA154C0T/DXi7lG3zk7R2BBqZjVjI+2zRS8CjJSq4/b34oCjJlZSShsnrh+pqXltGCbmb4SJu7SsV8UwSa5JjdRtilsX/CdJnXrlzlnH466FpL33qjibNiOdhNIeWqOD1hdKDojSrIe81VcIdNxPPh6RgNn2geiPbbWWHKDszSzNeItKoh+NlZPOKd/g4tEQFl8OKv+RLKiP6HoTjb7kln9ZH69RPpeGYJqh9pSKex6QWzRgbgwN1IH42n8BoXvlm8953qtbgN4vM1Zl2JjPqXiGeh7EsWqKCw1KlB0Vppu+916+7TJzFJBn/Xfg7VPeblVT6EaP6JqEx/ckLyeYVH02ieMzqX58KbesuPigq8sNuiXsQTjNjeQ9av6YVpMQswwSe41GceCTWJL+P8hnnOvlPGvWYV379/v7nd+sNgobG80xbQy1LLcTzMJIivjsgWBU6/a/0oCjNTeifv3SpnfM3scSh+GjFI5a2m3n0K11Z9VzrGWHMzMalzJopXFZRdIoN+MihH6P0aM8PkR92q/CH7nR6ZPAI2doStYZ5RYZRi3WM55rF4EtSZWJMhrNnEz+ZT5E9r/z6/dfbGtZ7h75amP4btIyfGcXzHO+oOKAImg2ZhB3a/FO6iiHpVLp4+FPilZdJyyiSoNvkceqtrNdpuhTO5i0h9DJ8XWgh2bzSo0kkwzgHPBPEFhsKtxdJKiO6nXE+fLZ41m6vV64hJVZ+g8f5ql+pCOfxPUl+H44XaALfsNmzxHnltdSgngyL52myr6N5/h6N4nns9VkFxf+LIbOmY/+xF04zSf7JPpZeLsX1kinTmCRjs8pvgHiv+NgBisf/Na0doQYv1C4lm1d6NIniJWbQM1PoJyj8UCJ589P0ILx598nkl3HWXq+sfp7dEIZLuP4nLZlJn5Ckn9FkOHs2/3XMnHnl/2Tx/NvFXhs2lMQ0o2y6laVPPM9xjhb2KYoIg+Zgx/bVFP6nLLkLPXW+iNdeprQeSUo6E0dYdaigv7pR6WzeIkIvQ9/flhM0KfoE4tISFbwReeGZAZLKSPSa54cv7z5Jdn8fqONNdxUpMb/00wJWKoKZzCKR/D48hrNn02xaNId8Xvn1+6+/6swZDHpDlTwijec6to14HsZQdPcMKwOFlgUKz+6L/Khbz6WX0Alah4Y0sO2RJAgnfK4+PxWfu7ji2bxFBNYGrtQuJptXOBBi0xIVW90pnHSTvPnF9CC8efPmy7t3n97aBa9OOsZeOBXM4tgtcq9hPNc8Jn1CC93K05FivO48ynnld1dfq2uE2jVkopbpo6NriyLxPIxg0xIVXBMb+BkGksxF2hbwxKsvE9LlkrtyQCXKfx/eBgFLXUsYvzJsaWg52byylSiflqjgtbSyg6LWURnR6pr4to4zYNcUtaDyfRCTdx3JsVoOSFar4NFRNK/87upnxbtQPxky+sN0WJ5tww/xPAzn0xIV3FgzZfxRK01taFt6ES+/jE8ySu5EJb/ApDNbRPFs3kJCL4NCAwuK9xR9X/VpiQqeC1r2lTH0o65T12VtOjK2OLeukzUMip/H4xvT9K4ZHGg+/3Z6wbzy6yUUoR4M6FQwSpvt8t3JkngeBlPMIBrajhRb3ik6KEoz6nrb+yJef7kZ3XSj+FQXJb/AZ/5h/wPls3kLqc8MGdWxpMX9kqNJJK/4Qx8HQtuzig50WUtlRKmraW0tKTG3NdxVjOeapfCenBNJfh++r75CFYwYjZ1Xfvm77jjevv4GMtN/gsM3jVYziuexyYI7xXy5of8RL0M/RdHQtGQu0k4TkHgBZvRscMWHmjJJvV91AxZDxlAa3CsK6E8NLCmbV/TuqtgVZvDg7dCu7qKDopifU1znVW26LF2e2esFIdQ+Bl/SsrbyNOe/7XLgvPL395UOJu/QG88z3bWh8ODLonziea5T3fHEqSUquCpQdFCUpCV1p7tWvAJzMTLKKOksiugFkm9MOF9ANs9p8WKO/uDVotb2C+bMJL09g9sGYt+nSnYvrKYyItM1rnxFKTGzJ2eDM+LN5PuSbOVJf0EVK5gx88qvfy8lj7en9/1QsVg3QfTGunMYPR559KyijVNL1GZzG/o5Sg6Kkvwz3m0C0jRhbY28i/1WfKbRjVrDVNZhHFKPk7R2nIXfyntfB5Y1eLfgaBLFU9bwpfTYy7HkixTzc0rrvqh9FlmjWTVFLWSlIpBJn5BkpYWNqERPvPOUn1d+d3+7uFaoFz1LvK7/A51LLEbn7JvB6UArr5ao4I7XkrHp0A/67FXpRXwLGHcbk9TJgmLv4hrfTDEt118U94K38e3NPbUZ0/7qqcpNYZS0RI0onIV+jpIvjeupjIj0PDCuZ17RmdMGZYRQ+5h0JkhSlG7j9DP49wUVnlf+/uuvJU2FatCz+m666OQdOyOeh0G8WqI2d6EfpGC3auxEq2f3u39SnCIbN5RJMsbq/YAPMkEFu/HuiMjmie6yn+LfI3veBxY27aTc9+/VEhX9RZU7b0xyLqw7mxc8y96LUwaKEGofk29LcqwEXWp4aCy4cPv+6zIDea/17Ih0IvltjebdoEg8D0Mo2kFGNXHEfpJy14Rmx7XXpRfxzWBU3Ufy2UqmK3fFZkLLipmVpYnAvxPcl0yGzEjGdZRb5ZG0PIxZSY89fwXX9FdUGZHo+2pWcAqeOTVFEULt4xGm1GzlaXCg2fyfGQs1z1/+/vnD4GgkOld5XYvxTq2zh4jnYQDJGOxR031iKxrlgtOalPjrz6upfm2NGvAuiQ4W+/b2iE/sHFHboUhaO44E60pdLwS6bN6J5E+VS5kpvv5Rnzb2sa9g/0Lo51yfvqfFVaXEjJqiTIf1GvFIrGnmPRocaDLxBkJTlEiAvP+6mirU375TZtr9/Mn8l+ITz+Pfli+7lqjgT3Q/4BM4fM5ne3/0l+SPbo3p7lV8nsK59x31tB7HZPNEncdvBGvrHzsOUpfNeyN5Iyi2yGPXEhW8tl+uhMf8nKK6fr0PJPPsbJSbAzcXIdQ+Hq0JksYNk+HsmWIH2hYxd9l9HYm8V7pCM64jRr+Y/1KMWsncT9V6+bVEBfcalYs2SZpz97uSxNn0ETVEyScbN7lqDPEIrumCsnmi1o5jRbNuexpcmM3T3H+L9UzYtURFp95KnTgqUUWd9Y5yWFdKzGd/bkKofQy+JNXvw3nbeBH/HeRmrdve3S99OnmzjoVe065Q+0Yfo3ge/7dc+bVEBU8CLzcoSrJccFB6kcwFfzG8iCjJt/0s9u0dqGRr2qhsnmjBZ6O4obfeboTZvFPNG0GpNR6/lqjo4lixKA3zc0rqn7Ujmb/mw6Ypal2nfYLebj4NSRbGaZR+jgqWLifPK7++ul1lFepv50qvUUHlFf/hR8Tz0MOwJSq6JlBsUJTkf/VBbFmdTh88IlzSrDz2UhpBE7acLSqbp6lFPDysh9eDWm83wmye6PZbqp5i2BIVXOIp9i61sspIrAFrlitLibms4rpGU3yYJNZU8x5Xzj+3NnHR8v16xpM3aj1rrktOPgHuNsTz0EPRYTP6H2Js7K3YoKjQT/nssPQirpgMHnoo+VyjNvMbp4IBlJHZvM1nxX3g8WE9/Fm55TlZmc0TvREU+vIls3fGvr3E1kaLdTAwP6ecjwNG7ZjupB3GYw42IdReJn1CkhSlyUWZ587gYbDHhHnl1/fiQbSGWjvJTG88Jq2YXYjnoZtkts/oPpbY7ppS7/KaW1FDC4w4Rja0+CO5hQVWoirYlDcwmycq0zw+rIcvkTSvTkuzeaI0S6EvX/GQdTL2QwU/v5SaL6xrtFu8syHLu2s7KSatNoRQ+5hUoiTH6r1vvEAFT4tj0x+/f1YyoSJW2wuiUWPPKzW0JxLPQyfFv9PxL8+xNZ5Sg6I0+/43lF5iJ7ofGDokXNKtXOi7ayQeBj9JWDZP1Nrx9LAeXvhofKPVlQwepi4r/lCht1TJQ9b4J6bYL6xUn3boh1yXIZ0WsVsqOvLoP6ES1cfje9L0rhkcaKrYYbZFjJpXfn21zvnkTVpeWF1XnGooChtV8cgVG5K8e08YMh37gQoNitKk5Jr+sjihPrD6ofgo5cbNG5zXCeK2DhTdaJ8e1sPfapqGOOpepR7qbZI3gk9lvnvLlqjo0faFBn2urzIS5vOQ872+lJhHUxQh1D4rqkRVkAiKVcFU0eHzyu++rnsy1J7mE+d636kibmYUzyv0yIySJB2mg0dev4gtCRSaep1XidJ0Y23dDDsfio8SWYmRN5uNdzHhtzSY5DbwtEV7+I2poeyhy+Y9PqZLRi+VCYSYtkQFf65Cb1PMzyll2DO1ZJ6dF4tlXEKofQy+JNWCi0liNI9/jm1oFuX3LZm815rjeeE7Pk9Uxwhun3gewWI/kpaoCWPzgos8hcoZkg6a5s8qzqgPmvEuKY9NuZhGcL8lFxu230CzavH8d8Nv64f3Z3E2T/NGMKiLpJdpS1R08bDMI8kKKyMxBlYGV5gSm/LbKc7gPHgzmUAi2crTZCRWmiuDp8EeQ56VL8nkNWla8HVtfba4N/Qjnod2khnTU9o4gptTylwSkobW5vK8eKLRoNUVSUNRoXa2NubPF6EdYZLWju3DeniD0kEPrjibJ1pDKxIIkdRSJt3/Y7eBKrOayPycMoZsm7fxWl2VMXh4NspXmDLpE1LOe1ytCtJsvUNIru/9x1HkaFrxdb3NV/JLJJ6HVr5dLMGVljIbsMV+xictpRdxSn3IqC/JRxoefZ/k0nqBKDSbp1m0eHlYD39e3ptZrs7mid4Ihuw11udUse33tKW72HNYZlDUGisjAQZtmxd/TXgyWPgmhNrH5A1HOe9xrcTzMabomVd+fc9oqFZN507xkDRFiSdABeJ5aCOpiE97e46NSRXprNFsntFSelGXTAZ8iz8Vn6NMDTH5IKaKzOaJ1nxeJsGEF772cmvqbJ4m8lZkNInkm5/W1RH70coMimKScwlnHwac6gf1H+sE+SvfrnuY+zDpTpCcj8G/1mUSj8eYomvRlgnlPQ7fd1z//VUzsI14Hlo4D/aJzQ0WSTlplkXaSi/3kr++1RwSfEVS1xw4hHEycexxlNhp7Zow2c7DenSh5nUbgTybp3kjKFFLMW6Jim7EKLKeGPsRV2J4IWqd5/ssfR2XEGqfMjP75tLMs7E41DTOj4lP2idq3P1kQnmfw0Vf1/0a6qmq+DSVrX67BTPGLVHRhZYSX4RmplDr+RPfTfqbkSSrLCW+uE6+i12x2TxRa8fOfTP8zWY3QKDP5mn+ZIl7quQVc2K/QPB0gSKPcbEfcSWGp31WmhJLb7ghhNrHI7Gmnfe4TuLhGFO0tABQhhrkIJ7netfJX6EYzGjvwVoSjetgvddZ8IcrEfLS3I1a/7xkQPiL/oYcxafoyb4X4DsAIDabJ1qy2HlYDx9huLsnvD6bp3l2KTDpSNISNfmBKbZz7nzAJ+jD/JwCRpQEv1R/sJOkv3IQQu3j8X4jnve4ShXsN9c0r/z6njLUQPvLvkZllFdKPMGIGN24PbpX8ci5JSq6rjFkAncfSfdMR+lFvO9F36xwScNycEBtY7wpSvihS24Bu69T4Tf3lz+WkM3TbEhXoFPCuSUq+iIpMQh6pZWRosb0pq01JZb9zuE6sddH8hf0RDzvcY3Mt1j+2/jiwIjyMfZGCWsirxPUNK/N5w5SZkAoipD8N53++hxbZynRWyOpBHWcQHH3zk3P6ZB8nCKj5ruZPmVEZ/NE+TXpXzzSHtuf17c4yRvB/ECI5BlrekNHcD2vQBsD83NmGxWS/Fb5wU6W3HJT6VnTMdjfcKNKUVaydXyQCko6ewvHl1eUoUbZe91xvcmb/M8ZhngeGkj6NKen4II3MSsw+VrSodvVvCUeadRTBZJUcASVKNPO6+hsniZk9HotIjrv8fzXThOyeaI0y/xKlHpQ/UjBRcQCg6L+P3tntt1GrmRRTZTE1lRSuTzby/f/f7KXRYkimRPGEwHk3m9dfS0CyAk4cSJitcpIMeIuwmqzxGx9KCShLuEkY01d73F9+K3gsOe4Xvl/dRtAdclxdqNXQ2hTaWak58EQ55ao2mWQfuXfEnUH+Mac9PJZq5lMN+N4RVI2q0R9ryVcVqOsn5Yoifocb9arV7R404V0WsGh4iKRv7Ivu3NLVG0rRoHTPfVz8thEnmpr99z0i2kgFyVqiQI1+0qgrve4PhrQdQ7q8/762kBVK38ceQAktddSaMvbQ3oeDHBuiapddii/UNT3ugN8Y3YFxZrJfPV5yed5rAxjaT4pJhJJ9dw8m3JBtQ+VO51Bd4Y6+r4pfjC/hZFzS1RtoaeAu329ykgRNrGVLjqYcyKmphuSUJdwkrEmmWs7HbvKI6mImsn7Rvmz71Z5/4qL3UZwlJ6nM9XH8dDWk+MoPa+l+lpd490SVVsqyy8UpbHozkovn8TBjlk5RPJNyb5qIYizHkOonpsnsnacbNZrF/V+FWqudFLB4eetemvAPyXOpu4tUbVPwPlBxbrj651oIUpX880flk4UklCXeDK8Oh9o4i4upmpE5cIhJdgdb5wXh3r5+lndATyGg6OXWz+oj1dOMI7S85wYWMG7Jaq6xya7UJTGkDQ/BnF17VllUaGKveRetCA0brcYBC0DNWGfk6PUVW277rn0CHWUfC7ZvWTHxNxbomrvXrILnrjtqtME99GxyTVniVmaokhCXcJHxppBvcd1oY7/pvDfa1ae6yF++f3JaQLCGwdpM5ImAAnkW+LF+EnPa6rUe8dIZJS88/PvuoPLLhQliYwsSS9i6+2ctKj4fYUio7J3RSDIzRNZO07PnbWFkFvlyVVcBOtPgYQQzeJkpXJU9pZla3nUz8ngPv7WqO2jdI2h2OE1QcUPPjLWDOo9rgunzZUPefnkPCvvf/++n7/81tz6SM9zG2xqzthDeh4coZH188pLV85+yy4UJZErlqQXcRePmZxGyUjmK1UVw9teQ5Cbp0kmG5j6q3/jL3S5eZvjRC/JiSDX0SMxOmRWBa97AbPDiqtWRjJ5SDi8r7pekWEk18HsnWN3bQ6RWICdlMQywbfE88oXv+WXXvn6EVp1rOvtzQpuP/HNqSmk58ERDViiaptssgtFSVKwF6UX8Sfnv8mBSJSouU6CJfG12ZA4wSTWjuFBqrYU8myUmycK/2R6JDR+nsxSTJUXMnc3RyXnZJI2g+vOEjPrnk8S6hJOfEIW9R7XhDj42x9f/jmsjOI4PW9/+PL67mswR5b0PDhAY4nKzX+rLPXkZjzVHd0bi9KLuKbRy2R5LYm4OS2ElaVyZmgcktw8TTLZcLNeO0ii+/Kdzk1yIsgUeVqwRNWOSD4GDGEOrzUk/JOmqqxbiTLbP5OEuoQTJcqi3uOacG438s630z2836LqH6VRnGYmm4Ul0iE9Dw6QqAZfcle8ciGmTFVD08p1Wc0TlyWclMYkZbPy8j3DcVWUUpGbJ7J2jIgSvfTA35yKQhINLO+aN2GJqt0sLbdQFJWc04humvdGi3MtSK5wmookUtE0TnxCkiVc7ylOs+/vlX+HO3hXUd9jvKfn+ShMF4Wj9LzcCClkozlnZ/tXKmcQZ9Yc0ph0l6WXz1rRZNKgIwkVZTc8DMVR2xFRlXaJtWNks95LmZ3BCVHxo5n27CYsUbVXMrdQVN3RdUtCrfJXNPXs/LIxOn6QhLqEDyVKk0nkYKJG+G5I55uvY4cHx9Ke8/S8JqUUP+l5zTUe7A+JfSXbElX7FZU5QE2lvQDpRWJw+2BKwJOYbPMuWQR+Po+a3DyRKvE0/N0rP5+mHAapGRK/UV5CiCY+lWuJqn5rZsb36w6uV5Lrha4+S8xI8CAJdQkfGWuS52O9hzhXbvmmePln4jDjtwK88/S8kd20fxyl5zW5fj2hOWUXKOlT+aWfd8TXCEABA1F/G7+PD0Px09lV5sNx01xWk5snilWMbdYdfZrSGeTmaU4Eef0/JImRBQJ3lYvO5+U7rV4ZSWGTvgl0ZO+3wcgURRLqEj4y1ozqPa4Fx7lkrvny32RQXWKMSGN/iPXo3G+z5DbpefCOxF+ab4mqrgbkaWUSqSIoM0vcB3V8TBJ5U5SoduaoQ4psypJ3/9ghqoumTEM1Q5LNkuWP0FR+ybdE1d685BWKWr0yksB9xk1BlpiNKaoP62pNTC7LAKt6jyvBr4HHM//OnbXETZdi+Pk+Ro+b1Eb7V5KeBzuasUTVth3lFYqS1EUK0yHEX8fR2lUS5Waxk2BBfGw5VLl5ImvH6E93EG0fiRFXNvLsyEoIacUSVXsbmLchQRmJJsvJ14WFMo8C4m48LS+YBCfnGqt6j+vgl4M9YXOMlCk/wnHC497I5TA9z+QzkA/pebCjGUtUbXUjb4yS12eY9CL274yum8SYpcpUk01oEZn2ZljWqH1XyTA3T6Sv5ShRGktUkZSVyppZlp6HMhLJZV49HbLETBwpJKEu4SRjTfJ8NNg+vgyS+HNfjJYpP8JxEfi9ocJf69BWM2RJz4NX2rFEVa89lOU3qTy2HYHSi/j7ODYqSdms5U6C5XBRmlJXGEti7Zj4eErMOTUZqzQkCaLlXHHJqpfZLlWO82dF+FFG4njILHPU/MuiAAbRcJSoJZwca8zqPa4Bx4lkTlnWoVwbzfbpef5atjarBjtKzzPqQwtnqvpGRSxR1fux5chlGh9SoPQi7vT2MlJ8UHJbTRRLr4O4J6HxhCXJZBNHfo/lIGMYlVsUP5yTEKJZ9DJHlspjzZLLUEZiyChV/kY7c61HXmWzJEhCXcJJxppkrms9wTl273hksl3eCY6nsJ+At96h7aoojlzkq/V2OkCjoBRKo6rcVeFnwBCm0KxjqGtL/IUcyRmT2LIyrlc8YnlvDGFdLIm1L6eXmgAAIABJREFUY6JL2VXb1XDHcvM0JS4zJBTNmhdykNc2ZOSMrfLQ+iLXEHV2drf2JXxF70mRRCqaxsepxrDeY/98st8SNkSoDuWoUfUQt+l57WaWOUrPMwjpwBsSxWDMNJNC5Vo9LxlD0zhmQkejTiUbKmSKARRy2oViHgDT5eaJksmmDlBt19oZ1dckJ4KM3YjG41DqxOx3mCgj4WRWiHqFLLE/JjVCSEJdwkfGmuT5uHcwUQs82ORb4cvv8EOgj5qso+x7RnlLzytSgNMGR4Fn0vOs0Fh5Snk5attSMpKfKtu1doRLL+Jv5LDtoOJXwzoJFkNcCH6IMhlR8t6f+np67JEbzHhcRZL8lp4Q0pQlqvo5OCOxBmUkmOcS277WM3kLIZc9SEJdwkcrK8t6j93jo59yC3yJqnzi2Wu2D7r7Ss+7bPhZIz0P2rJEVXfaZCQRShYyXHr5JP5InhawkpRyHOpfdalcpmwJYW6eSAua/PmGI+4T+fqSE0H6d7QtS1Tt3KCMkxXKSCC3ZYK41Ct6Ra4FOJizc9RXZBzLeo+949i644s4Hcp3S8L9GdFXet5EoYsmID0P2rJEVU8gzigUJVEpfoSPR/yVPNXIJDeWUpoxWNMTlLl5GmvHdBzH0bcplokSzJIIWrLS05glqvr9kT4ylJEgNqWCj2SJ7RAHc5t2rUpwkrEmeT5WqkQ51ks8Ea1DnZ399jub/TbcV3qeDwdmIqTnrZ7GLFG1k84yCkXVHdgbMdKL2MDzS3qhRn+zPqZubGmjQEnAZ0aZaDb5YyqoIjkRJH9GG7NEVT8Ip48UZSSEbbENn6SeXQOIszNIQl3CScaaab3HvpH4/psnQYdy0R1okn16nqdqpm17eRytZMvesobRmDwKWldqW22ST/uaV+dpDpzlUp1wUsJKokTFLEcRLCtUag1gEmlipsB2q0lOk710Jb+eerU1DoeSZ7PKUbTn5IGhRC3zUDCA632uMrSmKJJQl0h/hRRFMteGqyVnYN7BpgH+TdyjGxfCmGOfnufJuD/hxG8ERyu51uYLxkg8HgUtUdVL2SUXitLoPlGvdbF3+B/9jxe8scIwrKQozc0TJZPNmPo16WLlmdwRKH48+SuqiUmVPCtXvj/T9yN1x9UDtyUdFN46GNlxKc0rIAl1CR8Za8b1HnvGs2/HCak6lKgBVBofO3E/e9RN48+Zo91+02mOrdKcJaq6Vp5cKEqT2Bw1JPGX8lhwlMQ0Ui9WOnZhMGlunsjaMRfI8WR9DmfSJC3JZkk1HWmOK0Xzh2qfhFOP9SgjC9yXzeRxniWmdMhJpQ9fjaM84sOlIHk+Wj8Hp2FpkG+CdB3Kd+ajw/Q8JwbMZEjPWzfNWaKqSwHJhaIkn6XI0Yllk6Ny6oofDO8kWAyzOJi6OLskSDF3KG2yJO5kbp7Gf5x6Fm3PElX9hJV6jqR+ziyXpXPIfDUwOuVamaw5/fKpAEmoS/ionWRd77FjKvfxbp0veVVcTUuyzrM/6PhJKms9PZb0vFWjsUSVbbVfe8ypMn7lpn47IqWXT+Jv5eeDn1b8noESZdUuRZyb56GsUYtnnWn9QpLNkqhENWiJqn6DpgYZG276WJ/iOpTzLLFHrTKpNEUJp9Uowosxg3W9x36xbaTsnaQ65Yc4LsL1URLXS1JZ++oJ6XlrRiM7fy66wrVdm6neE4lCEZs7KPYPHwxPUjZL7RP6yy/FxIaIc/NEB6jZITR4pp9pYCKxHSWG4Ru0RFXvCZW6t6N+ziS3NWpqe07ifZ2v0hQl3EPrZtUqumsxh3W9x35xXFPbnGwdymyjHcR+N+7l66PtVlED0vNWjEanKGuJqu6JTfXZ1B3VG7HSyyexxfXDUCYJGCWXl8/BxDUs19wkMtCCqf9SMYaSzKXHSA6kaR5tjepYusv8c+XxJqY6tVneTEDROuUfOHZO7o4HSlOUzptCEuoSTjLWJM9H+wfheMStqVuigA7lO/nRXXqetFlFFRzFnUvvVGEBUe5WWUtUffNR4rAqj2pH9Bte7CD+kPEkKmdGQcR0NKXpj5Hn5mmsHTMWorMWG4XP1RaSyGpp11pzmG+tQFBioSjq54xyXauQhd8Wm+83vPKOkJmiSEJdYuHjpsK83mOvOM4es6WMDiWqd5KGt/S8HrJjHX3IWy+61RptWqKqDztN3tBESOLHJi5rtP8ISb7T6pS1V9TFt2wmWttx8sqCqf/K7ylzlNmzh2IAaS2M2rREVS9ulVgoqjkjn4DNtp5C4nbOeyWzS1MUSahLOMlYk8y1fUtGNGata5zz8k+pBlWe63DtN+SSffIiPtp05uHITN56I8LGaNQSVV3zSUuE0mQ1x7/kxR7iL+8jlChgSVcqmx+KqR1hUA9LEshfSsj28ZkPZbZ11Z1iBGkJIW1aoqoH0RILRdUdVItUKQ/1juS5SmBzEFdV7rFV4dy2Xs0W+Kg24qDeY5/od4EtUE6HEjU9SmSfnufi+9NFOhnpeWulUUtU9RdUWqEozWomDEzscX0XTRQy55eFqVdCHg3T5+aJrB1Lpn5NT7dSzAamJCeCJEdEo5ao+rV4k3w8XpURKzbPdRPGnNYrOhSipK8xVXUiklCX8JGxJnk+Vtj33MIZ75+v5XQo3+l5L/tBevBA9+HhIT1vnbRqiarfsyJpUJIQSYokIdZNXt6+RYrfSi0un4v6C2mRhCh54S8eUiWNfwoxLwNJslmSEkI0Z8oKuSq1lzTJykMl50Meqpcy9pkltjneyipNUSIBhCTUJXycZiTPh5Pi7Eo8p45Z8bXwYc+iImsov94H6cEcKmyZWhHS89aJxl1a3hJVvwRRUqEoSTZakvQithHvrvh33U/pEWc8GuTmicL4i8No6Fx/OV8rQ3IiSDn3a0zRs5mLidS+OZIcZs1V2a/H/aNgh+xSibo/USE6NEUJZ9QomuuwhN8ISNuYdFB2zb/FA6aeS3Htzx4OTNCdCMGk560S0VNew85ROxzxI2AMAyRfpiRNQu0jfg2MSMQaC4nmldquvCMscvM0ElDA+76d0PuCF0HiPErxQ2hWuMpZpfKYk7YjVHLecfms8YR4zBK7H8iuynCvpHptW3nTFjg5zEiej/UpUeJgpH++1ehjLd1nx+EpPa+68ViEo/S8HkrAN4KmB2mV/Knafpuko3/lMe1Ik140Jaz2/Cv7zV/Lc6+D1Jpt0iBQYu0IiOXUbtVfjCU/771iEAnGI80C17BE1V/TFEsP9XNekZ1NJc9VHEMhSircSCQQklCXcGJUkDwfPkpiKXFcwsiCL/9VWXvxySUKP+l5dTZXBjhKz5P1oF09IktUDaG8vuqTUHZPs56Jyyl2Ev+f6htS5+4KQWgzszF+SawdAdnYV47iJHMs5OaJslkSLnTDlqjqO5eUWKNDZcQCmSPE39RHhCjtJlsRIicJdQknZxnJXFdX4Ndz3piel1p7VEmNj0T8pOd1o5o4Ss/bOFiOddCwJap+TaYEr43GrZtojxFXV/ymKpuVthol0AVrTHLzRKXCQ/SJRrqFL0WFrxSDSAjDt2yJqj74lC1e5SE1g8gmIXmuongYvdeVirpCBSQJdQkfGWua58PBRLWIa6/65kfRhnlHOK7G9ZGeZx186seRSHre6mjaElVdB0goFKVp85C6YBJd6IP/RBneqcuRjy4mZpKbJ0oyCnnbt1GQZNHdJclmSVCiWrZEVY9GJhzp/SkjRoiSk9xliU2pl0rp5rH+uksiFStsyVYayfOxOgOBuvSqZ35W6I6+x7Pit09INPaHdlRdm/S81aFJc67VZf9X5XEn+FAkJpkvqQsmrq/48klSNqvW7RWCxlOYWD2/AJK3fVAwR3LmyWQxN0/jPYoXfDSbqGqFDGrH0OILRVE/5x1Nxo63OnKTG1ilKUpQOEQSqUCJykbyfKzuOmnizi3wb90KGbVPejn8fB+kcbBUEHdQQXre2hApE7XeUp9qDzzebiqR9tKlF3GBxX+qX6H/HX4KDBB9Ir/UMz7PI3nbB42khbP9sqQmsURE70lEx+NqiSq1z8PxFXeaqbBfHU1Q0VmW2MyklSOtnxnWyTS6R3LXrc4/4DhpTEqlQuUHeDaf7ffmtul5KX1VvEJ63srQZGvV86zU/hLEF4qSrOjXgIGMI66w+CKpTGVTy3uHqFCUVU12jfwTNhb7LrlLBFRelzi7ogsGiE7H1Swatcf/4G5EDSHZIftyTM69CLoyRWmSUDuK9lshyXdZm2Lo2akj5OWf+nFSVe5BCj7S8+L3KI5xlJ7X1bp6pXFLVP33U3xOVOUB7ciQXsT9UCVBo9/py5GNJoHdKjdPY5MNNPW7t5ks5+aJslliE6JEh+N6IfPagmm8RdvRVsqaAH02H8lzFcq8hU4pUtZee02kop9SvGZIng9Fs0ZPiMuuOuVrzQJR74ibLUXhIz2vq4fPUXpevfgp7GndElU9Tzu6IJMkGy2lp99+gB3WWLQyDJ2pHiGz3DzNqSkw6qA0EyQRcmCSzMHlVa5pjqluzYguduRKGbFFUK3IlZ1/6UwgfY9VNqRpTgyaUmNdI7nnVqYYihMMfFK5QNQ7moNVIh7S8zqrZ+Toe742fd0AkSWqYg7x99pjj5X7NUua8/LvsMiiIiYzhcT0laE8ZvKseNWHmvolg0knyH+gGEhsE5XmLVH1t4DR+UHeVVMliqQdR9Nd3Lkqkzgql+7RaNh157AKJNepp0o1AXjOGBPxUr1A1DviCrdReEjPkziPdZCetyY0lqjkRm8h1B587ItWkzmetWT9VVnMWo5MJBP8bjY9V6Z+494kC4Tk5mmyWWJbGDVviaq/cYnejVQeT1MI2kv7aWewCXibKSve1VUHJAeGjtqTW3GnuE4rUwx7TC+IRFAg6h3P6Xn7rB/DHWpnvlHS81aE6NmuqprXFtNia4NryjBlLVl3ZRarSp0LVDflvWI3P8mZKdjU76ss8QlBs5CcmCN9EKLtU1V3Ru0aYrHed83J7/4mD9XzVN/f7kaJ2oScCJQV7+p21pdEKupOYRVIno/7da2puOSqP/5VJiO4ToXcL4TZDrW7Z4/0vPWgMcfU1Qlqfw1iRy8x7GYW3uqtzmLFOmSLSLIxDaU2yZs+OGzvx/kwJMwdLbEfRWZDiYzQVc0Z1ZWfyJCj5k7NdeSrnqf6phYvrQqDhCitKapq8R7JRCpnGK4ByfOxMsWwv+SCKL6Ia0Z8c7wW+55JZl11umsvSnreaujBElXf4BMp+0tUnp8BA5lBVB5MhlljOVXVLTupzZupX3mCi+M+zMIrKXX1FHWNe7BE1ZdMI3d6GmUkuwCT6nmqXsrYSQm5QCGqH1OUZAaKOmOdI3kfdVaqZgHP6WIChIl5OzwXuP32PsjqrVOm6C6DzFN63srq36npwRJVv6VCpJAmWdR/Mhets0qLucuRg8ShbSe1eTP1m4WcFgk8gkqyWeLO/T1YouovbGRcTKNExUmOI6gqrFZ3S/hoVXgZ7JzrxBSliVRk3+YgeT7WpRj2lloQhTQxb4emEEYi1ul5HdpGHaXndWc4c0UXlqj60k9koajKo9nxO2Agc3TWfdaus5xoO2IntUlOqhHHVGkD9BhCN+GSE2hUfKx9S9TVzfn2uvrCxo1Jo4xkawyy56l2PVXD9tkfBPoiz8SSesUSIpr0zuqOuv6RPB+ruk6uhZHKqBPzdnjOhrROz+tQrHeUnreyAnhiurBE1ff3xE1A83n6v9xF66vWYvZyZCBRouykNnemfidZOKcEf6oko4m6xKIPfg0p4u5mu71VaRBxxyzNqPKXULXdqx2zFU1jlgghSiud1au4qvHU0bsoG8l1WpUS1VliQQzyxLwdPxwviXF6Xo/dRUnPWwciMaK2Jap+9nCUDVVTginbGdtX/9nc1chBMkE7qc2dqd+wTe4coTqLZPhRqVCiotVl07Oubh63t+KaYXGpJ5IhxTb0G0GTXlV9L+fhtRAlREmbL9Q7p2iSUKsNfzVozsdrWtHqZUHcYpCYt8N1fVvb9LwuK7SRnrcGRFpETUvUp//775+v/1a3dkWlwmmq6uWvnefqf9HkL0cymv2I3fz8lTUya5M7R7BKITl/Rqk+ogI7pcLlFzfba5uaQFGrqjn5lZD3VItZd6/soKlmnBClrWxVzRQlmcTKWrLVQPJ8FBDG26GvtIJwXqp7C6bxHD/f13I1Sc/r0rNDet4aEL1Iq1S4+StB/ZTVC4xqVCdZ1m8BA1miow60dp3lVGEau/lJXvNRKoWDM+eA8O+UJJslxr3TjiXKToN6I2awmmUtkfKm2jhvqqZY2XcyiL4WyhdZtcVHiWoDyfOxquvU0QY6hq82iXk7PCdEfnguDKw8fT55pOetAJEl6qXwe+v7r3++qltWvMQMUDK4EtLLL8VANURJhYWRlP23k9o8mvrFSVkhhNdAkmSzxFiJm7BE3Zw/39pbtWPmoFFGivSqUi1s1cZamiyxGRJEQaWsWmvxmx78ipA8H5HtRZtG1O/JGV8sS7I6P7R8fx+lgZWnXiFAUxyl53WZ/uiB5ixR33/98/ObZtCnfA8Y3jsSJapIU/9+etDadZYTPUd2UptHU7+9/eGUiJOSJLcwQjLxbom6unm8dtEWLfJArFFGijTMUYk4VYuqWufsprjTOjBFaSIVFOnIRnI6XpNiaHQWscVyp33mvTbX/lSmt/LU9Rvb4Sg9r8eS8B5oyRL1+f/MNKgdMYWiJAMq8kHopwltVCGvwkj8wnYbAMlHNVKmkDWeDyUmh1zig4hoU+fZEnWzfXDlf4u5TzV7qCLFt2TFvmsGbk3TNlPTJNs3RWnEtFW1ZKuD5Fbr1Jkxhuvi2ZUwq1T+wU/Hy2OYnle7Ma0VntLzavR+BlU/zNwj9Pf/fvxrX6UuwpKiEe3LWGS76UJr6RiWOMvsakS6NPU/KwYVQcw3SjKg8OGIPvXRlqg7P06oAyImoBEZyoRCVX6immFFW3U68QguNUVVKXSheX9wCMhG8nysSDHsZvMczItlwPcd1zmRdul53T54pOd1zmfNo5ljifq/31+9GGAjCkVpQiUx6YLTfPbciSIGy1CNZA3tpDaXpn4PHdsPiBm+JJsl4sQv8hzF7JQunp6NDS6TRCTDabZQEcs6gyzyWHHDrJrCKMleEOWRpUrcXJPZWWPkK0NyndZT1Vd0gHLET3tDFOl5E/SbOUZ6XueIFP1ES9T3/9yIUDvClR9NSb1CN2cvfWgLLUcSkgnabQJ8mvqti8IcEdXfVeKCCHcgiUpuBQ/o7vHaYT36PRFhMcl4SnXMUa15vQ4/pg0105OSpJp6DZ1AclLgDJDNneI6rUgx7GXrHMrLLweLfua8PNeHY0Fs5em3jh7peX3j1xL1+dc/Ditph/tSJV+oqGZ+M4iKhdXmW6HlSEHjgbObn+SMGm2VMD13nhL1gZJ8WcMFE5EEEXRUv9k+eCsAdkq46Ki5Q0v1qnqUjLamacJyx5pTHad1U5QkUtFni3IpkvdRVEymbXpJJwjkZ+EW6On89rxMe7lObOXp2ItIel7X+LREff/984tmYLGEF4qSrGyxpv59dKItthwJSJQoQ6lN8oqP/5A6qiEUl1ooyWYJHpLIErXsabjZek3IOya4LpNGiSpVhVrTAa1mZVVV/78hm6xQqdQUVSE5UnJQ6LUerxDJ87EexbCPjXMobgxR3tMiv76PUhsqLRWQ8oij9LzIFt+wjOppDhfSP/2fRyvUB8ETkczia8BAwnCq/MXxo8RKJCLxwNlJbV5N/SIJJYDIOLDkwxpczsiFJaoVFepPzMpqlJFivapk+71a0VuzJgZ5QpR2p11BKZCMu07bv1UheR+txzTQxb45FD+GqDPnS/+RrCKtMdBzy0pP6XkRZUIhCFErzEDB5NOvH56Tf18JLhktce2Wa+rfRS/acssRj6QHpd0E3Zr6vZh2Yw+iEtEl1PsgSsqasUTdPbrPyDsi+KylUUaKmVw0inNFUcFKzMwVoho3RWnuG04A2Uiej9Uohl1smwPxZIg603V9T2O/VsrISN9eHUf7Q7y5hVG9RwPqLLegQv0vRguQjKZgU3/XTrRA7DrLidbPTomSaBUpoXq7bJxjYmtFSr6rgWO5En3kJ0J2V+euq5OPEiyaapSR4GTBRVTprptyQz7C6E7KFqIaN0VpslC67VGuQ/J8r+Y6iUL5HvBliPpbw8Xzau3NF7LQTvdWRNLz+kWkPixaohpRof4XkR+leU0WlF5cv9cDsVSiJHew3QR9lTU6QGolmCb6aCcZlaeLO2GJunl2VOorglAhRTO78PtuCVm6a6U2P6rhH3NfINlQpQe/UjqPQ/MKqaRergnJdVqLEuW6VlFRvBmizpwXizdJz+u7pxvped3iwhL13XddqAGBN4NmbUuGKUTF62tScDWikUzwu9n0/Jr6XYRKNrEnUUmoLFAeM7NEXZy3lZJ3SOheRDKYgr2qZHpInY78NsL0fRGJRGnvLL36mrEXHvQK0bQkWMu6uk4QK4k7Q9SZ9xPLPl1Fl57Xe8dK0vN6xdwS9fm/n801QQ20pUgKWBeVXj4334/2JWCWtdBEx+zm59fUr+1OMkG0wUMy6sBWKjaWqLttm2aoNwKd8BplpGSylWznXKW8qsnboIwQ1bQpShKpWE9LtmpIno+1JK98an7LHIZHQ9TfVBrPa7bvsq5Lz6vkMnYD6XmdYmyJ+r92UvIOCSzV02ArNY14VhG7znKih8lQapO839PcxQ4EjfgjkqNsRwtL1FN7laFOCDSVaJSRkhWCZa6iKiFcUe3944mUShpr2BQleQmjRGUjSb5dy3X6z2qnq+XfgDq/Jrhetb2LTLbT6T132VN6Xs9dCuUYWqJaNEO9ESh3SBa3rPTSfITnZ8Aka/FbMUE7qc2zqV9W2WaS6Nw80aEzLEimtkRdNZyTd0DYNdfcnEWjobLuczWqyRg0MLgudgKQmqLK9jdrcMirRPJ8BHpxm+eLYtNnzm+3l8l1vfh9ep7qk9R/xpijbeNaXnEKVIL+QFD//k+TZqh3wi6NZIqFW6m1HuKx6ywnMpQtlv6vhmtTv/kHKkEIkBz3g476Kg/M7hh5df4g+r3ahEXFNNvQopqOLPRYwzqhv7tKHgCUOlrR5oWaSEXv6ScCJBkuK1EMXWeHleKbXW3SRVwfWPZxcdUGq/8q2o7S82ieUQ6RoH9yev71o/VAQljOtGQopaMVTSuEB1EIAyThGTupzbWp38AHkT1uSTZLkG1H9Hn/e/C9eFRlUm6uq0t9YQqERhkp0LntAFk6QdlhvyIzdL1TNBLdrClKk4S6lpZsFZE8HytJXWmr1VIaPxys8ySfXC/dPj1Ps+mp0wHEFaTn9YhKTz6o8P3p19cOSvwFvZs178jSTf1VlcMqUXo5YpDsSuwKR0rEntRDnU2/rD0JuXmibBZPi7fVyVB/Ls+v6hcMCtv5aZSRhBtwBpmyWyGfQDX0SlNo1RSlSULtu0u5BInUuQ7FUNOkxpQXyy11AK61wH1gXFO7MLCFStOQntchImvSvrTNp/9cZ/WG8y3kXtBoOsUrCbYd5bEsrCiZoN2+wLep39a1m5IzItF/grQS1drpKpRfvx6E6rs0ggRIyd6pcDhUk2r1p4opSjb0HcXzxZSF/AuqaBoFrdx4V4vkOlXwOjrkq2TPZ8nPT84vgaQ6ayr7o68m2LeGh470vP7QWqKEMlR9hS3k9axZ3uJ3ZdthHsuHVDJBu42Bb1O/Sev2d5JyCiUjDhmZsZ+sOJfb9x1C9Z8Kul0lky5dcEm24SteUEb8Jihv0Ze2Xyh3eJHcMSvIP6mNpqV832v4RvMNfpZ48Vuq/B3f55V9ZFxhBq/SidYbpOf1h9ASJZShXr5+rv9yCsmRkhSw/lL+rmw5zhNkVquExgNnNz/npn5Z3teQpNw8zYEzxK/tKcqUz+1B1U4XhaI0ykhpY75MzylaNftMvlWtsRlt0xQliVTUqHC/MiRP9ioOxb79OAXwXKp8j+vKtnslT5Getw5hxFF63jrectWRKCWvlqhfuqS8b//9NY1UD1WEFIqSKDoVmvq3HOipsBzBSNqoGE5Q8m5PP5ZKnQTHpOXnSLJZAhwnpm6ywmyuj0TB59q/F2LR0KxvcWuRTA4pnd0mbV5QZfPfpilKckLov015dSTPxzoUw9Y7Ly3ww3tm3is/PC/hPjQuMJ4Xj+n4xFPgdB05yJVRCQ4vwhLlX9+q6FRXvkK8N5KCSzX6WqgkygpYtvmQLNvPgIHUwb2p3yxWkrjrlrRUC2jrK281Vo2/VcqPqG+PCdiKaJSR4hWCZXJI6YSr6vLjB5tKXbOVpqhimoFktMUF1/UheR+toXayJvZoxotdc5wovrteRWF63kpUek/pecVrRK6RhvWGcb78s5fw688tIFogEeBqNPX/1G6op8ZyhCLxwNlN0L2pX+qFOCAtN0+kAC0LFN1Yom6Hc60fiAzYimiUkeI9xa5kym5hX5FOWd3UauQmNUUV0jA1kYpK0t+akDwfq1AM227us8A3y+Y/Ubg+ruzT8+q/09fRrpL0vM7ordjev4cKfv2SPQHxgupjCBxHPKpS9uWx7Dgr2ZfYVZB0b+q3KrydepCWfFCXh9GHJeokLU+2xgGNfDULnHIHziNzwRfezskMRdWEqCZNURpFey2nrYpICiqu4Tr5NuNkYpldEInrwrb77Jnq3WhX08yB9Lyu6MoS9fL1RMCv/ovLL2rNd6qO9OK6COAclhUWJaEZO6nNS1mjaWy+UAFaxDiKwW0WR9GFJeqjW94J1TMglxdYoypU2IbqlN2yx1bVqCsKUdqnsszyayyp9M3ORnKd1qBEtdzaZ4FWMvNe8Z0kuT+Z1t6LrCZxmfS8nujJEvXl9yBXrrqUstyzruVWapqxV8DyCZVM0M4y7d/UbyKqJJeJlIwNgKWHAAAgAElEQVR22e/QgSXqftqVVv94vCxHVB/Cn0oVgmW3RtHBa7LE/vy5ryhEaR/LMiqmRokqMtRVU92bsZbr9Em8txXSTmbeK67PsnvPQu30vPXYc0jP6wjXDQei+HdMvq8/vcV3tcR09lLpjmw0A77WcoSg8cDZza8BU79kiCckFy6RRHYWDVue4ktpPMzdM/XlvsWgmMZaVKNaqa5aUclNtEiPvq/rzpGq6kUKdUm0s3W0ZKuK5M4KsIo2T3eFdvd8bezS6FqzJ7D3LFSWgJO9+e3hKT2vajxqBXz2/OzG8HU8H6t+paP/lm4SidZXq6l/o/dHreUIQeIjW7biVaOB97q00O+O9O+/j2xHZUGaGoyXh/qg+gAWbwCNplDFmi+LPZbU0R4lI64sRDVoipKEAVCispF8JNdwndrt6zPPy+LRxhu+69ruT6h10/MK9/3wjKfw6SqahFakjxTnl3+mWtjVN6gsxg0ktqJqTf3b9MxZBnMkITI7qa0JU7/ctpucmydqqba0PTHQ7gqymSoP9UH18/Fi9F+jjFTpKabrRlnQFCUZdHUhSmuKKlHtQjLQ1dRCqYfk+ViBQaPdtj7zfLOstZqG7zxJTXreGlyIexyl562mTnwdurBEfZnT7qunDi+6UyRVv6s19W+zjli15QhAokTZdTSRnIxyX+u6o/MbGQKAxPSwlO3YsiXq8jFADqiv9y3Z+DT3ZJUKwbqa5QUVBsVz9SAonK00RWUI6u9o7hUKxGYjSW1ZgWLYaAGLJX5OBfc9Q3pelfR8t5Ce1wsdWKL+ne8iVv87sVQoqvoA/heSI5hMk1nwlr5iyc7ETmprwtSvOzrvyAn9SkSgBa9Jw5aoyzA3ev0ZLh2Oq7fveyX8votBM/YyUsg7CgWnzmofIzVF5SsHmuGuoSVbZSQKZ/+pQs029Znnt4Oljee35yX9SM+rKaCsShAhPa8T2rdETZSH+qC+kLKgemjWuGJT/xbT4CsuxyISD5zdBCXWjuzAjjZYknV+loxwYQzNWqJuQ4869bXJJTVScvKr5M3XqSHlzC6CwWqq4MhkwCJKoEbUJgCdjSSzpX/FsI/6Jie8WG6gM/B9oN0nMlQUUFbWw430vD5wbWZc5uXHcpPR+iGLhZpEmphJRStti3nwls5iyQTtdgqSc1F2aF5qJMgqziOxby3sTzQljMpzG3HQqb9nWRiAZkXCFyQKmVRZbD+nqGenUaKkBs/sN68mCbXMyq4ayXXqvqN8Ny2fDvm2fK5yiiQMnMpHR+96m5GVpS2TntcFbRtLp8uUH1K/iN1CoSiNkFPzdmwwEb7mciygqZpoNz+JtSO/7rKkg9MbWWVZJZrZ/JH5ylFkKYIYHUqhoC4Mp/rv/6lYIVinVZbK51E8V6IqONLtdq52IIlUEH/O5k5xnfpXDJssXrHA1xZLRO3wfTl+vQ+z3htdULjQE57S81ZVoassLdfa+/Jf4Ouyvko+nyAoeTd+q3mbtCdYVl0OD6v1EjCQSjRi6hdWPsrLaJGc8edz2OX13UsQp0MpJjmvS2hcerW0EZ1YWcpnpNijigLQUlNU7n5aEqnQmNG6RvI+6j9XqMmGPvO0WSJqR/1e6Tns02eqfZxW0KvyGEdB1FV1LSxKw5ao2XZ5x9TP455/c0syIOs29W8uibPucswj8cAZTlDyUi8Q2dGVPsozcElkoFmBokVL1HW0Fbr+yWv+eKyJ3lWrEKzz5RQqLaN4rlRVcFoyRUleJoSfs5F8d7pXDFssXTHPy6+AafvFdVXb+ul5+ckEjeEpPW91i1+KZi1R/8a8LOt/K37O/n4HrdSay4W36ywn8sAt1CariMbaUWD8MqNPZhhK4iGYPTK3Z4m6Tjkt1x/W7M9rVrmaNqJJ5vlTLqyr2KKqKkNITVGZ6y8Zoygtsmck76Pu+0m5rkuUwrelFlDO+eF6dWun560va5n0vPZp1RL1b1y15vp+zflUKYl9t7L04vv1PsRSiZIYyOwm6KCsURiKisV/CnSbMleimrNE3aa5NupXDpuVgZ6r//yfqmUidIXXylQ5VjxXRQYagjTym6VmaiIVRJ+zkXx3elcM2660O8K/7ZaI2vHL3ZIeUjs9r3vldwjpec3TppwfqUNJpKDZMEL1X/9f/VZqnxrLhrfsQSvxwIUnp5amHVO/6PSWeyiSDHJuAI1ZomLrQ+2pfz/MnrskJ7+K2oiu8FqZ0KIgO1e387xQ7rez3r4aJUqVFtkxEmW59+tUv/SHFjuvfTFcH1Vqp+d136pyCOl5rdNkhnO8DqWQBuYKRWmiJrUttY11CLF0GEu+hHZSm8TaUSSUqsknyj02S6xbc0dmaeZPNsk6lEJKmT3CS+qW1azLohNDihi7BOMUVsGRysU5+oFmoCvrEFUDyXXqXIlqrmzFAnYBznL4Fgf3K1xlH91/g4AhpOe1juvSbuOk6FAKFWWuUJRGiap+L7Z1t1RfjhkkE7TzUEusHWV6UimGepl7JjLPdvQUU1oiQ4eSKJNzN0P9X6/cOkeTXvinkBCt0KGFjYqkKbQ5CpvmLim4sitFk7ze+dq2VrVinhfLVIJi+HZY7I+KVb5P1fqVeMZTcQkiJPG0Z4lK06EUWtBcoSiJm+gLt8sh84W76tKJ8jhJQ6Z+RT5R9kglIZ2ZI3NDlqjLzMWuv2WZcWdr1rlmXRbdnZJbeu1MpPAqq+BITVEZJxpJpKL7lmz1kURAOi+c0lrRinm+NF6r/I1Pntf4IIZcwSNd4rvZHp5CqauUAjNpzRKVqkNJXk0z73BJ2ETQ1L+lRouC5ZhEUjHxm938JC/0Qj2p6idE5VeIlJwwZ47MzViiLrO/8vUPyTO3g6Z+Thkz4QQPkin8KbOhe2xjmMFITVEZLZgkkQqUqGwkZd86v05NFjiZ4lvrtcrfkbQMSqZmet46k8M8pecJXdK90NhLNF2HkohuM4WiJAqOoNBgS11CLOsuSjxwdlKbxhhRaLDVVZ7s3DyREjR9ZG7FErUpoLHUF/1m6jQolJHKdVl0W74CzagVCq+0Ck4jpijJ8HpvySZAcjt1fjBrsMDJJF97EaJWnJ630j4OpOc1zKemXqJZOpSiht2MMiDpUKho6t9QmxDFckwh8cDZTVBi7ShwEH2lei2MAp9+STbL9DjbsERttiW+8IJ7d3qYGiGhbu8cSdH1V/LdRornStqpSGuKSn3eNMp2VevfOpC8+PtWDFsKzi7RQdO8d5yXka+Xnldq29wapOc1TEu90L78ylzn3/XHOP3j9X/7f//7X+4KhdBQnxDLFiASD9xcs8a6tGXqr/yNys/NEwV0Jo/MmpyxXK7LHPkFRXqnC0VpUtuKrNMkOltO/htAkSVWbaFHkZqiUjUEzQtlpcH/kkgiIH2fy3yngUXRQ9O8PZLgf/5SF0/PW6tTlPS8dmmo1N6X/Jfk9/qjnDRtafQbSdOLdtRLyx4gErOh3QQlx6Fi+e51G2gVyM0TZbNM/rrkPJLJbTHrSX11YlqblKx05S7Omn5br2RrDYIxqmPQOktaevFbSaSiVB3BNSOJgHStGDYUml3gpSshSuE8yGCfP1N8cyq16HqC9LxmaUZUeCmSh1R/nJPD1Dh4JTne7ciXlinvkgnadTmRWDvKBXeqnv9L7LMVzeanBYoGLFG5DfMOqW/jnpaCqv/0H0GFYJ0PPje2qBDN1PWYNSrPG4nvYI1xq/TKrhDJder6bNxQuYp5XvpomrdH4DzI4fP7OAsHxtZrx/GUnkfieAytaAov/5TRFOpnTE0WitLo8xXuEbO5FECzHKNoAmV285NYO2aa4UdS8/BWIjdPowVNHpndW6I2RfM7BEf5qZCYxk5U258vVC4zD7GKkcpbFUlNUWkXQBKpWGtBlIJIIiBdK4YN5ZXM05sQ5b2S/L60RuEmJustUeQpPa+yLb0zGrFEff1caNkF8zX8aV0rtUbK3Nt1lhN54L7Yza81U3+9w1uR3DyNh2BKoHBviSpSqPwDwfFrSkTVLHX1ShGSHv2vZMo8Cv+QvC6H1BSVdgEk2rbajNYhkvdR16eyZuKyC3zrpmneHknXoPQFfx9m2e4OG/t1t0JYNWCZ1eZIJtCGmv9vOan+V/3RTlXukVQ1/Dnx46URrGMJLJUoyf7EcIKSl3nB8dZTesrIZcXLVo4xdWR2bokqVyDqnfo66tT5XRO2q16XRaiF5ImQCoW3nHUzFKUpKm1LLRmZ3IzWH5IISNeKYVPdx6fpUIjy3tSwTnreml+KmnYwYZCeF04LCc5fShZl/lR/vFOFoiSt1GRN/SWzyUa2HCNIPHA/zKansXYUHHC1cEmR3DyRGDQhUHgyNQ8pWSBKt9pTiUOa+jnVKzlf6YqD5jmOFKUj9PWY/ZuiJCNba5OogkjeR4W+kS5pJCq7xM8OhaizM99WizrpeWvu4iD9Li5Ael4wDfR8KN3MoX78YsqmUv2H/6ds6u882PCGbDlG6Et5HCARL4qGUisdScvk5onSnSY2KVKHRSSbKqdNwflrwkmiKapZY82OkXj4Xknt3rZDofAatMmRPrIJZxtNpEJvRusOSQSkZ8WwjaDsEl8drGQFfHstqqTnrVoAIT2vSfxbogoVKv9AMOWJIdf/YWlT/yb6heiWY4hkg/LLbHqSUGrRJiCVagOV8kPUGd0J4z/tKZB0ykOdz7lASJ2oGyo5+QkqOZetbTFLVgVWhXer3KoGI63slhAR6CQJtX8kEZCOr1MD4fwAOhWivBvWaqTnrTspzFOdCRy7gbh/h/5bqlD5B4LqPePqgMZEVH7BpmjiA2zZC0QyQTupzbSsURpVPlKl8g4kB/uJWpZ+LVE1EvNeEcTOJnKaJIutqMui2/Nl6WqC8ZlEoaVb7vjHUJOEamBG6w3JdepYiWoiJLtEr0KUohxLDvvqGgXT89b9TizchjALOrsG4vwdWrRA1Dvf6497vHaPRpyvsGJTtNB2Ubgcp2g+gXbzkxyEyoZ3alh/7kt99yUeh3GBwq0lqk5i3o76gtDEPqT67/4R1WUR3jYZpihFk3qTeszOTVGa5M0qK7sqNOks/a5oG02fFihcAsUTkkZRyex7X5cLRK68iYPQqr3Mmit2ReDb1fJSqQRO/ZF/G/1diXAz/tN1aOAT/EW4HKdoPHB285NYOwqHUiuMudi3RnKuH9+leLVEle+Yd4CgXNPo8BXKiMgXrrtvMqQehWBjU49ZaoqKLsgkGV3XLdk0NNd5xBktBGSX6FiIOvvP99LvszaKNX1be8KyJNs4kJ4bNRTEdaW9n7XyzASzHi0U9aP+74qb+gsSHTORLscJEg+c4QQlb/LCUkT5jJFyJ35JNsvocD35mQ+4rFuNWDDrUSeP5uQn2Y5qErAy56MYpE09CKkpKjrRoJsk1M6RREA6vk71WyBVp2chqpn0vFLP4eozwkjPaw3P3c+qJObtEChCo4WiJLqftqm/+4+wZfa7JFb202x6GhNs4UEXz0QoWCCmWExsjjFtRNiOP4bnyuUOBN6kUQeaZqMkUaKERvj01gUKJcooDC01RcUmSEoGRUnYbNrrPOIK55abELoWos7Ovrle/H3aRqm96brrlctM54GQnheAX0tUrcS8VwRelVE9SCLbaJv6e9YyX9EuxzGSImx2E5QE5IuHFEqnZBX80EiOlWNHZqGzJZz7+of7+pMYvX01y1199V4RZDi+k+yOVDxXRkqUZ1OURqVc/bErH8kz3K9i6DqxJIjOhSjvqRul0/Po4eCp2ATpecv4lREqdMw7QFAda7RaU/2f1bdS8/4ZHu9i2NHa2O0iJNaO4qb+wvGSkhvssiObYGSb4tISpTi5CCSKMaFSojhO9EgsjVAKSa7DqigboVntIRIf5Ttxqk9HSah902DnEUcIGiBVpnchynuT78LpeSuvV34m65URBul5y3hVEV5qywcCc9JIoSjN+1CsRHn/DouX4whJPXe7CUqsHeUjCkX33UWbt5cc2CQjv+vQEnUv8TQLJj52AOuqkrMw/Jga61WMrfCqBiPtE7SJugKaJFSSH7KRBCK6VQydtx9fpnshynsRkZf3YZZJz0Ob95WeV7fYaQ94tUT9GC33XRJBW88RMa3PVmrOP8TV76UZJBOs6h6cRRKOL2+NKVqfteQ5SOIhGJHO/FmiNqIA+lP9qYyVR6n/q8LIqLA6aOK7QNGk3q4eszA9MvIK9JSE2jWS61SzCaolzsthL7MCIUrTKyqd/WGxxJYaD46z9Dw8akv4rONWsVL5HkHe8EilbEm28svUnGvxWeL8SUa9HAdo7GJ285NYOyoEFAp+pYrqZAJdZPTI7M4Sdas6tQg0ipEkOYUyoqvLItQx4yw5exQKr50S5dcUJYlUcO7KRmMgaHyRJpG0panIGoQo75kb+8NiiSgphfPU8ZkFRHUS2sVnywdJAWaBO+nL8Fcl3yx9U3/Xn2L9cnwg8cCNFiTTIHmNV7Aal1NeiubmaRShoUAhPcqGINxKCUJnQ9ecpn6OzBMu3PTFNm/boWhSb1iPWbrpjkmW7ioJtWPa7DziBd+B2EVWIUR5v0of9oECYZ1ezYdRSKK6oZCeN4/H3Nlv33NmFI5gKsOsKUFO4KgXqzKfPL/lLZWoTpXHPZK3eIVxl/OklK1RIimzODwyewofySpEvSGwbQx1Nc0uSVYtQliTIe04q1B4DQPRWiU54pwjGQ+pD9lIIiC9KoY+4/nBrESI8l5DZJ+el78ZGysHsEI8VZzgGzWLx1eorCO9oFb78B0vKRBv0NTf88fYYDn2SJLT7SaosXbUGHkp7aWwEULiIRgIFM4sUVpziaDI0XBnqMmG1LVylty3O5Kii4osMcsqsVIpOWJXLRmPoRmtFxrtPOIDnyVOQlmLEHX2y/d12PsH8qNUGHBeIT2vGfxZolSGKI1IMDQn1f9No2+L484Uvw2W451elcc3rMoa5VNIfCmbmyeqsjhwHLmyRF2KO2EJ1NThNkSz4rpFVGS/vZH0OlAoZZYd3C6k8d9gU1RnSaj9IlGSO1UMvXZ9CmM1QpTo8JVMufQ86ubtID2vFfwZWZRnaoFEPigUpWmyYdHU3/Hn2GI53pGEy+wmKAml1vEal9l7lz59FhnUEqc/6soS9awz8ujWfHCbdFc/R6iEpHiPFMOrsKrhSFsOBL+RO0tC7Zd7xXXq9DDmPOtrnhUJUZrSKOnsL0VumAqP6A5NW5hAyJic5pM3H4vQEPW34ZtgRqeFojR6zSflMr4jcf8kIb2rTuh8gkZljUpQ5JBUemiSejsDh44jS9TG4LQiUIUGJYQk3jfl5kfyJtiRUnJBMCxb/72wfWGE9tNbEmq3SK5Tn4qh4hxRDcvKFXKc1/P6+b4euVtT6pW/IencGgpfqUm8NTz7IVZQBELcacRBk6qsXcY3/DZJNVmOHZpdit38JNaOtG5Zi2wLUHpMkmyWU6uMJoUmiFuLz7VARBm4k+r/pDg2qvTVxe+0Fbe4cT1mqSkqdK4afbLyyq4AjXugz3V03Td6AX1vI0s0GSnp7M+/eVEF3DfvCGsGLFPpGNMBzvqdvchzjARmzdM3fc+t1LyalAcpkkIkHrgXu/lJrB0rSr4QVM8eekqE1aYXsOk+pkghOvlJTa856d5HGH+MN0UplCjj7jguTVHdJaF2SrudR8xx3TZ6gXUJUZ7zNl4plJ5HRaJ3SM9rAl9a/k99SplgAU5VEIlaY6REef0kGy3HKxI/sOEEJa/wFZmNJcaGE6uMG0uUulT5Owo7z8nJXbPmUglXWB50E+2cUzxX1tU5pKaowE4NkkgFSlQ2EvNAn9fJecrXHGsTos5++70W/ztMz8vaHlCv/AM/QVbS8yZxJRy8WBTOUxhWTkr4dN1KzalN+YfRcsiWxG5DobF2mE1Pj+TLeRIz8/K1fjD7UgvOyycyRY/1cySqw45o0UeRJWbtvteaosJmKxkKBXqzabjziDWOm0Yv8K3L6zGH95JeezdGzreU1+EHkhyDUEjPG8eTbqAtVb5HMLPfx78o+Wz9nptzRdxVwN9hWZRR0q3DboISa0dg+L0LJKrQsVXGiyXKJjPvFUFi2YkfQKNEaVdRuOuLLg6ueK7Mk4ilpqigyLsmUmH45ugFSc+KLo/IjntGL/DNpLGRLZJW1uns/Rg5kRPqlX/gqis03t1RPFmirFwrgvfSz+NfrP+Dlk39fRqVf1kth8oDZzdByeFzTS9wxXqeWGV8WKKsMvNeUdzGx78oWXSxhKssyhAbXlQ0qbc/AQhdaWGXoMMk1D6RvI+6VAwlscYafFmhEHX2w/c12bvUMiR8yhEdovjwB4NGOIaf+tIvZidpwXvpuJq0pr+cXVN/lyEHM2Gue+VRE4V/NpueHIMWRsLyPjPYZeadiQ7Mx8dlyQZJLeFKjBU7YmthKMZUaVUjkLYKCinWpbHJWYrYnSBJ7OxRMfSe7zXJi90pwRC/Db53fH5fmvSgAvXKD3GVnod5dwQ/b9Bvn6MHXwqFh+foha+x8pqtp0+rst1yiJQou+CWJJS6orx3iYfgWKCQ+iimsP5EC6a4Vf+g/sHR5GLtiNtvK0z6HgrFSh/mgNurxyTULpFcpx4tAc5NNpOsU4hyX9VrX1glOT2PeuVHKPcki6ypzkgwbixRlvWkFXLcUdEmSe+G0359Sjy2STVcjt6VR4OyRl2jb2EktVFMsDG/woL7+GjVNd43ub4ntMLH+b0UCq+HJGJvpijJ94GzVzZ0HknEa7/oRSw6RHnATyrQKPnpedQrP8ZFpPUd0vMGeLFE2WXmvSL4jhwVipJUiTds6u/RrGy5HL86n6Dk9b0iJUriITjaqzj4UN/bf58VrdUOz+2d1s9RCiFRk1MMzEUSsTNTlESJohBsNpL3UY+Koc/KqMusVYjS7MgzyE7PQ+w4RrG1C4b0vAFOpGGjnnl7BOUGjwpFSSxDli4zhzGHnwGjroVEebSboEFZo76RVNo5/Bw6sERdm5aI0i3Dk/j3DDalV5JyMzuuYwamUHhdBKO1pqjFG0wyjKg7AcaQREB6VAydJ3tN8dXB0hnh3MS2T6FJfCSpV34C6XmucWJd+WrdvkGhFByKbRIlyq6pv0u7suVySHQ5uwlKQqnRHdsbRp7taG+JchEmUtQROvTM9Fo/RxmAjNHZHgTj8VEpVvpAL2lAmkgF+SjZ0HkkDe8Omwksg7PWOO91uE/PS9ySUK/8FNLzPOOjnM9v8xVS1PE5FAoEP2fZ1P9MZQOKwfIukzxndhOU9F1bU/KFxFNy0GrKvLOIfYmoHYKFP4yHSbxvBgE4haL3TowVRqHw+riTNXmf7yxsrDWD4fCVDZ1H0vBYFnWZb9YGAEu851PujQtJRRepmTdA2NF3mRX1AQ/CRYuzF8vu+u8I5nlQxueT4Ocsm/q/ztGbYdlyOSRrYTdBSSh1TX5jxXoeWGWU2VSj3HtpwK4wzRxkIXZbP0cysR0BBbP3KO5zB0mmZ9orsKgGSiIVa6ojWAtJq4H+FEOHVVEDeFmzECU6g6Wzr62SFCXEHzpA8xEKBKXwGA9S/rfPMSOuxTfBTD+G3nsrtVe8BR0s77POJygJN6zo46ouHKtJEpvm1snpXbMSBycxiQJoEX9TbvsiXgyK4dRc1gi0pqh5FUjzfnHzEmkXyXXqTzF03ohtnBfj2rzWOE/P23c+T/IXk/01xDrceoSX0KsPPFiifvoQ5n8IpvrhWZGklb/MTliAQt2LwHAlvnc+QUn8/dxufmokp8gPq4y1JcpRqWHFyh8oQ4JfM5JwhVUZwgvIKa6um2KkUlPUvO9OkxghW9luofNIEv5qooaw2rZ5b/x2fn1y0vOoVz4C6XlucWCJMu3vdoDCwPNRKEpSQ8mwqf8OF7mfe76EDLnllTCcoOTYuaLkC4mH4Fr7c9O4amkrmO+HVqHp52Ly4CjvqWCNWuHUclPOzpEpqtsk1M7Q3DLdLZt3TWMU035GHvCeUpmTnkfJvBFIz/OKA6XAjS6vcK18SEMSN699YwxX/ldLYU6yVTGcoOTdvSLDsaT12N4qY2uJ2vjyuikqpezTiDQnPxMjuLJmefCuTiGP+Uki9mOKkkQqUKKyOec6peCtImoIa26b94aznI1TMtLzkDnG0Dg+QyE97wPzJ9FFrfI3FAbb/Y9JzGj2QQ9XUQdL953EA2c3QY21w2x6eiRnyH3czNQStXH2RVaIgOKVt1lIpRc+NASsuLh+lCitKWruGkgGcHnbNQrBns4jKXjvwjbGqtvmveGuu/cJ6el51CsfRdGOJhjS8/aYv0C/eCqZpxCH9sKbJK/cgd9MUX0rFEthrnPlUXLkcVN/RYCkhdF7Po3SvTLg0ltoSGEL2OdFSk5+RgFSpQ4SarNQKLyOkoilO++Z20wTqegcxX1F55EUPPR9imTt1cpf0VRvTefr+0Cj9yTUKx9FYvkMJby6ZfdYe0p9yfIKgXyvFQh+y7Kp/x5PpRx/Ga6DxH1od72T+szGsqbkC8mn8D1HzLKQ4727flcKXW5/aO+6fo6wZnnoMV0xJEdKlFZjnjbtaM1ZnaKQ7CXvI1dlAQvgXdAYw3Iz7AfnWZX7llOxaWXUKx/HV3oetbzesLZE/evLH6oomvXt7bc03y67pv4fODLAWgpznU9QYu1YkeNYc4KU/tg4/oQoTa/f95ilxPtm1ZlQGYEMnKNiKLWXNQapyDxtipJEKnpHcb9ICgb21nlEUvS1LKuvVr7DU8rGGHu9MNLcisYxgbRy4hKOOkbbYiwIf3W2HJ8Uk34T3zSl4q1X9BU/YQfDRZDcW4YTlLzgV6RESTwE71YZQ0vUtUMhSpLS9G4fEfyU3YMjLYQflI8gEV3rL2w4WpV58kYz7s3ZBZJkDslCdZY6pNncFYVq5Tt+Ob9Oiel51CufwlVIhPS8HcaWKG9ClCaD6k3kljiFvla1qFcAACAASURBVC1NWIKfao6GiyBRHl8CBlIJaVmjFSD5YL5ZuA0tUT6DQopj89vMNW5xswipUuMMupcUCq+vJGKpzLyZEpZdhaIbRXFf0XkkAe91r4d8oVr5G46Kh4yRmJ5HvfIpTEuiDsC69pdPtmYVB9W0T1GYbN/am0k+XoZN/Q/xUs7RcjkkcpzhBCXv7RV1PVVmO9pZopy6kxVyxaXupwwlXOW+b1IFOUSh8Pqq0eHDFIUSlY/ivpK8j3pzbDgvNjQC1crf8Z5YmZaeR73ySSQx81BIzzszV/IdClESueDNp9R5K7UjNJmIy1g6kiUPm53LUGPtMJueHknPq13hWLtiwl6/w5K7ebdZ1FRSsltKpQIREghWKLzOAtIuTFHKMfSK4r6SREA66zzix/QfisfDlxHeL15Seh71yqfxlZ7nsTiFGtumZi7fhZIy4jtfrKSVmpeqhD8Vk13GcjkkoRe7CUrUjDVlVUtO8De6nxrDbwclRdxsVyhKcvIzfHCUNctDrBYKhdfZfX2hLNY1oS77alnUKNOdCcsheR89CyYixIvnPxh/dVHs8F7j6+U9jzLmFUrS1zSa/ONQFO9075haopyK8gpxbme3FPyQba+4Qz5LZruI5U0n2a3YTVBy4OwslDqLYj13thwzS5Tjj7DCRrI7sku8b5YPjlIGCbijFLKrt3J22mrho4khdr7LjlDcV3QeicaL5T8YikQd4iRMPsl+Ux++KaFe+RyXVd9tkeBeM7VEvXhNU1boBa+FojRKvJtl9tEr1VKYkzxtdhOUHHbWlFStWM9d0paVJcpzNEghrO6MSpLVt3xwlDJIwA5cMQxv5eykHQzHbzalNa5bFMVfJFVU+rJseK80NIAiUYd4T8/b1xR5Cn6+qFc+x3PVd1sspOcZWqLcClGSRXktFKWJo9gv6Bu2maDvfDZcAckE7WJdklokK/rA6grHWrkVXNuSJQ7uV8FCIhJYPjjSgtnLrhHFKCTrGoO9KUo7gk5R3CqSleuqB64Tw384vx0smiPcX7/9rj54r0C98jlIz3OFoTbgV4jSCESfVEL8Fwcr+sZvxXyXMJx/78qjxNqxopd2ePwrg9ekLSNLlPNrqRCIXssJCX7HeLEl+YdvLKYhKnRXf+XstKaosYtg156zH+4Vd4pktQQT0WHb+Ckey749LpGU7M0gOj2PjK95SM/zhJ2l1LEQpUma+0/1+TJs6j/AQaPbb4bTlyhRhhOUHHW6CqXOIyscK5G8hngXFRX63IPMkWb64EhNd0uJcYrb3WE5O60laeR2M+uK0BGK+0rzsAomosOF3T+cF4pEneAiSj5DdHoe9crn8RUWWXl6np0l0bMQpRFMvqqEQE8tMn4pJjyPpTDXu/LIO7sssmxHm/iQ++ZJiqP7Rnbys31wlLfYUkUsxXV1WM7O3BQl/f1OUbw06TwSi/cyQ6d46WLkB0nH9Bwi0/OoV76AUfR1gpWn59lZonyXy1OsyxdVKzW7pv4j2Le6/WE4e0nJdrvrrUm9NpueHomH4MmqkrD/0vMShehOZVaxXctHyRzfWCiRoahW6rGcnbUpSvrznaK4ryT3SVcJKd5zu06w3AR7xUG+xiyR6XnUK1/CVVxEkXTtFztLlGUn/QAkTs3PIkvvL08ra9/r1lKYk+hwdqUoJQf3Nb2yJT6SGyNLVAM9ECX1Uh5FfVyMPQia2jNvLBhHFAqvyyCn9EEfROV9FYltFEXSDZ1HIrHf1kbxjdy8IT46e0+zr7oRZuahXvkSvtLzVn29zCxRzoUojVPzP1ErNV9GXPNmt5bLIQm72E1QEkrtytS/gGI9/xhZohoQojTdzB9E3jdrD4Jy47eZz0RUCDIuy9lpn/RTMc6qQWdXKO4ryfvoUTARFT8VG7ty+M5IMcK9mrhv+h1i5ll9CexlfKXn9fQ6jMXMEuVdiNJIRF9Fqcm+4h/m3VItlSjJBO22GRIlakWuY1W2o4Ulqg1rm0I92WgEL/MHR+qImZ+sYgQ+Y5ympihtcmCnKO4SOo/EYb6pjcNVvQ4/eC86v092CLFQU698EalLe5E1p+dZ1ezxL0RJluZL9039R7Fud2s4dc2GxW5+klDqipQoiYfgVlvB5437NurOS5bmTuN9Mw+6SfS2N2brtUo0Md26xmBqikKJKoDiLpFMpKN0FO+JXcdYdo/2jHm6xgL76xbw/aJeeQAPitdcMOtNz7NyI3rq5TaFRC753HsrtVE+2YYeXgynLnnivtjNT3LU7CiUuoREB3nQdtTa0YgQpdEstheKX7F/cKQqyFyZJoXC6/UoIDVFnSRJSiIVnaNITqfzSBzGW9pIfLctN8RBY+959ul5yy9x6pUHYNOoZ4r1pucZWaJaEKI0L6X/JKGUnw6W8whJOfhJLIU5ycwNJyh5Yd/ZzU+NJtvRwKmwaeYiKlbjVlM/xz7mppQ855QghcLrtZyddvd9fCBSmuJ6RXFfSd5HHbk2/lPs64ph19HGOZ+auXLL6XnUKw+A9DwXGFmivFl0xpG8lL5KtEB/SeGm7VIthTmJB86uQa/mxW42PT2abEe9JaodIUpzCTTqgP1iSloEvjNjAVNorwvd++wwNEUpf7lXFGYHOo/EYbqhjaWNA5gJ3uvOh6fnUa88CF/peSuKsR9hY4lqpX+o4uPy8k3wIw5DIKYuWEthTvKls5sgodTCSDwEBikzLhvcj6M5lCl+xEHITZOF+MbMSVex3m7TI7QN7A6XwVcIulEUORySl55bqTYa903XjiA3bxL33rb9tVsKJ1CvPAiLCqnT9PNGjMLm9fnyueAUauK9el04lr3iJrAqlf8/43L5knn/MpuexNrRUSh1EcV6GtBSQryvTr85eHhwpDHI6RCjQonyexbQSs8HaSJaDaxTFNXe6DwSheV2Nhr65k3jPj1vn++w4C6mXnkY0tDYIiu9ahI/zintFMuzLWZUEofan2UQyVKY63yCklDqtdn05HTqIWjqCvZzDTyc/KS63vR9pvh1v40VtILQwVXwVSC2URQpHBIvbje2DU1H5ELQN28Ok0NxBPtuRAvpedQrD8RX5cJVpufZGBEtDSlxfDdZnxp4XF1Dx5mhMKcJudjNT+J4WNFHtk8PQWOFGaVldWriwokmXc2pqq0SddFxc0grU5RBa4T+UNwgkkXrpgduU+kTDjMkHOHef7B3csxLKNQrD4T0PHNMiuy15Ay1WJ8aGDb1n+azXdtbw1lrrGB285OccFaUAd+lh2Dj+Ig+xrWDNSuCi5OfVIyY2thJFF7xwsagVbg/iud28ygZosjgoPNIDJ/s9rLx2LWzaQL39rb99ZuVUKhXHgrpedaYWKK+trRCTSV/z+CzVYaki9wYlu5kSaV2w+stacLWTSh1mR49BA21zdvhK2qWgYuFlyY7TomeihxB184/rSnqxuZn+0RR7U2jVAomIqGlOh4vjfSLMsN7F8S9r2BWQqFeeTC+LO8rOty8Y/HEtdI2b8cPgxWqgc8oiFkgyVKYk8hvP+3mJ3lZN2apyaFHD0FDbfN2LDZMbgUPiym+pycyeRUKr+vGClpT1H4pJJGKzlEU2aPzSAzexYtD7LrZNIL7U19Ieh71ysNZKP0uZkVFcN+wsEQ10zZvh8TAIsBpRqRVw1RLYU5SUMDuehNKLUyHHoIGP7UOVq0ETranUhFkYs4KNcx3OTtpD8N9pFf6o52iuK8kXtxeMohaOif4zI/whPvywPu8ohmvNvXKw/EVaNy0smyl+GSh4zemxzfVEWMGryUKjUJJlsKcJOHTrimA5JDZTSg1gP48BI1VK3+lEz3Qy4Mj7VYz7sBTXFHfpwFteYy3W6/PBgxiFJ5SiW+xl+NyS1U82vICmOC96NfL+6LMvMKpVx6Br/S8teVVWlTpaala+SstuW5n8KpEacp3D7BcDslXzm6CklDqmpQoxXpK2bS4R+qkWpeXvizSMvzjpijF5tN5xQdt4u9OPkGJKoDivpJo7y5aeebTUsC6uSOYAe4bIe4NHZMhHeqVx0B6niEWRXraM4b+1C9SDRys5Dg2waTvKUMthGSCdnEvyTt9Rc7j/k5uTUZ8FPWtBXh5cK6kTr/Rg7vZD/tBa4raCYI9NmCQoyiTSOeRcNwrFx98oVz5Mu6TLZfT86hXHoOv7d3K0vMMLFENNm1oqSfGNC8BM7XBJiW7+wnbzY9Qalm6U6K82HLi8NXoNxk3Jz+pHWfMQikpDWGwsFEYmKJ8RZ8bRXFvSFamtR6q43yS7OnKQLnyELxfxcX0POqVx+GrBsaqZEQLS5TXHLEZjNLHCuPYi2YRTrIU5iQ31De7+UkqwKyoz2lvHoIWi0SduaskkIqbB0er7I0ceCUKr8XKxiA2RV312YBBjuIdqiniK5iIAIs6J4lQrjwI96kwe0Fxou0E9crj8NWhelXpeQZvzyYzlPXLVIGvARM14vPKkkQlz53hBCVv6j5CqUF05iFoskjUmbzRWC0cLOQbUkViZGc303WoGP7L2Wk34Ft1rfpOUdxXEqW2E+dGQ8VkLetSNIRVU+9g9ie6iYqL1CuPw1n1BUX6tRMMLFGGRo0MWuqKMYlnDdBAErUU5iTTtbvemii72fT0dOYhaNZ3rFAuquOoAIG0ZvnIxlzhNfRfNfZCmpWwueqwAYMBigRnOo8E4162+MBxSNoV7vMt94VurkYfLOqVx2L7Rj9F0RzVCfqkqJc2u4f+kC9UBeya+i9joIlaCnMSZdNugoRSC9NHVtg77e6QuqjX5enkJ72xh8kKCoW3gRQJbfLvtpd6a7Yo7ivJjdFHFko7weoGC/Ua4f6a7o90o2Zt6pXH4svzvh4l0aDtqGc1ZAb3bRRCcF2gSx9SsrwVvykmaHe9JVaHPkKpYSjWU8Zlw67jHtbf08lPqoFsBjeeIkusgcYK2iaGm6v+WoEaoKj2JvHidlHNxqbpThJN1kcxwX2nqp/vqzK246ZeeTRaj/Yiq0nP01uifgaMyiMGml15fIdC5Gn2lsKcZIJ21QAIpZalLw9By5Xme0iT9HTy097ZA1FI8aMt3O5aU9S1sw1/myjuK0k9ry6sGxY9d9L4giUqFP/Hvrn0POqVRzOe5WjGWtLz9M9Zu77QhsoRTuJgGWeQ9yc0vBc1T57d/CQm1xV9aLvyECjqm1Sjh9Lxrk5+0mrZp1FiycazhcYKWlPUH189ihpFcV9IVqaHHrgNhaobTUsxQZK7kMNceh71yuMhPc8CvYz/y98iBOK+oecy3mvFq5OyDacqUd1e7OYncY6sKAu+i0LZb7Scm+euu0oSrk5+WpH13ODHrVY2Cq0pCvJR9B3QWAR6yEEx6LiTyBcHq9UM7usDz6TnUa88AWc77XWIiXoZv9XcvKa+NJMYNvUPQnw/WgpzkqJYhtdbEmHvIZQaSE/nxLYvWw95kg6W8QBpzfL7499WZIk56lQ4g9gUBdkoyiRqZGLBRKqjb7iTCpaoCPxX/9pndgxe4NQrT8DZ/q6BGpMFkFuiWu7ZIM8dK4/7QoXaG9JSmJPomoa9eiVvabvpyfHlGc6i9epeHXQxdLCKB2ijkMc6qELhbaSxAqaoxlBYHiQO0B46j+j77aTiPR7tDPdVWfbC4mnGM/XKk5BUxgvmvsIM3aG3RDWtxstXqzi/HaziLJ+kgSVLYU6S62k3QUKphemhTvaOYfuyxmhfFHR28tO6cY4nr6hX1Ir02oHEuioUZRIl8mQPSpT7ekJ7XDfQ9of7QvT71I5T1Zh65UmQnidH/oy1rca3862Zwv83SJoCaalESUpi2RVlI5RaGMV6amjeMt5+yS5v9SO05auPtnYKhbeVEwH97NpCkbgheTQ7ODK3kzGBJSqOXw6u2Tyf3+dzEtGhXnkSpOep0WfAfva1AJG4r123iF1T/1A+Kb2wlsKcxPxlN0FJKHVFBRmd9ZbNoH35sP02ht5OfnfS2R9ZlBR2rGY6MWOKagpFvT2JF7eDw5Z758weLFGRuC8Atk91OZaNqVeeiK/P4ArS89SdyvyXKZqnnUzwKTyv7hvKRbYU5iQTtKvKJml1vyL3cfvqxzsdBOp8LGQG7qQRbe7p4S2o+L1mKvRjimoKxatUciprv/OIvtBJKliiYnHfNH0iPY965YlIDi/hdG9tk/tJvzRcrvysqa/NBE10bxXmQBrOUvPw2c2PUGpZJNmOCnpQD32VtEzA3clPK4Ec3IMSN1Y7W0lMUS2huCMky3GnmElV2mmsjSUqFv8OhNH0POqVp6K1aC/SfcBdbomyq1pTiHb6tI7TRDhEJ5C+GM5SknxueL0JpZall75Wl62XKz/zFzOLx99FkNYsP6iZL/Eamq5sFJiiGkJx1NQcygQTqYu2004OWKKi+eT+oo6m51GvPBlfAZneJUW5Jar9d6B7m+YCPxys4TIyhdTyhpTE0H7azU/yil5RRUZtTed6NFMyZ47mz+v+llQr7n2YKRUKb0s7SUxR7aCouCdRats/arVTuANLVDztpOcdPq7UK0/GWaixfcvoLHJLVNvlys+asuCO00adLlkS5FfDSUqq39tdb037CbPp6dEW0qlGH90OnTVXicbhVdAu6cfRV6FEtXTT91OPrn+uA65nLpI+oe1/FZR9drLAEpXAb/eXdV/x9iOSQL3ydJzVwnhudR2DkFuiLM/9hWinU+s4jaRHqtqQWApzEh34d8BA6kAotTCdeBU6yaeU5pKVx+PJ70G6AntrnkLhbWoj2YnkvQYU6TeSrHCFpFaVdg4G/7W+1Bb4LxC8z3b5cPNQrzwDXxu8vg86akvUS+Plyl8Rr1lpGnHmqpLuLb/KkiCa3fUmlFoYxXrWp/kjxxta2aQ4HitIaMOQ+87IiuLzTRXswBTVDIqzpkSYbL6iTTNlO5roWeQPYRelNPbXdV/XjXrlOTgrhtFzep5cxW8jM2wB92+keVyv7QGiLEhLYU4yQbt8WEkotW/T6hHOunmk0kvpgsbrx7vsOal1/b2b8xS/1VZ0GlNUKygMppK7oXX7RjtNtbFEJeG/LMsgPY965TmQnicDS1QKkuo+9WhmnTVp94a35PfOr7fENLKij20fToVeLFGtXw6XOZISG+WeNz/lleK32kpJxRTVCooOmJKlaD1nu5ljgWW36JbRbNdzGKTnUa88C1+fgI4NbnJLVB9ifDstMsZop1qhZp0NJyh5/gyt2IRSy9K4CWfHRnF00uBhOdNxuUuViEIf7NZAIrs0dttjimoEwb2geSgb/y6oqknk00ViigXuK9KfpudRrzwPZ/UX+j3qqC1RneQn+9fG5zBs6h+L4v60FOYk3TgMJyh5PXdS/jqELpSojjxsivJC9XCwgCNoazPs/Hnn613uSTBFtYGiTKLmXhBMpCb+W6u90UdiigX+XW8n6XnUK89DsjEIp5tsglOwRCXSTPRjjIYiIoob1FKJkiSe/wgYSCUkr2e76cnpwafQkSXqoEVNg9wHTNAAcS20V1OUQuFtrrFC4/X414LivpLUS2m984h7w8w7HbQvN+KXjws4w/7avn7SqFeeidihvcSm6cWcAUtUIuqFK0pLcqCgG4mlMCe5j+wmSCi1MG17cHb0VNbLWcgsDq8nP+1N/no7KkSX5g7aF4JFgWwU71OJF7dxJcq/SvGOXQeb5nFvQdiXAHt9e1OvPBfS8xRgiUrFfxOFGSx7xcUiaEfy23B6EiXK7noTSi2MYj0r05Mlqu1ehl47sWjlvdf7UeE1bO9U4KyHNYyiuK8kd0Ljx+ZmotPt1In1x1cH12+eX+9rdk+98gJoG6gs0ml63jfxQ9KNJUqv4ZWkqZBI/cxsS2FOcr3tJigJpa6oKKMzr3ASfYXpNg1egXe8Xokr7aI+ii5jezc+pqgWUJRJlGSFPwomUg9BzLQQv6yWqAP896rap+c9Uq+8AM6+gX2m58mfqn5aNnxSL11JHKxfOPUbknwvNdSEyXV+vSVldFbkQO6hiHBfYbqWC3e5rfSvrb51KfIaNthYAVNUA9wJboRLxTK03XnEv1vmjX78AAb4P/gdpudRrzwfZwUxzltfzzHUFfZ6atmgtpMV5JuD5YugeiKk4dwk1rqXgIFUQnJO7/LdPE7TZYl2dGYvbrmZoeIIm4Q4DnmuUXgbPGhjimoAxY0gWQW376MQ6kdMS9GPH8ACQeHaTD7S86hXXgBn6Xk92tywRGXQTARkSGtp4pUFU8sQkeQRNLzehFLL0rLu8UZnlQtadqk5WL4JtE6ze81VdLnSC2CKco8iX0NTDk8wkXr8VmzlitCRH8CAltLzqFdeAG/RmJ7KrL4hbzraU8sG/y+kSVoTBCsvtaUwJyl8b9izV/JqXlFVxvb7qvcW0mm4cpfjiKmk08EHNwqFt8kKDxct10FbB4qGHRKltm0Hh/w0lYrhdrAH/JcD26ceXVCvvASScHo4/aWAyLWUrl6B39WrV47mrGl1m5JY3pYSZ53d9SaUWpiWqxLt6M7A5qyMQASee05qd38PisJUbbb47MCF2TkKbV+SodJ0D9x2ItMtdc72iP+6LN10qPeBtmrlIv2l58lFfMPK0BVoJi18QHOforrVlCyFOUnjX7sPkySUem82PT3NOxT6q1zQbv7Ss4PVm0IsgCiErzZ3kOI+hhCNIgVH8jg2XUFQspMrAfXKM/Gfhvmz6fV1hyaeHk5v6XlyEb+xQtlLNPPpGdCeIli1SqBlT1uJnGmnPBJKLYxiPavSn7W43SLynqtIdFgqu9GiHZiinKN4pUq8uC1XtWknRYJ65Zk0cKmpBFYU0vOqIrdEdeYZlJT4qYKDxYukam62pUVMcr3tvkuSU4xna0dhWi6P/cqmv3KL3iJm4bhu8dxfqexHB6uaAKYo5yjynSVKVMst59tpYNRTsV4b/FcEIz2vKM7S8zoLvcstUYa95KsgacBfgxYvRE3ZzzCAoLmH7OZHKLUs4kLO5elRNWz2pO66ZFfzouuAViukYYryjaIssWQBGi4h+EmykStBa42zHfLD/UUmPa8o3rbdXRWi/yQXdn84mHVJ2vn4nNDit+hTxTQ2w2lJlCjDrFiJEtVdDexpmj8U3nld2QyarSLve1mdWeLzafXexxTlG8UtIFmAhv2y7SRIYJfJpgEPAul5RXH2BWzUXT2O/tXZnSu0mbatJzTZwrBemUBLYU7yFBpOUPJeXpES5cwmHE2XxeVblQc3DtZuhnbrb03gdqWXwBTlGUUPCI1BUTCRWjRzFnhBo8jHf7Mq9MaiOCsV0NM2uqbHZJzO6pU3lRp+TJslC6t96y2VKInP1+56a0KpZtPT06z95o3+6pU3nEfmvNxAb1acdrtGXnVnT+sJxWMsSU9puPyJvNRJMk2Gob3h/+TX32nbFNLzqqG3RPWn0vrv5jmOZa+4dH7VWg5LYU7Sf/G32fQkZ3Tn1o6itH4k7K9euUxvLY/3pumd1Sxv+KDdnT2tJxSl9ySuuIYfkG+KfVwR2tz8O6PaWaQc1KUvirPvRT/peXpLVIeZq+00bj3GsldcBrVUGzuhRrSDsbvehFILo1jPinjXPhJpVB/0Xum/3aaEo7R882OK8oviMZaIwu12HmmneVFvbaNsaKBEsOWppkMefL3++0nP01uieqzmL1/EMjSqCdb63FsKc5Lr/d1sepJQ6oPZ9ORcKNazIi236Z6hUfOO+1TJ1nNRj2m5xSemKL8oXqqSJ7HdQH87dTpIzivCTweXch7S84ri7QPYS3qegSWqxxJqktyq8jhYuSQqfe/thJqzz51fb0KpZWm8s32veZSPDtY2AfeV/vvSP5qukYYpyi2Kx1hy+ZvtPKLZxhWB5LwiNFAXjPS8knirwKBIyVagt0R16Qptp3XrIZYVurOo9ME3nJHE1f3Fbn6SUGqXVbDHaVTyeKfT5LxW08j8F+3qqmZ50y0+MUW5RXH5JXO/U8ykBu2cA0jOKwPpeWvj+dYVnShRBhp+l67QBgrXjdCsElXni28o1Ghq3hteb0KpZWm8nXqnyXmtlu9ysHALNH6/H9O2oR5TlFcEF18jtQsmUofv/+cZQ88/AMAkn8Lfm3j8Zvj0Twv87uaSRty34Vh+qD8rNjCGE7xR0GU/tnEuFOs5cWIu8JfN168WdwUWR04DFoSrFtd1CgfrmYHk1QPxKB5jzXMomAgAAAAAAAAAAAAAAAAAAAAAAAAAAAAAAAAAAAAAAAAAAAAAAAAAAAAAAAAAAAAAAAAAAAAAAAAAAAAAAAAAAAAAAAAAAAAAAAAAAAAAAAAAAAAAAAAAAAAAAAAAAAAAAAAAAAAAAAAAAAAAAAAAAAAAAAAAAAAAAAAAAAAAAAAAAAAAAAAAAAAAAAAAAAAAAAAAAAAAAAAAAAAAAAAAAAAAAAAAAAAAAAAAAAAAAAAAAAAAAAAAAAAAAAAAAAAAAAAAAAAAAAAAAAAAAAAAAAAAAAAAAAAAAAAAAAAAAAAAAAAAAAAAAAAAAAAAAAAAAAAAAAAAAAAAAAAAAAAAAAAAAAAAAAAAAAAAAAAAAAAAAAAAAAAAAAAAAAAAAAAAAAAAAAAAAAAAAAAAAAAAAAAAAAAAAAAAAAAAAAAAAAAAAAAAAAAAAAAAAAAAAAAAAAAAAAAAAAAAAAAAAAAAAAAAAAAAAAAAAAAAAAAAAAAAAAAAAAAAAAAAAAAAAAAAAAAAAAAAAAAAAAAAAAAAAAAAAAAAAAAAAAAAAAAAAAAAAAAAAAAAAAAAAAAAAAAAAAAAAAAAAAAAAAAAAAAAAAAAAAAAAAAAAAAAAAAAAAAAAAAAAAAAAAAAAAAAAAAAAAAAAAAAAAAAAAAAAAAAAAAAAAAAAAAAAAAAAAAAAAAAAAAAAAAAAAAAAAAAAAAAAAAAAAAAAAAAAAAAAAAAAAAAAAAAAAAAAAAAAAAAAAAAAAAAAAAAAAAAAAAAAAAAAAAAAAAAAAAAv30+0wAAIABJREFUAAAAAAAAAAAAAAAAAAAAAAAAAAAAAAAAAAAAAAAAAAAAAAAAAAAAAAAAAAAAAAAAAAAAAAAAAAAAAAAAAAAAAAAAAAAAAAAAAAAAAAAAAAAAAAAAAAAAAAAAAAAAAAAAAAAAAAAAAAAAAAAAAAAAAAAAAAAAAAAAAAAAAAAAAAAAAAAAAAAAAAAAAAAAAAAAAAAAAAAAAAAAAAAAAAAAAAAAAAAAAAAAAAAAAAAAAAAAAAAAAAAAAAAAAAAAAAAAAAAAAAAAAAAAAAAAAAAAAAAAAAAAAAAAAAAAAAAAAAAAAAAAAAAAAAAAAAAAAAAAAAAAAAAAAAAAAAAAAAAAAAAAAAAAAAAAAAAAAAAAAAAAAAAAAAAAAAAAAAAAAAAAAAAAAAAAAAAAAICUm/Ptdrt9umPVAQAAAAAAAACgIhfXmz9vbLZXrDQAAACccPPnhCYWaDDqGweDErHiqa+dNh9WODs723LpAGBFPG0OX3gbfFEAAABwAkpUa6BErRaUqGZBiQKAFXGxOX7jbXBFAQAAwDEoUa2BErVaUKKaBSUKAFbEw+krb8vVBwAAgCNQoloDJWq1oEQ1C0oUAKyHi9M33p8NVx8AAACOQIlqDZSo1YIS1SwoUQCwHs4HShRbFQAAADgGJao12N6tFpSoZkGJAoD18DxUokjPAwAAgCNQoloDJWq1oEQ1C0oUAKyH26ES9czlBwAAaJSbEwrNAiWqNeynfnFzc3Mh/9Wrm3J3faOgRDULShQArIcRJeqWyw8AANASN0/b7e3t/fCb/s7l7e3t7Xa7PU/VBlCiWsN46udvLXE213fCX716fHsI7rcr7gWNEtUsKFEAsB4uUaIAAACa5eJpezvyLZ/n/vZ6+3gTpRCgRLWG6dTvDlXRa5ko9LT5+NXNo+pX3YES1SwoUZ3xfHvC+dpXBOCAkZ0qShQAAEADXJ1fR4tQR1zePm8DPVIoUa1hOfW7zdFPX4psUdfHM77W/Ko/UKKaBSWqMwbJR5RjBvhgZF+KEgUAAOCdi8eZZLw4QgpEokS1huHUrzYnv72RSFHXp1NeqysKJapZUKI6AyUKYIaRrSpKFAAAgG/OR+o8JhPy4UeJag3DqQ8koT8bQYKeza96BCXq7OrmsckjP0pUZ/SmRF3cbMkvhBESX7nUiQIAAGiLq+2p5ySPkP0DSlRr2E39auRurL+5PB/51ZX6D1atRF3cbK9vN63OGiWqM/pRou7+Pliadzk0xcXN9jn5lUvvPAAAgJa4Gno/MkGJ6hG7qT+O3Y61M+UuxtTZy8o/6pSVKlF3T9uH28ZnjRLVGT0oUX8frINaAAgF8Mbd05s6mf62GlGiQspFAAAAgAWF/VB/AjUKlKjWsJv6w9hNVjtTbvRH/4hKpTtjnUpUFyIOSlRndKBEnd6TKFGwo8SH5nn41aaUGgAAgE9u8prljYMS1SN2Ux/XSut2shtc6R3rrFmOEtXsrFGiOgMlCrqlxIdmJKt+Rbs0AACAlhiJHxUgxK2CEtUaZlMfKxP1l4uaPzpRwX+dPn+UqGZnjRLVGShR0C0lPjQXg4/2hhsGAADAIRf3g492EUJmihLVGmZTn7AnVTVFTf3mOg9NKFHNzholqjNQoqBbinxoBnn1JOcBAAA45KZ8hahXgso6o0S1htnUp1ShmpWiJixRKFENPay5oESBP1CioFuKfGhOe41cVq4oCQAAAAmMdakvQtDGEiWqNcym/jR1U9Y7gw0d/qs+NKFENTtrlKjOQImCbinzobk7kqLu19llBAAAwDfVhKg/DyHzRolqDbOpDw7T7wSZ75K4nry5q87UKyhRzc4aJaozUKKgWwp9aK4e93Unbs+5WwAAAPwRJUTd3/5l+8rD7Y7p/3XQ1hglqjXMpj6pRP2ptcuctEShRK1oFVCiwB8oUdAtBT80dzc3NzdVm5oAAABAKpMZT4dsbp+3TzczWfYXNzc3j9vt9e3toR8aJapLzKY+rUTVMkVN/yJK1HpWASUK/IESBd2yzg8NAADA2rhbLFZ+u52ToMb4K0pd314GShQoUa1hNvXn6bu0zhiuZp6OKj/oHZSoZmeNEtUZKFHQLShRAAAAK+Dqcvqo/ddq8pxzwr8IUrBQolrDbOoziaB1zjCPM8/GKv3+KFHNzholqjNQoqBbUKIAAABWwMPMUXvzLOk1ghLVGmZTn1Gi6ghDczrtii74ByhRzc4aJaozUKKgW1CiAAAA+memSNSlqtUISlRrmE19Tom6rvB7s8X8UaJWc0BAiQJ/oERBt6BEAQAAdM90GRyZDoUS1R5mU59TomqYou7nfg8lajUHBJQo8AdKFHQLShQAAED3XE8csjePwpmjRLWG2dQnbtda57DBNT7iqfjvNQBKVLOzRonqDJQo6BaUKAAAgN6ZOmnfSosxo0S1htnUJ+7XHZvIDo/LzFqwGjz3FQAlqtlZo0R1BkoUdAtKFAAAQO9MnLSVhiiUqAYxm/r4/fpO6YTSi/mfQ4lazQEBJQr8gRIF3YISBQAA0DnjlqiNOusIJao1zKY+esPuuSz8a1O5q2+gRK3mgIASBf5AiYJuQYkCAADonFFL1OZOPWmUqNawmvp83abSlZsWLFEoUes5IKBEgT9QoqBbUKIAAAD6ZvRcrxeiUKKaw2rqS0pU2XPM4OTOqQklquFZo0R1BkoUdAtKFAAAQN88jB2v9UIUSlRzWE39dM0vaw7karPwYyhRqzkgoESBP1CioFtQogAAALpmNPmodNHnEFCiWsNq6qdrfntayem64I89nvzt0/8bJWo9BwSUKPAHShR0C0oUAABA14wlH5U8yQeDEtUaVlM/FYNuB2rqRbkfO/FA3Q5mjRK1mgMCShT4AyUKugUlCgAAoGsG2UZ//lxeWUwYJao1rKY+PLecHsaei/3W+clfPh/MelPstxoCJarZWaNEdQZKFHQLShQAAEDP3J1+6c3EFJSo1rCa+um5ZTu4CptiWur98R++HM56lXtjlKhmZ40S1RkoUdAtKFEAAAA98zw4WFttA1GiWsNq6kMlauDsK3UYO728jyhRr6BENTtrlKjOQImCbkGJAgAA6JmR5LyCRXZiQIlqDaupn3Z73A6T6C4L/dTJKe+v1+rEJYUStZ5FQIkCf6BEQbegRAEAAHTMSHKeSblylKgGsZr66dHr78lrc/LfynR/PC2F/jx28DOpqmYMSlSzs0aJ6gyUKOgWlCgAAICOGemcd2c0W5So1rCa+unR62nkRr4v8kvXJ3/1Yuzgt6IrvgclqtlZo0R1BkoUdAtKFAAAQMcMdrF2m8BKe46Lm6ftdnt7yPV2+3hzU8bKEqRE3byO4eFwDM/b7dNN5TzIq5ubm8ft6exvb2+3f388X3EMmXoNTm/av797VWMwp5aoV7tgDSWq9pVaZOQO/fuYnE89JM4OCHfDh3xb4QHTiDg3N+eDa/H8+soq8ufLTuJud+dsr09u3OvtdlvqHbs8hvPTq/9c8BX//gvPhz/wIJzfAhWVqIvdvfh8e7q452VfShol6vUde3oVSz1WIVy9juD4UblWveLvbm4Gz+nf+Sf89N/P1Xbkc/VQ/qXrWYm6GbwVKjwai7w9oycvYIOBAAAARDM4v5dKa0qg+J7j7nx7O1IG62C/e73NPkvMKlFXN4/b26HYd8D9w/ap8HHm6u8u8eF2UM5oyOXt9jxnszI39ZqcXtTX3z21L5U4zJyW83/9odMqVenT1l2paW7OZ+/QqbmVeFhvhsTP8WLhIU99wEYGd3Nzeo/9Gf1fvZLwm69vi4WbocArq4QSdfH38HM7/3bdr39Fvebu/Hl+EPe32/Os19Ld4/Ptaebv6QUpN58kKihRdzd/T9gLl3Zz+xz/UroKerDuiz5YZ2c3i1fxse5VvHjaPiw92g+Zt+oUd0/bh5nZP4f+nau/mnPFz9Xo5X48/dspd8bgpsve9S3cT0mPRuwYnmo9owAAACoGB8qC/e9jKapE3T0+zO0UDrh/fio66rfN5MXTdnavcshl3hD2c/57fAjYJx6zeXhMDWJOTL06o7976l8qUHj/6uQC7sStwUk+ftryKzU6u5vtw6KUUFGJGsg60TL4RehDfnk9ae6aIvCaRC/cOFdPC6J57nQOyFGi/h5Gr4PfawcDLi23/70Ft0vHsD3310nHsbvQX8j8hmRSVIlaDN+cchtnqhnuOCKJftsG3ye3z3U+YMGvqb9cPpRUNu8erxc/M8t3i+hzFfsDp0yvW9ESCuHvndttHREo9hktvHEAAAAoxrBMlFW98pJK1N1z1F76z5+H9JPd2CbnJlyE+hhCxlnm4u9OMXLKR9xvk3YqI1OXcPq7u8Gf7g/z7+TTp+Np9L/GHPwu/gZTc67U5XORPeXV03PYyWLq1/If1lO/2Z9IIeoi8iG/fYx6xqP+9gjhz0LwtTjiPvlwkaZE3f2VoHIWJOMdO8LTdewbdvMQt2A3kb/wYGYmLqVEXZw/p13hmJeSWImKvE8216Ulxei9yJ9XTazAMEIVk8fpP5G/sYh5S2X8zisKJSr2vXN5XXZTdJf8jKZt8QAAAKoy/KrZBXcLKVFX5wnnuj+b68QP9WDUyee1zTbpqHaXdT7cc5tw4U//hpUStfuvgyuRffI92YNf7v5rshJV6krlHnkvHsMHMvU3sh/W85Efi5hY0kP+EHGDJvz5IwJ/6m6bMpEdiTdCghJ1nnMa3ZP8jj3l4jla6P8T93q62ibMuNj8IimhRIV7iMcJvheVStRF0lUso/W/cvWY/nRn+ViuzsMv59SC3qWP/ZDb4AuW+0vVlai0985lXAhkmuxn1NK4CQAAMMbwc2VXg7WIEnW1Tf5Yh2+ZZkedw3XC6g+y0lK5jD7Ynv6QSIkazPjtv58eO3LLpZyKJW/rk+6JsrtSH1zEHY6m/kzuwzomRM0E549Jf8jDVy7xB/aEPAtJfomj6aQcchKUqJEOq2mU0GqG1boCCX49XaT+QuI3JJNcJerq6bqA0hj4aOmUqPSrWMjHkiiYfpDoe7w6H5QynGNSicob/AeXgQpI7u9UVqLS76cCEvXVebQJdITQKwEAAKBhuNkwbJ9cQolK16FeJ5+wYSiqRP3ZJKgn5X79NrKswem/Fx3Dpm6UU3Ujt+TZ5fifG/y8XImKv1JvXJ1H2rImXweZD+uYEBWcTfmY85DbH4veyPFLfLCJFyUTlKinAiN94znzoUw/D4YGWa6ydLfEJzOHLCUqxiBZYuoqJeoq/T75a0gqUGSwiHwbn/MZLdROPhYlxr8j7KHI/ZWqSlTGe+cvaX73998u8ql4xeD1BAAAMMnwhFGuAXQ0+UrUTXZoN37DUFaJ+vPnMnqrUCBWtifu8p/+a2MlarASeWlspz+znfjvfx5C/2Kx/WRMx6MPEmL0lZSoHCEqO2kkTG/O/JGlZ+Eu72BzwH3sU5egRJV8yW2y3hI5x/uwX3jKfZ/mam3RpCtRZdTQqB8WKVFZavWfXOng7yuu1Gd5E1Pg5+oxfgs0+ccKTeCVkFsy9zdqKlHZ99Mm1Y5UUIZ6xXCHDwAAcMJwX2/YkTpbiRqrgRxLtBBUWomK3yoUi2n/5T5mA376j42UqL1ccno7X2b9zOm6vh8IBlc82EdY9kpFhu2Tkpom5aGsh3Us7yNUiCrgNNiEpAHm/sjss3BT9E6IFCUTlKhiGcAp4z0gS4UMehtcRSU2jZOntcWTqkQ9FZjrCcufD4kSdVHg+YoPCR1wVfQBD03uukixhG8m/5x6Y5H7E/WUqBL305+HFG0zLtEyiFu7AhwAAADHDD+whguUqURdFAodRRppyitRsVuWohvGP5uIDfjpvxWdwE6dfHsl6Op0QDllEU7lkr1Ukq5EFfPBvBJzpVKPRpNn2pyH9W7kvBQoRF2VecgDnrDcn5h5FgpVrv8gTpRM6Z1XdrxJZ7Jsn0nIY3pXpDR7htaWQpISlVTNe5nFl5JCibop40cKrltXawAfBBWQTBPppx8L9cYi9xeqKVHZNskd0dpmdqGxce7J0AMAACcMNqP3huPKU6LGjrdpxHX/r6BExRmTypUT3hEhcJz+U5ESdTrhj730qdSTU/Xs9G/tl2VgEAn+FbsrlXqb1lCiMoSoYg/58qEg9xdmnoXCt0GsKJmiRBVWLeJecO9kel4DkmiLpVRJfQdJSlShiQ5YuhUFStRY7m8SKQ1Eig4gZtapl3T666X+XOX+QC0lqtjljC3qV+p3B+NAigIAAB8MvlFxKkxZ8hJ+CkaPohahhhIVd1IrfbAN36ec/ktzJWogEqWP6PRPHWzYT38kOAnwscTlOSBiR5lYc3rSVJb+sI49qYGVtgo+5IbHogpKVFQVkhQlqriLK+GMn+soXNZnCioIaVpbGq6UqKUnq74SVSJJ/420q1jW+rqjnhI1vdtRbyxy/34lJarg/RRpuC/4w8dckqAHAAAeGNZrsSxnWDrhJ50YKaqKEhW1BS4+guCec6f/0EiJOsiFOT2UpSurp/vPg6P+YMFC/2b5KxWclpV4qpi8oskP69iTGni3F33I7Y5FNZSomDNOihJVvFpJ/IOZfb5f/LYVtbIIpShfStTCzKsrUSWFAxPFdJSQnMS0vzx9sxTsmLljYWOR++frKFFlL2eUFFX0l4+wzH0AAAB4Z7h3MSxYXjrhJ4eIc1Lw/u/+9pXAQjcRW4XyWljoj5/+O9Hdc3rWONhLD9YitRv31ckddeh7GqxX6B+1u1Kp6sekXJP6sI4VeiomRN3e3j5s//Jwe7vo4lmQoqKWaYQSStRlxCsj3B+XokSVF89ii/DkHwiX3k6LQtRmf3+FXBSdFOVMiZp3ONZWooKu4nXFqximhO2e7NvgrNcAz2NxJar852o+jz33r1dRokpnWkZIUWX7RByjrWQHAAAwyvB8kXpwL0G6EnUqGxxzebvdPt3cvG8+Lm5ubh63D/Mn1XBv2NJ27fZ6e35zckq8uHnaXi8clcPFsEGd7j+7Q+zzdvt48zHvjx//O/35LXjg9E//mUiJOl25w9Gebu1Td1ynj8bhBnJwtwX/VbMrFSAlbG5v34bxxtN2O716iQ9rhhB1NXNq2zxsn4ZKzN3T9nbmzTBvKLsdYzCE0f/VKzPC0ILBaHN7vX06fWXc3Gyf598YwVJUMSXq9u8d8/pqPf3pu5ub7XbhmB1Xq2T5QHj/qhId3L83j9vt9YHWsPB2Gmvo+M7l9fZmeLfcnM9eEpnvIEWJGv1oDJf0+e8b4eBKva7q9dxT9WdBNrkLerA2SQ/Wgo/n/vpxeBWvFq5irHlv/kbd3G4fh4/2+dJ2JOiSBghHr5+ap4NHZLvdTq/nqBJS8XM1erkHfy/lzkhXouZ9YX9fOTc3+5vq7vWjWey9F6QE/n1GzxOeUcuYMwAAwI7h+cJyYdKVqOlt3MN2+ot7d349/bUOrrsyvV24fBg7voQOIKLv28E/2u1LgjY7N48zJ+IwRfL0XzlQok4PAsGZhidczvyZwe0W/BuDKxW0YnePD9P3SeDGdk6J2txuz2MvXdrDmiFETT/kt49zd+vd4+TZKN7vkCLiRMzk9ZUxN6ib7cxBL3Q6KZM4uNyviuXT/Jvtjau58UYJNXMy0eKL9k33nx/xdDTj4Xz2jz9PHjxVRRdTlKiFU+7tqPT2wdXT88ydGP/SnS79F8fF1FXcXJ/PDepp+irGFSyYu1Hnb6SLWd0895LePj/OvllGOfj32o3F3Kxi/8DoHwn93E3eT39vqBnlazv9jg9/OJae0ecRYfVw7LPPaHBxSwAAgGoMPpemn6fkPcfUKfthdvP5ytOUFhS8XxjfLtw/P4XtuSYHELFjufwbqXzePsVvNc+n9oxhJ4HTf2WkRB0Z3k+XM63y2amgdfRXBo9N8Lxvk6/UU96VmkxuuryePR5NkvSw5ghREw/55XZ5+BfbiWcs2jBXU4nazB9U95N5zFU+UpWo+xE/R854I/JUZvxwYav2dyDz/++J5+t++Rtydjf1Do9slZVKWSXqfu6IfcjV+eRBN/qlW0qJmhjRbcCVuJl6RcZ81aZv1NuAG+k16JC8olOXdPPwmNgrLXljcZW5sTjAVomauJ8214srenU+JUYFL8HMM/oc+IxeTMdhLEvCAgAAvDL4VuZ0vc8mdc8xEYa8DjuhXE0cU0OXYrhdCDxS7gdwPrF7DWwodnZ2l9GU92Ji/x20VUv6R/mc3rZHP3t6pkkTV08vydEFTVeizK7UuPpxP+smmiXpYR0ZRKgQNf6QX4ae9SeesYiOc69UU6I21xFDuZk644T9jZRJXMVrp4vjjXgyp2rvhB3vQxhva3kb+GRPfETCGwpkUU6Jurx+ilrQqXdStCmqkBI1LleHXsWJ2cQ0GpsSYAI3I2eTKk7AJR2d/OVzxifH7nP1gakSNX4/bbZhd8TUEoSWyJt4Rp/jntG7Us8oAABAaQbb52Dxowape47RqM9txNZvfL8ReDQcjDq2FO/fY9C4GKYRdu7G1y/kn9oMeP5nBwVQUowJpxf12G2SrkTlcTF6og87tA3/6WW6DJX4sI5siYOLG41OPSasO6oVxHazrqREhVg2jrgZF9bCDhdlJhHF+egLLnjWE7GGh3LP3Whu3iZCHbwaPe9pIjuFlKgk0eJuXGWMNVyUUaLGCxtF3CUXo0pSuHVywsUSsRl55WroI0xSojY5MlQ24xuL2C2mpRI1XjI8UIc6m7yfQgXqsWd0pqzX9N8Z90WJHJsAAACTDD+ylmuVuOcYKxG6ifvKju6ZAmNGOQ2C91yN7lhUuZKjjoOQ3VKJqScw/7OnR8KUwsGnx6vj7d9gvWTVP0c106C96emMYs5nYyQ8rDlC1NhDfh+3Kb8Ye8gjX3h1lKiEY/fVuEsoaDoGStRoXmb4+23c0FfyqRvTkR7iZMqbMTEr1nSXRBElKlnWG3WTxX66yihRY/fJddxVfBq7isFLMyoQxwiaewbTWP4ng+c6QjKpQ/LG4gBLJWrsfor86ozeT4Fp1INq6cnP6LhdLvGPAQAAlGLwcWpQiRqLZod3NH//I2MnkbDFKKJETbTcUUWtxn48JBBcZurRnP7s8dUeBDLjR3XqwTg5Fw32dQk2uETGrlTQvraA+nFE/MOaI0SNlV+JPGJOyA1x5yI3StTEESdoOhZK1PjiB17+UadJ0U/VmPkh+gfG1DbJaa+IEpX+7i4hwRVRosbuk+hP6JhgHTqa0QP/fZL1NGEINs/1LKkbiwMMlaix+ylSnp6IcoY9bIMLmv6Mjm4vLQ1zAAAAY19aU8Nu2p5jZPcX3xNr/Jwc9GdKbenvRvbzsqjVyEYl5LcLTT2Whfvk9GAWn3J6ejOcHKuGwWfNvM/Gr9Qm5N+ZK1E5QtTYQ57SmGzEvhH3Z8oc9k5ltbSc6LEXRtB0jE6sI7bPwEPpWF2tsmajkZsz4VM4Fs9QfFGNlajROzHy8SyiRI3cJylXcUQ6CFuc0RTPaOliR8L72qESlbqxOMBQiRq5nxK+OmP3U9jtXVCJKqEJAgAAFGaoRMnSjMZI23MMd39ppRhHThFBAkOxLf3Yfl6mDI746ANkApvbZ+k+Gfz/Y4PSpw6J072zpRI1dqVCTuXWStSYghYekx1aotI65I9IUVE3R5nDXqHbZ7RPV8B0jE6sI8MNO5SOWBOiTa/zjFii0t68w4+IIpiQokSVPOUmy+PTw0l5PY3cJ0lXcUQ6SFQOkt9T3ShRY9uquGfXTokauZ+SrmaytFn0guZrggAAAIXpQYka+cAmnlKGMfsgSatccHmkLq+sl+HIMTHgOGNz+yzeJ6dzid0/noo9p+eZgZ4hTWod7mtDYpvGSlSeEDX816nDHx6Mom4OV0pUqhfF6sQ6crILugWyD7MJv5BoFxg5dAqCCUWUqKw2f2mBjJnhpDzfQwtL4tqPXMWgL9vI45j8mu1FiUrbWBxgp0QNN4QpZvtxr1zQV6fsBR3xpGpaewLA/7d3htvJo0AA/bRqkmPV4xv4/k+5R9tuLUMCwwwhxnt/7dmvJiQQMtwMAAAjyAyB1zNRMmgsXbQnEjPlRLKO0xwiGRuzTeWXw8SM2LdN80m2EyEudAFkGDgKISkKUPrhuwhZUzlrsrc1UbG5AYphonjIy3egth1qWSYq5q4zLqfZiFUKn5y+WmyG6W535BmKnw456JzhY4KLiTKVIDLW1jVqBxMlE9uKdwKWijenh490coXqYkUmqiywmPq9SyEyIhXZnoozMSMOfv4F/SLPKLvnAQBAU2Q2edPilMQccixWHvmXDfE9F9yQn63mm8ovvyinf+N46QrCOy5rPIy5bKMi8WtR5bOlrj0oqSmRJ2ZN41I9rEYRJR/y8lWCtiIe14TjCzNRsflAabnTbMRa5gqkny82DLlnyN1mPYLY72qGxIP2JirSEHWV5GCiRF5Wua6OtLmMY0UmYZV/SHIwUcoJkrUoel390sxEySZdvjGJzBnM6fOrP6OzfkEDAAAIWYGJkp/ZDYG/PFhGJOlpouRnq/mm8sshVPriHS9dQThMkEG6LSYPpY1oUY1NVNGk2vAnc5oo655W4rm0qAgxyMzRzT8szURFhnnpy2mXOyEqMqd7c0yIyz2DZS9M8TWh/seEBZgo+ebS9bkOJkqkNFsWtRe3NN0kIouNOT7YBSZq3rfSKPIzhMrPNTNRoj0ZYjGZb59zsOrPqObVBwAA4M4KTFRRGv0YMpbMGEV4mqhIjcw3X7IgWaRNYdMRt4i5NN4jjJxli2psomSMnDFyDn8yo4kyL8Uvfm9KMxF3T3G0xZmoyPy85DivnYmStjv9G9kpWzxRDHEPTfpflLf+x4QFmKhI1ofKF9otimhbpk5ZdG/pQbu8A5aaLzBRoeddiImS3bdKEbYyUZ6JuIU6zvsZlV9ajQcEAAAwsbA3U0HM4TwXQgSTGbGkq4mJMBfUAAAgAElEQVSSw+T5pueJ1pAez7heejYZo5bwWjRjgmRKlLzumb8timZasLj8fCbKLKLEQ26bVCAGBQqzsTgTVbLYdsP1ZERTSPcYIofN3eyI+2FbPkXUSPW1/pZgouTAXfUysJsocdttLyNxT5OBhVxm0lKCMLUu44Z4LwXoRUFg8UQrE1USC05QEth5P6MyWm66LiwAALw9xhn83hTEHCJcsA1S5ff39CjC10SJ4KPh9Lz0HKg2gU14jyIxnajI/O+Z6VWo5HXP/NyU5GSFP5nNRJlFlHzIjSvvhIMCxYitjomyJPnILiupRRuaqAJdIGa7eadEicl5xi5X1Ej1nTWXYKKKEjXHi6O3KOH5jV8HRP+W6rM8V6wsuyFLNVG2LwmtTJRozzY/Lb5/ZPQy7gt/2bLTAAAAnBERbNt54wUxh+vaEGXDHl8TJefyz7bTrthBKh3Jul56NmElxcZdBZ+Uvwkfitg1hdc9t8HV11QzExUTUUpdHD7k1gWrxSA8fx5RHRNlemz0K+U1NFEiwUmfd6ncCDONMEdW1RX2PdXfqoswUbbMF7OJEiLIui9Y6CdTvY5c5NwUi6zIRBUEFk80MlGiPRk1kAzs0h853Rf+EuFtdUkOAAAwgYhg28Yu+pjDfU2OgsUmfE2UDOjdUwBG0eeK+F56LmGzjYVTolZyp8iEEWi0RYUHn9tEhaOkjCg5LPFMJkou1aoWUYb8NvcDLtBEyaSo1Bi8oYkSrSbZDMUvvDfOk9kKVvcvDujtzkIWYaLEVasqyjzoDkWQOX9Ee0BRCbZYZEUmypKE2sxECbFo3WeuILBzN1HiocdEAQBAS17eRIno17yqkvhypS+1TccUzJHzQjSH5HF9Lz2XHBMlZE1uIBkGjNFhvdArtS85QHzbTP8k/MU8JmoX2dlcG9KHD7l9c/KwUPn3YoEmSj62qR6joYnSN0MxIrTmugjCJ97c4YockNpzYBZhokQSiSqYMA+6w3tg3qBeGN7Et4zwz42fkNZkosKCqXrwRiZKvGKtD7F4PtL9jLuJar3VCgAAwB9e3kQ5r1JadERnEyVc2HwLRekHJ+63P4uw2UbHpoWZDuH4Ix40iwdn5pU/C4aR4S9mMVEeIko8kuYxpiHCX6KJEi09NdBraaLUMy3FiNA9wSgskl115Uwf9sTDRNmnEIaFmNdEhWe327+w75o2S6I/NKbWrclEmTqcRiYqDMPs3z/0R3Q3UbZ5kgAAAM68vIkKBxH2cEGkJOmnjxithHBhsy0U9SomKqz1+FnDv8pLlwtXx45Xf2sTJeRD+ifqdp0g52F1EVGiIu1jzPLBzRJNlBhepHqMliZKPVp2XohaIm6fvb8N87hqv1Y9TJS9jKaXsbU4IuNE+fsI4atguucSD5WxoWKivmljokRGnP37h35PTf9nNCwCJgoAAFry6iZKDCLsM9n0h/Q2UcIyzLa/iT7mc770TPLOKjaeyUmmEOuKxn/U2kQVROfhL+YwUS4iSjyRDkkx4SGz99lfoomSrTGR1fNKJkrUvnn+dUj47cFBdYXPhv0DyTTLMFH6yd2Oxakg/3QNw3uLxzWZKJNMamOiRBRmz5TUH7L+M1q7ZwIAAJhCLIr0YiZK/MBhdW/1lt7eJmr+TcB/WJeJElIpp3GEsd+IOBHDDkxUpAhyV7fbp14jhSfySIoJA/Js2btIEyWWUkrYmpYmSju4Es3M3cuHJfJQXWGhKy9ZvgwTJR53zY+txQlP7vDSFC/iyb8u2BptEkyUx49HD5LqcsOEOIdMSb1UX5gtBgAAcCZ8Lb2aiRJDKgchIEKQ1CjC20S5b1qfzauaqJGYPxyc5Cy4Fd77kfhTNDz3ZZSnKZiLEv6ivonyEVFVTEHeHMyMwizCRGnXin4lEyUsm/tc5dAqezzK4eeMyv3iMkyUqVlZixPeAo87HsqlKbckNIN1eUdMlMePRw+Sah81kofUWwj6P6MiujUfEQAAoJzwtfRqJsr0FXYEkUOdilncTVQ4NHJfGWUMvd/wvvQscr9Vi79LjzHDyh97Hprvhqxv+N4lTj6sTiIqbzNDJWH9ZcveRZoo7Vq4r2Si6pc1Uz6rCLtwh1zdKTBRBR1iGo3dEt2h9fsRJsrjx6MHSXW5YZfqcS/VO94u7BkFAABwJnwtFbzqRBA8RSJAVscc4ck9nI3QMalRhLuJahctqE/sfelZZDcTvdLLWwsdE5VRC14iSjzkxlkv0cJn93vLNFGiE56+0a9kouqPrmvcjPAqK3cPyzBRIn1N82NjccKvDi4bzmpm/ImLt8rHNZko3TzHgCYmSqS4eTzBot9NSW9MFAAArJvwtfRqJir8cOUyjy0sRGo2kLuJEtv3eYy9s9De/4WbKHXNhD8YHc9golK1IEZmpSJKPOTGckcLnz33YpkmSjlLGRP1RPjlweUE/kPISZZhokSPoHlvGYsTntslEtD4RDHtyfuZfmUTZbK9TUyU+HuPTFx1PIKJAgCAdRO+ll7NRCmPn0e4xod6TV1rDOp+wGy093/hJkpUZWp8Ejbm0fBTyEL3Hb0SqGtqZhMl5rgWi6iw4C5zVcUn79wfLtNEieY4nZDxSiYqLKq78g3bsX23dkvOXRkLNVGaZm0sTii+XZqJpkzuS0Fjor5pYqLUazTkIFLDUnlz/s+oeFM4XBYAAEAp4WvpxUxUlQ9X6jld/uIoPGDlVUbGT6z+wSwmKn93bRFPTqfDh+kR45kyos7nDvrVNTWviYqIqH1hZl+dQb2uYfyyTBMlZhRPVy4maqJALifITq70ARMV/twlEghfNFNlUm+5mwIT9U0TE1WniwwPmnpMZ3hGzUcEAAAoJ3wtvbqJchEh2iDEvxThfKTZpn4pr7yRiVLEZ+G6T9MJD/nrgmCiJh9WRxElzuOTfVbacJdposQBp5P/XshECcd2qV0glxPMPODDRIWfj1xeRBqfGF67+XZior5pYqJq7IWjz9HGRAEAwLoJX0svZqLUK0BmoV141d9EhffUZcJIDsorX76JEi1kaoaYSJ4f/2NM1NTDKqYAGERUpcWfw/K9uInSzSh+IRNVf6byLA4DE1W5OOEdcIkENLUY/qlZmGOivmliourcSu1RMVEAALBuwtfSq5sol8oyL27pbqJmiyjV99P90nNQxGc7TXpZ+B10QgCKVA1M1G8RjuFNt4ioOvNuxN3IzYRZqIkKe4zpuUGYqCfmcRguRx0FExUmv2rLHkURj4g/NQtzTNQ3KzJR4bL2qSmcmCgAAFg34WvpxUxUnRTq9iYqDFjqRJS77s5meHDq76jvp/ul5xDenqmUsbCJTGySJqzV1OgxvPCqEd2fmjqU1dR8JspXRIka9GlipXdjoSZK7Nw1+dfzmajjo+Wev1ruo+GGyiDRt4kE1cJl78cJ08lcDjrzphOYqCot2mKizJM8X9dEbR0CiyeamKjwz33mhGs7XkwUAACsm/C19GImqk7kJfbVSgSV/qOOMADJ3mN+kuNXdHiKDAfHSB7T/dJzCKt9qlWJGXfjKTWqsE/cMM8LfKqpcJxcXFOzmShnESVqGxNlLlY1E7X71k73wadsBlESfXZ9aVblBJgo7UX7miiXDTY1mW1iQrL7I71cE1UjsHhiESbKZ064duEHTBQAAKwbESFgovRRSH0TZQkX7kPDQ/a4UHte90vPQWOixDIw4wnx4S2avBb9rUpyr6lrtZqay0RFRJQtPyCsbZ+kmNK7sVATJZaIn3R/znpn13WPcais+AyWZqJ8rD8mSnvRtuKEHxx8IgHFBYl2apHv0SMuzUTVDSyeT2T58ehBmpgoUYpEK8FEAQDAuhEZF69lonTr9GZjLbX/uLLkIN1mOJUNDhXndb/0HFQmKrt2wps+vYaD/lZNFHGOmprJRIkpjuaVnarMnlqbidL1QV56Z9udr9lZeyMszUTN7jA8eHsTFZ66vYkyn3yxJmqe19XT+TxurbJtinUgfVYn1D4hmCgAAFg3IqB4LRMV/rnPZH6x+unsJkocUZkHst0cctPkp0meyf3Scwib3HnyN7m6Mrxj07GnaPZl38C3m4NxJP9N+lThL6qYqF3kaoxBvP5KS46KiVJyHE5l6RABiTeObgGsApo7DA8wUa1r8T1M1HyBxRMtTFSl5xcTBQAA8MzKTJRPCrW4pJOy1DOPKwOOV59gMeP+NzJRupNmTlwKF/pIbGsjmn3BlR+vPhbqthgTVUFEYaJymNlEXQ4uFuqWfuPoNgUsABPlduELMlE+36QUF+RvTBdnomYNLJ5YkYkSq1ZiogAA4K1xMFHXfhwxXHlNEzX7RuPlR9xt/KLFlZgokewU32pPNeXPwUTtNn4aaikmqoaIwkQVHXEyT9B2Edurm4bSmyj3NA9MlNuFL8hEVVpgevyC/I3pskzU7jxvYPHEikyU6KYTb0dMFAAArBsHEzWFNkDGRNmOuBs8x4hrMVFi3B3bASm85fvEhEijiZq/pmYwUVVEVJ11fMT+mGszUZPXY7mI7UFWsoWlmahEAmzhUTFRdYsT/tonEhDPSb6Jst/NJZmoBq+rX9ZsohLtFBMFAADrBhOVU+xXMVFn53BxJSZKLKIdaybh+DqeODX+97r94RrU1AwmKuIoHGbJBEd06KG67iyKionKYufsoZZnouzvkPtWgh6TdxVgoirU4kVTi6s2US1eV7+0MFGih/TZsRUTBQAA8Ixc5Mn19lQ2UWLW/VpMlHY5gQdH19leXyRP6n7pGaiDqXD0HMl3Enc8ljf1jAhVFW1va915KEL6rIYCRxHVEJEUKZ+Xgdv+7F13GYbT2FZvmKgcNu5D0tWYqF3XbYah70cmMWGiqhbHy0QV1+KKTVSTwOKJRZioknNGCA+LiQIAgLfmZAoRklQ2UeLPVXkp44R3ZXYTVTJSFQtze1CjoGbUwZTQTHIRndCiJOfoGExUheH8IkyUxEFEmdbx2XVdd77rJ7liXendeGcT5Z8QtQATZXEY267rhru4SKtlTFTV4hhr8WKuxfWaKLFYlgeaAmCiHCsUEwUAAEtCvHBf20Q5hfvK9/8iTFSNQeJaTJRQi2I5WTGBL3kd5SaqUU01MFEeIkpjou5i4DGovLuntHwquhtvbKK2FXIjXspEHe/tazN8WQtlXiMmqmpxFLXYVanF1ZqoVq+rXzBR/4OJAgCAdYGJirE8EzW5E9Y/S7z4/76H99BcH39VqoFJ9MGU+EW4jnZ44Z/JQ4ovxbkqo1VNzW+iXETUiIl6DCfP9xvxtXdn6U1V3433NVHH0lS+j5+Ge3gM/4N/XaSJ2j3a1+NBO9xLbndwmKiqxYnW4va3Fk+1a3GlJqo8DfLnoT8Vvq5+wUT93lRzATBRAACwJDBRMZZnolIDi9x4cf8VGW7uEXrOedUFncNEhRIorY3+hWOQsEbDQXZ6xzdR6ZlBYrOamt1EOTmDjEmAHry6iQq7WncTlS2iPr6U073hxhZbU3aus5uoSmCiqhaneS2u1ES1e139golyrFBMFAAALAkZwB09S4eJKkR535LxYn8azvEQ8S+6+9/IRBWEZ2IRrW7yn8XsPUmhiUrXVH8fxKd36lHX1Pw5UWmd53IaHzBR0+xSCSX7/jBsuvTrAxNVAUyUe4VFGd/HYp0mql1g8QQmyq9CMVEAALAo5DDPNWLGRBWiu29Ti5V/nIZoakIcdZhStfmMUBKehXshnSb/NWMcV2aiGtZUg3WiXFQUJiqL2iZqav5jfz3nXwAmqgKYKPcKizJegFWaqKnFymu/rn7BRDm2KkwUAAAsCUxUjBczUUdRid98HC7p5JrJ86p/sFQTJWLq5yD6EvzbPuOuFZmo7dgMp4/DJj+qf6CuqRZ753moqJlMVHIltm/e1ESNjvQ/B2XZMVEVwES5V1iU8QKs0US1DCyewEQ5tipMFAAALAk5zLt4lg4TVUh4xMkhfXzezP5aMNFSHaZUqoFJwp3wclbGFpvjPf8obKZZBxT3O+NH8cSS/WGOmmphojxU1EwmKrfhLtVEqdL61BcxMib9PCv96fuaKO9i/wUT5V5hUcYLsEYT1TKweAIT5diqMFEAALAkxHjaPD79AyaqEM0Royn0H2UOQB2mVKqBSVTpHz9cgx895T2J+ssaXotbnv5JdG7ex0b5eTl+ev0v5jBRDioKE1V0RF8TFVWofVGpMVEVwES5V1iU8QKs0ERF7+lcgcUTmCjHVoWJAgCARSEijZc2UU4JXcqAzt9ECUE4cUSR7XPXLKW1qA5T3C89gyITtQ1L+vurcFnW0+SBfhA3PfmLWE3dhiIPtUgTFRVt5keyton66A/DJf8r/1uaqHD66uO+FZZ5aSZqai0cDz77q2ZBnTIwUdVrcThP1uL6TFTbwOIJTJRjq8JEAQDAohCxRs7MpGwqm6gJu+Ba7NlNlOaIkRj8s3gDRHWY4n7pGRSZKOGb/p9NJ1pR3jWIu578Rduaqm+iojlfe/NmnJGDevDx2PZJXbq3NFHh1L/7e6LQoC7ORNUynZ+PvQRrK6hvMFHu9ffF3SNm1eL6TFTj19UvmCjHVoWJAgCARSFCWNdIv7KJch9cjxR70SZKfrn8LB0kvoiJCsfFeYtNyxSe738IFdVnXinEfU8OV+R4fs6amsFE1VFRkWMa+OxPw9CVG4J3NFERWZO7wHv63CszUX1/uLev8ge7CEyUfy2eO03xV2eiIilRs76uflmEiXJ6oMPDYqIAAOC9ESFs5jg8D0xUGYojysG/IV58DRNVeM6wVj++/reIuDMXwhBtO1WMxjU1h4kSq3HdHFRU5JBa9g8/cNFnQEne0USFWwRYRJR2cBV6YveRk4eJ+uj7q8lvWnl7ExWdGazk01KLYfFzNrDQHXFmE9X6dfVLCxNVawnS8LCYKAAAeG/k0NHzdmCiylAcUdziveXrnboxuF96QSEzzylC66/fhcHeR2Yp1CZKjOf3loGruqZmMVFSHNhVVOSIGez7x7jy3Hnopyfe0ESJ6auZK6nlnTvRudaaJvM/hSbqo+/7YRg2DfXTE29vomy1eLHXon87bWyixMZ58wYWT6zZRCU+e2GiAABg5cisds/AeiUmKrF2VksTJUeJpiWi1WGK+6UXFDL3nOHsuK+wLkyJym1DWhMlt6mct6bmMVEVVFTkgGFFPrgOw9eg0tk9/eVVTNTkEXUXIdb0No1JX89E7b/a16N5DV23DPf0F0xUshY/HpV4elTi2b8W12aiZGBh6qMsd2dFJkq7JiUmCgAAVo7cFcnTJcxtoq4+xVbKCf+oJT+sFaNEW6yiDlNqtp4RClcYj9yrYyRTKnuUrTVRIiVr5pqayUT5q6jw4/xh+MpFqaycRlioidLstqm9CNHSyzZyHzl3axMln4sfoblE5TQCJir49X7uWlybiRIvS0seJCaq8LCYKAAAWDnyW6JhCRBBbRNVaTlba6lnNFFiypft3Oowxf3S0xTHUmJFqEMkUSp770hRR4lW0rqm5jJR7ioqfMjnSLsbZ6EmStcHqS5CSK7c+at550702WJEbDp5jOonmIG3N1Hi84S68EbEJz2zJW9rosTryneKtea3LUzUMfxzk30vLQUmCgAA1o6cM+SUV/QAE1VG/kgxlCvGBefVYYr7pacpj6XEomhbOYDI/oCuNVFhTdnG8ws2Ud4qKnzIfcYEpbyfiRKPiO1bhXJwJS7MPcOl+glm4O1NVHOfWD8ImNdEhZczd2DxRAsTVWnhB21vhokCAIC1I/bq9dwm+zVNlPi+mljQxz8IHdnmTSI+3Rkz2tRhivulpymPpUTFDtolwZ5Qmihx7rlraj4TtROL3ZpUVCi2nBaDK+RVTNTkX6suQvyxTdVYTZR7DxO21rY5d2VgonwbqZ6VmShxOUb/Hx7OVJaSAizDRGnfHpgoAABYOyKG9Xw11TZRdbb41gYt9U3UaAAiFh8yBuDq++l+6WnENef/NGwve5HvkV9+pYkSpTbO3tDfBF1504w/rFEVVbwHeHijPZM27aVZiInSTWJTXUTYGRmzI5SDK+Ha3XuY8PpMGwk0AhPV3CcW1MA0TU2U6E/mDiyeWISJyv9ENQUmCgAA4C9ixpJ9gYNfapuoOsvZtjdRYaLaaAAS1p5xytdLmKiw0hXXLGoq+0ZLhFqaXtLVUOoo6pqa0UT5qqhwUOSZtKlnoSZKVyzVX5duLpl57lR1hkV1n5wZrojTNueuDExU8zm8BTUwTVMTFQYWRv38eiaqTrq9Nl7DRAEAwNoRH788lyyf3US55ORrB5v+Jir7tpVPLss7sfoHDUyUJjqTGYB/UYxfRK1PlyM8s20rooWbKFcVFZ7HOiiysVATFQ5xphuj6iLCvzXmDFlNlLsoWlbOXRmYqOZzeMMez9rBtzVRzQOLJ1ZkorRHxUQBAMDakZvnmUOoX2qbqDqLiDQ3UWJGyuhtC3d+s8bf6jClSgVMY4nORCLTXzSJSkoTFQ5UZq+pWU2Up4oST4Ox3DYWaqJ0QxzNRXgvGa59fMMrcxdFy8q5KwMTFf7cMYrJw3kSa2MT5ZwI+XomSswVKDmpQKsrMVEAALB6wjfTbe93xbObKJecfG1M6W6ixOpFo2kI3mdWhyneBchAl/4REKq7v2jSAZUmKrtKM1HX1Lwm6t8udqfLVFR4lKabmy3URIVDnGlfYzJRxpJaTZS7KAov0PH9NxuYqPAbw+w+0V1dNDVRlprMOZ7mt01MlOgiS5c5/EN40NRjiokCAIDVI5MX/GxCbRNVZ+pGeEdSr393EyWioLED7rzPrA5T6rWdUUzz3ORk1Cf2mmhTpOpMJ1Q1r6mZTdS/o9iVs1RFhU6r6ZLSCzVRusrVXET4t9ZcD+3gyvv8ArGrpcuYc14wUc1H2OKZsq632dJEtQ8snmhiokT2tEdko95AFxMFAACrRy5Z7jf/obqJCke7Ljn5ykL7m6hwDd3R2+AeVqiP533pGYSNSmVUdjE/8oOu4YufT/2xiEGtiT36mg9/UdlE+akoU4V7s0wTJZrXtK2zmCjrYEh7PN2ugCV4V0YDMFHCnThuvJKFuHirMG9potoHFt6FMW9D45Fur35AMFEAALB65NI51m29fqluosITeBRdJLukPly5m6gwCWR0vggmSi0mpHj9RWeHxM+n/ngBoX34i9omyk1FNV8CZqowyzBRYj7v9AFfyUSJZuauGBZlOsvARImX5tyb5wkZbP2gh4nyLIy2bQqz6dErqKf8YaIAAGD1iAjKUSdUN1Hhjjke71V1Xra3iRI1Mhp/vKWJsq39HWnuPyj3BxK/n/rjdzRRXioqfCCbLuSzTBOlLJXmz0N1a91FSzu4EkNCd8UQvkSams4yMFH1V7ZPEXZ2c09jxUSpDpJqm2F1eiw8Fia7J99kmCgAAFg/cmlh62Djf6qbqOwVlRQIu5UaOnubKKHCRoPqtzRRyjYVIqq3tOzi91Pt5C1NVFxFqXsXkaQ498SbZ5ZposIhTiI3VHMR3hlD6sFV2Iaqb573gkuWY6LqryeWQtSBcb0xTJRnYdRtM7yXHr1CGGon6wcTBQAA6ycyX8lrzdbqJkr8wCGHOsy5Sc748zZRwpWMZgFgovSnFPfsB22UJ5b6nyrIe5qo+M1Wq6jwAJotDr1ZpolSrpf3UibKfXv8kPrz/6qDiZITVOdeeF48VMaFojBRnoVRt00RFtt7Bf0ETkwUAACsHxHC+a2UUd1Eiakb9pkV+kN6myiRSDIaA2GiCk4pGuU32lk/4jiYKIlcha5ARZl2S3RmkSZKZI0l6valTFSd/dSfCU/Q0nSWgYmaYRZnAhFHGVPLMVGehVG3TfHmsvcK4pDJJoqJAgCAN0BOoVFtZz9BdROVv7h3NvoIxNlEiWHl+DVhogpOGZUjBYvdY6JyiuChonzsjw+LNFFif7nE8V7KRIkRvrtiqJ51VR1MlAwF3NYYyESoMGMsgonyLIy6bYoEJvv3D5HsntwiBRMFAABvQLjIiF9SVH0TJV7u1r2T5RGT4bSziRJp4ePhxzuaKPvdlguj3Uo+eWKisorgoKKq7KhdyCJNlOjBE18SLCZq7r3zauS9Joqk3ERzAWCi5Ivb63NaNmK6tq2bWpOJEl/XZi+Mvm2GH2jtHzn1R8REAQDAGxAZK+59YvH6Jip/de9cRIZY8nfOJkoUYPymeYcV4jtg8hfhD+o7AnHN6gGHyCC5FY1bhLKcclnva6I8VFT464bT85ZoooSrSSX1aC7CezCkP54Y4XsrBtGSX256HiZqjty5BIpPSDmsyUSZjtfIRAm9b/3IKRpo+jWGiQIAgHcgssOVz1ivvokS7kQ9ySpAjJvTd8LXRMmB+/hSmd5r7ervv7KCHbCHUrvYjm56gymG81PX7r2W2AuZKAcVJQYF7ZJWlmiixA1O3dzXMlFihO+uGMIOwfoSmR1MVMTHeuy7r0EuuGl6rBdloowd7iuaKPHByjrdU/Xp6gtMFAAAvAOxje1dov36JkpOtTJ+uRJFTocLvpZBFGAih1skvRv9xnuYKDkQLwq1VSZKDJPeyERF+xdVXC9US/1mNsYSTZRIGkr1gRYTZR266AdXYoTvLor0M7IXBiYqdhPm3gNRfOEw3dJFmajZAwuvH4+WIHlFcr1OWy6m/ACWjjkwUQAA8A7E9lrfe4RxZhOVDoDEB3NbNpfIscoIF1zDNlkXU0P28G+N00pewUQ5jIwjSVEF3ztVJsr7RunnUTY0UWYVJa529jVg/meBJkp2Gam7o7kIYQGNt75gcCUeV++kKOG65k6nsbJCE6V/sNyTWLTIbs7yXLc0Ue0DC68fj5YgXTXiI6et2xHNM2NjBEwUAAC8BeKj+v096TDYEwf1N1EyJd6USC6CyYxwwdVEiTHFZIJD+LfG2PsVTVRJgoQY9ZSsiyYOMnnzw9G0cfprQUDpXVWaIkRVlGJ0UzLSroPPvNHlLYAAABgLSURBVJXwIL5ZlPrt6CYuQlywMem0YHAlJme6J0UJ1/ViSVGYqOhXpJmTomQs8mEIohZlomYPLKZ+XPJwenzktHU7QmxlLAiAiQIAgLcgupKLw3dhcUx/EyUHEZagSQazGcNlTxMlg9nJDVbC0NM4RNOHKWF4VX8taY/gbBcWu0RsiJs1WZKwpow78byYiYqrqPxvzKKDctpSQY/Pw+5ykG9kSlSyz9JchOgSjXtCFDy/8vXkvaS4aJ4vtlLUGk2UXuIIYzl3apvMtTU8LE1NVPhtcvbAYurHM5koMT3PlBQl90nJ8KSYKAAAeA+iG9ubk9vlGElrojJGHHKMa/gSKmLZnJQHRxMlFEmiFkR5bV+B9WGK9x7vaVyCs6PDMXQmSnxgnbum2pooo4qS8ylbzZ8SV100OgkPYjFRMqE12WepeqzwbzOyRKcoeX5F7XuLSPWbamGswESJkbr+mahvLBOITt4iL5qaKOc9InxNVEmtlrRNEYwZfJx8g+UcDBMFAADvQWwN59vtYJygJz8DpQJk7d9Hv1yVv65lRlLOsRxNVGS8Pnkw3VpFSewmqn4uQRgjl9X2n0FL2URUnYkSz4ItteTlTFRE8mrGafLBaLTTvrjqotsYHsRgomTXnX4iVBfhvBB0yeBK1r5RhwnkF4C5l7s2sQIT5aF4qxvLBDKl2tCOmpqo5oHFE2K3j5JXZ0nblF1r+V2QkjLnBYaJAgCA9yCSi3OzrxUlv9ZrTVTOZC9Z9NJBamQl65xwWERKxSupRGZJTqsdEVfYTJA+TBF+wXT+HMJou3A+4OW3rvuyVi5u1uTo2HknntczUbvYYnTZw03pm1upgrAYRYOD8CDlJipyYzLuqaYtiDGULVe2ZLQcuUjn1ahlz2tZ4md21miiCnyDVAceq10qiHxJKt76pamJah5YPCMq1aMEGW0zIhZLK1N+48yafYqJAgCANyG6UtTttrdMG4m8yFOOJrRKOTFHpOiF8YJcLTwv/gp/VTrGjwy4UsNK8femVBF9mCJi/+p+IKyk0pu9O3y5qI/S+ROyeU/+ufhrkwl6PRNlVFHy2XTZ3VOPrtZHCI9R3M1G5HnOCmThb6ZGOLJ/NSWahBWZJRxk7TurqMh9nFlimFiBiRLfcwrchzjGHAsXPhPbhbh0gl5TEyXvpGnjOJv/EM9mwZNZ1DZlHm9hp3As3K0XEwUAAO9CdJh4HyiUx+OR+Tip17+IqHPOExmMFQ1SIx8080brZb8SRMKVZOaMuGGmVBsxhSz5C2GijDtrpfEyUfcb3nWdYVQtKmvyr8XTYJo58oImyqaiImO8NipKPHElLT48RqmJit3SnHoNjf+UvZKDUtPovuj5jX0o8VVRkfnpL6SiVmCiZHda0D9GXuHOyXMJIsq0NIZqaqKcAwvbxoiiLAVWrKhtRl46RX1frJvOat2YKAAAeBeiX/NulpyR2Ogh9foXkWTOYDM2iPCJYjOjr/BnZWP8mIhKHkouxWUZJuoDRp9lczSEd6nd0sLi1k/+tXwcLGGlOJq+uLObKJuKiozxmqgo0U2UDHXDYxSaqOgNzemzxM2c6i/lSSz5EWUmOTZ7/ORpiiJJUS+kotZgosQ1FEzP27auxdhKUbfbR8nz3dZE1Q0sdDvHivnBBddV1jZ9cjFj3XTeYTBRAADwNkT2ffl5/RWNk6JiJfUjoUJyJpvFBhHqQeoutqJy5mC98Gd/ic6PTC5WEol8DR+Bw9ufnhwpJhRW39PM5WZXKcl0647MHHGsqZcwUSYVFZu62mLZcum9C6x3eIgyExXtYrPG76Kzn0rskoNSiwIsM1GRdVYKB/hjyKs0Tk6fkzWYKNEmS7JwYluvfMwprEfCKG0Mtd2IeGReExUJLAwvDFtbk6GRvkbL2mbs+6x6WcljTKPnvTQwUQAA8DaMLFr+4GOjDgo3sVFScukHMeDI+hAXkzh73SD1GBsj565UEf6uIGSLirCcQbrrCioFgY84e/HJMwnP126wKFr4dFEiNexXUxlN1aGV/qEkpo1J49xxRSRn8Xbr590cKzo4KUgWcGnE0Q1P84bvqp0cIw7VoGjCjjazGUanPd0OjtUftaSGyelzsgYTJd/iBUlR8ShmmK8WR8Ooz+wYane5xtrivCYq9sCVb/dqa2se2yMXts1Yt6M0m+fi7wWYKAAAeCeiSQc/7A+q5VC2cbGSHHmLL3F5adzRQYRikLqLDuqyA2l5ndqBWtTbZQUeMQtXOG1lO4RRdEHwW32hqNJK8kdc+nRRXL6vflFUU+G5W5ioeBpPXopN3GLN7wpkEfST1cIjFOR2dfEhb16t6rbGijnAwmy0ThwrsxmOvZ38XFR8frryi0Yj1mCiIlk4BX17NHmufIkBPaPLHNxup02ysR43UQuVWT+eJqp1YPGM7PnVT2Vh24zPtlSYzW1Uoeem+2GiAADgjRjZP+//t2dGIPXFMZq+kDVkEzFH1iB1ZJiSOUrZDfExbnauQ+S3H1fFh7PN2HfUnGPEfrvXB97bcyQCzgh8xGyE8g+neeUMz/cyJipeU/qBbmlNhT9pYqIsKio+yLztD6bZN0dtA4pIdvXjJg+R3bl+cYnnCBWncU7OFol2rwVzti/XyCOQ2wxHZ4+fvCzDyBn2g0l2dXPMDVuDiYr0jyWzQOPfwG4fZ4ux3ilqcXyZg3sxTsPIobrLcBh5qLPrx9NEeQUWx8LX1TOReFJbkNK2Gf9Guc90UduRSDj3cx0mCgAA3okxgfT0Bj4Nid3GdtHhxjfp17eII/PERjxeuI9Skqe8HOIeSrFMRfz3H4dLzhHkB8P/ybIUcX+omk85WmclOVkFm29rMI52PNGaqPjXctUQyVJT4U/amCiLihrtnz7Pellw7DbDod/r13mKPXDaexlvCddMGzXRZeQ+DWJ0ONnXxEf3vSb98Xg+xfvZXBU7MXs86xtJdz4kMhDjq5jd8l4j8nzdeTj19TvEB6swUTGFoxf1I6mTxbU4DH2vuzuTPumrwfb9Yfjl1Kd/Mr+JcgksDsWvq2di3yCUubDFbXOkU8j4/rHbjFVr9jdOTBQAALwVaRX14LMfhk3X/X2Xd4+gbWKxqawXsFjAJDOOHx1E3E7n8ZjjuBnTUKowevzkn4eJs99v2jD+29x4ZTTcyRrXdueRYPGWF/jI9PW6akhEUu0WclFvLm2uqfHG8jomyqCixlXB3ftusmxW123uY8vnMigbbGTZJPVKeuOXkVL9k6Y/v07FqH9yc4L4HJW7O8uR7dtuGLFQqrs/OXv8fuMu8Qaw6zY/76XEuaIt8+f+XC85D+nuLqCuf81C7gUaWIWJirYy/by6qXbSD1m1uL3X4qF/7m4Uu71NdVMG5jZRo2HNPIHFH6KLjqqy3IrbZmw7xi/2U6+c7jxuF5P70PwPJgoAAN6LOjHUDxkvfxlG5n14H/8SeufzNAxd1/0fAHTdIyFisrCKCDjxRfOjv589iD6O3fk6/bvc3acnIu/78Gzkpu+6brhOi8O8FbXFIQw7wmWwoEhKjOZTw7/xoParpuIVvksr3pcyUQYVNaUKbt+K/NL9mf7S3bkMw10PjDxv2pXNRnz9lPIOmb6MW38YNmISz310nGgG+QMVmWUwef/Hck4fsn1svtG/7WPGUaLO8m9aYvb47SnZZPPo4e/ZJn/eaKlzjcz//J/+6z3yNBDfPdrX/VSHvh95e87gyldhokbeo/vDRnec1CoD/WE4d39eyNuMWlQUoI6Kmt1EVQwstO+ekRmPp/PIO1NS3janO4XvxvR09d0wnCYbgGLOKSYKAADei5Et3HzIeo2KECYzMyg1SNWi8Sk5ufW3r3HSF1l/nB2vxPYfl+e9fk8GOPSZBcgMGGWQWHXkJYYZNU82jRieJ29XvZrKmMRaUrlTlMe00djeRUUVob0RYxlCd+5VdnpYr/5j4ri5xfzpMBIDu2/yv7XHdlmY/PPk2PrzceHf3IucOxpXWIbMlN1xkjWdIbv0zDB/eB0mamLMv396sJKLFZnbSQzNHN4qKmp2EzXln7+oGlg8k+py+2SXa2ibybe2EsWXD0wUAAC8G1WiuC+y3v3y/Jkh4MSeNQWoEnty4y8NmsVaq+nDnIBR3ner4phERMc1T6YsSvrCqz1dGffcu5oMMW10wJ/V4muoAvWNyKzFiT6kwlUo13eWfcakxprOObWgsRXWxydd05PLTRdSezfR1Zio3Bdp8uJqdLOqa6mhouY3UW0Diz9k1uj4BVvapm9z0kw3xUQBAMDb4f0F6H/y1h6XYiNXCl0cB0u6GWYVTJRqVFlpYYrMgFHka+Qv9V5AGJsp1u+oXZScFt6wpgp+Moklpl2UilKH9xOzLDOP638R2o3G5H2cbg9VstFuuZuj/mAcE5bsBWqnqpn/YiUmKvNrUrqfraCilD7RvwQNTFTbwOJPSaxdrqltelamat0zTBQAALwfXZ0xx+SSuE/IiSi5efF+g6U8afY//qOXT9321bUixqyAUV59zaGXf2xWjBjMZ5SlYU1515Ippo0KpazZZf5KRN+E8mz9RI/nfQn6He/l0C4hkGupKFWpjWPCnJr2V52YqGzy3qRNhKK2Fj0/jD1oYKKqva70WyLmdbnj36VsbdOtU9jrhCYmCgAA3pAqi0Xlrr8dWZwge8/brU/clFyHIqTLW8Yln5M2q2hXY4Lgrc9ygHINh5pJUeEQo6GJEkFdTlnqrMTWZ2iI8DdNTVQ8ts/qJI7eo6OCtLq8x238985XcL91mnVs/kWdTiIRtI6K0u5vYFIMWTXdQiFYWYuJyjMfWULRuxb1aTzOaVEtTFTTwOIvee/N0Z8b26ZTp6D8woiJAgCA9+TirVbyRVRsccrsoGHn8SlUGy3c2XjesL3+i2GNj8Cn3Nsug9WK2+f5B9vFFJmojHVgK9VU+Ku2Jir+kTurm/Ae4hUE43kj5vHfO1/A7XZQy99IP5vo+PwTJPaDfkhqUgx5d8b5OjFR+eRNfM05nLewLrg9navGaWKiagQWh6Il/PN6n9Fu0No2XToFdS+NiQIAgPdkN/h+UtS8guU4U7EnlD09qXCAfnGLOks+GLonZu2v+aWIrO5Rb7uo1zdRrWoq/GFjExWfaJVnrJ3TVgoeuKxx0bjZcS2+es7HF7LDSrZfX4n6uSnKndwaetrMjwy+1znDUnarMVF5mXdZR3L5LGW8PRYXFd6IRibKubMtkc9fZHW5oy3O3jbNIfGHvpfGRAEAwLvi6aJ0A6XIx3rNuk22ch9K46R//7ZXD8NQEK584xh5n3SFkNet2U9eRxhsz7AIyxjSwGX+cOc30j3lzyQNf9raRFlUlO8os8Sb5oyLxo/rWfqShKh/cYGcTMY8uvn2/bUg9fSbc3EXn1vTFtslKb7QbNZjorJymTJf0n6ttdwnlkUF/fUiXhKtTFTDwCIoR0Z1VjRR/7amXNz9UNBLY6IAAOB92Z19cjfUr+DIC18TNhgcWvaEtBEuB6O++9AuUfUHW6j0/01Qpypc5EGUa77nE45TGpoo6ROyf9mipsJfNzdRFhXldAe/KBsepcdn4w+zX9kN8jwysEvbIZcZR/uDZURqGBvnd6+eM6vKv27ksiITlbOSXvZxPWfNl1zLg6NKRn0ezl+XtxgT1S6wCEl/wRlt9y5ts/w+FHkoTBQAALw5ndWs3G4f+ldwJClKtwZ2mUPbG/KhfrkYMqNMXwwfbI2ZbB+HS0nEFBm1mS9lhPA8r2mi7jVlGyR9HLRxvfedc4hpLSrK0UUV3onkLMvx44Z/eSj1HpZOK5IUlXPvO+N9/xzKs6H+p7Cj09S0n4uqN1f5hzWZqIxlKhUvl41bLVqig+3mmi7HRz9snu7YgkzUPbWrSWAR0qUS5uqaqNL78HEuvHhMFAAAvDuXg2HEXPjtW376Ui+EovsOqZvmlGJ7PhWEK31ptBJQnJf1cdiUBttHebRahmiu85SURRnVGWrqXDCY975zHjGtSUX9252ty8j2p2HTlT93iZSL8cTA8C+7f/+6Qd9r9LYsg8iKfFntancuHd5/Xl0GpI9CbNSV/6lcK9k833rfH4ZLfQ+1NhP1b5fQ9Kquy6cWHezpsRuGvhet9qPvr8O5EydYlIlqFFhIEl3u6D7Lbm1TfR8+DPOQMVEAAAD/tpsSG7Xvh+JANDhdWWrzMXu89Hl1z+DJ+gj6WwCfL4Y/dINypPhxGgzj8chMJZf0sihh0WvlXpWUJXdB5F9KaupSeG/DQy3BRMWy6TQbbd6tr+4Gft/GhyJweOYms0bHxw3hX373lNvL0OcOc/bqpDjBLjjXPr9J7DYHpQjqf2Yd+ZFf+fv+uikaDx6HItn52V/nUVDfrMxE3cf7U1Wr7bqO16Ja7Pth6KrU4rF7MNmTL81ENQksYoUo6nI92+a/S3Z76m0JoJgoAACAB7vufO0zfdTjG6JJRfx5XRZOsX9w3Fynh3b9wT9U+p9tNxxSN61WAfLq68Ppo/1fd1i4+18WXUC1yssgLEtZYe5tdI6aCgtrraRdeECXgxTcx2445Q0MHtkHg3ebuYw55z5/dt7zvdt156GfHPHdvYrLI/ZngTd1P7u7d2/pu/4Yz1frEbrhNPXw7I1Zb/fLvAyZb77P+6We67iLaY4FD/c2+Ik960c8zMb7PjLe3/fJlfVjR8uVvP29FjctavEvBRYibAYOiVyCvMDis2o24KgRG+9yfdvm4z5Md377/lqSufyXGZ5R8xEBAADmY9t1wzAc+ginYRiGi9Mw7zfHxuKhfjh2G1HowX9IOsa2687i/IdZxizH7jLcpwT04uIH3yDkyR32BDcFzFZTK+XYnYer7JUOw/cdrPus3yfenJ5PmjhfOGyJVXB377X+XtLJu9M4OfSzj95N3Pr76+BcZywcK0LYv14fte7ov+Qp/j/P/Tp5ROtwvIgHy3Keeyc7VYvzNNc8/PNhHGn/utr+eSBPg0+Oq5LdIx4+/bkH7p00AAAAzM3P19B607zAlZ+4GQ8FkCLHRM3BTy6jh+8HAD8WbaIAAAAA1st2j4d6LXo8FEAeSzFR/46PfhYPBbAwMFEAAAAAbejwUK/F7vP2iYcCyGAxJurfhn4WYIFgogAAAAAaYVvzHGbnuOGeA+SwHBNFPwuwRDBRAAAAAAAA4MeCTBQALBBMFAAAAAAAAPiBiQKAKTBRAAAAAAAA4AcmCgCmOGCiAAAAAAAAwA1MFABM0WOiAAAAAAAAwA1MFABMgYkCAAAAAAAAPzBRADDFByYKAAAAAAAA3MBEAcAUYR+BiQIAAAAAAIByMFEAMMEREwUAAAAAAAB+YKIAYIJN2EdcuVsAAAAAAABQDCYKACa4hn3EwN0CAAAAAACAYjBRADBBuGD5bcPdAgAAAAAAgGIwUQAwzjbsIugjAAAAAAAAwACjTAAYZxAmasfdAgAAAAAAgGIwUQAwjpict+dmAQAAAAAAQDmYKAAYReycdztxswAAAAAAAKAcTBQAjLETKVG3MzcLAAAAAAAAysFEAcAYVyGibkduFgAAAAAAAJSDiQKAEeTcvNsH9woAAAAAAAAMYKIAIM5xL03UlXsFAAAAAAAABjBRABBlExFRTM4DAAAAAAAAE5goAIgxRDzUredWAQAAAAAAgAVMFABIOrlr3p0LtwoAAAAAAAAsYKIA1sm+vw5d4WS6Sx/1ULdP2goAAAAAAACYwEQBrJPvR/qjPwybbqu4xO4az4eifwAAAAAAAAAzjDQBVkkXPNr7vh+GTdftpi72eBlGsqEenGgqAAAAAAAAYAMTBbBKQhP1xEff94fhwaW78/jPvh9NhfqRWZMWCwAAAAAAACANJgpglUS3vrNB7wAAAAAAAABWMFEAq8TfRG1oKAAAAAAAAGAFEwWwSk7eIupAOwEAAAAAAAAzmCiAVTK18ngJV5oJAAAAAAAA2MFEAayS1PLjSpiaBwAAAAAAAB5gogBWiauH+jjSSAAAAAAAAMADTBTAGtl5iqjrjjYCAAAAAAAALmCiANZI5+ehenoFAAAAAAAA8AITBbBGLngoAAAAAAAAWCCYKIA1su2Ga7+3aqj9gQWiAAAAAAAAwBNMFMCK6TbDqS/WUBvWhwIAAAAAAABf+gAyIADWR3cZrr3GSH2czvQFAAAAAAAAAABQzrG7DMOhn5BS+74fzh25UAAAAAAAAAAA4Mix++IyDMPl8V+kQQHY+Pfv338F6t+AZlnLewAAAABJRU5ErkJggg==;" parent="1" vertex="1">
          <mxGeometry x="897" y="834" width="273" height="57.65" as="geometry" />
        </mxCell>
        <mxCell id="L7dk3Sz008ZvUSCZmKO--5" value="" style="outlineConnect=0;dashed=0;verticalLabelPosition=bottom;verticalAlign=top;align=center;html=1;shape=mxgraph.aws3.classic_load_balancer;fillColor=#F58534;gradientColor=none;" parent="1" vertex="1">
          <mxGeometry x="205" y="393" width="61" height="64" as="geometry" />
        </mxCell>
        <mxCell id="L7dk3Sz008ZvUSCZmKO--13" value="Kubernetes" style="points=[[0,0],[0.25,0],[0.5,0],[0.75,0],[1,0],[1,0.25],[1,0.5],[1,0.75],[1,1],[0.75,1],[0.5,1],[0.25,1],[0,1],[0,0.75],[0,0.5],[0,0.25]];outlineConnect=0;html=1;whiteSpace=wrap;fontSize=12;fontStyle=0;container=1;pointerEvents=0;collapsible=0;recursiveResize=0;shape=mxgraph.aws4.group;grIcon=mxgraph.aws4.group_ec2_instance_contents;strokeColor=#6c8ebf;fillColor=#dae8fc;verticalAlign=top;align=left;spacingLeft=30;dashed=0;" parent="1" vertex="1">
          <mxGeometry x="301" y="254" width="424" height="337" as="geometry" />
        </mxCell>
        <mxCell id="L7dk3Sz008ZvUSCZmKO--6" value="&lt;b&gt;NGINX&lt;/b&gt;" style="outlineConnect=0;dashed=0;verticalLabelPosition=bottom;verticalAlign=top;align=center;html=1;shape=mxgraph.aws3.api_gateway;fillColor=#D9A741;gradientColor=none;" parent="L7dk3Sz008ZvUSCZmKO--13" vertex="1">
          <mxGeometry x="-13" y="44" width="63" height="79" as="geometry" />
        </mxCell>
        <mxCell id="L7dk3Sz008ZvUSCZmKO--16" style="edgeStyle=orthogonalEdgeStyle;rounded=1;orthogonalLoop=1;jettySize=auto;html=1;entryX=0.1;entryY=0.2;entryDx=0;entryDy=0;entryPerimeter=0;flowAnimation=1;curved=0;fillColor=#d5e8d4;strokeColor=#82b366;" parent="L7dk3Sz008ZvUSCZmKO--13" source="L7dk3Sz008ZvUSCZmKO--6" target="L7dk3Sz008ZvUSCZmKO--17" edge="1">
          <mxGeometry relative="1" as="geometry">
            <mxPoint x="108.35419999999976" y="82.33999999999992" as="targetPoint" />
            <Array as="points">
              <mxPoint x="78" y="83" />
              <mxPoint x="78" y="115" />
              <mxPoint x="79" y="115" />
            </Array>
          </mxGeometry>
        </mxCell>
        <mxCell id="L7dk3Sz008ZvUSCZmKO--17" value="&lt;font style=&quot;font-size: 14px;&quot;&gt;anymarket-integration-api&lt;/font&gt;" style="aspect=fixed;sketch=0;html=1;dashed=0;whitespace=wrap;fillColor=#2875E2;strokeColor=#ffffff;points=[[0.005,0.63,0],[0.1,0.2,0],[0.9,0.2,0],[0.5,0,0],[0.995,0.63,0],[0.72,0.99,0],[0.5,1,0],[0.28,0.99,0]];shape=mxgraph.kubernetes.icon2;prIcon=pod;spacingTop=100;fontSize=14;" parent="L7dk3Sz008ZvUSCZmKO--13" vertex="1">
          <mxGeometry x="72" y="115" width="72.92" height="70" as="geometry" />
        </mxCell>
        <mxCell id="L7dk3Sz008ZvUSCZmKO--31" value="anymarket-integration-consumer" style="aspect=fixed;sketch=0;html=1;dashed=0;whitespace=wrap;fillColor=#2875E2;strokeColor=#ffffff;points=[[0.005,0.63,0],[0.1,0.2,0],[0.9,0.2,0],[0.5,0,0],[0.995,0.63,0],[0.72,0.99,0],[0.5,1,0],[0.28,0.99,0]];shape=mxgraph.kubernetes.icon2;prIcon=pod;spacingTop=100;fontSize=14;" parent="L7dk3Sz008ZvUSCZmKO--13" vertex="1">
          <mxGeometry x="289" y="44" width="72.92" height="70" as="geometry" />
        </mxCell>
        <mxCell id="L7dk3Sz008ZvUSCZmKO--37" value="API Backoffice Any" style="aspect=fixed;sketch=0;html=1;dashed=0;whitespace=wrap;fillColor=#2875E2;strokeColor=#ffffff;points=[[0.005,0.63,0],[0.1,0.2,0],[0.9,0.2,0],[0.5,0,0],[0.995,0.63,0],[0.72,0.99,0],[0.5,1,0],[0.28,0.99,0]];shape=mxgraph.kubernetes.icon2;prIcon=pod;spacingTop=100;fontSize=14;" parent="L7dk3Sz008ZvUSCZmKO--13" vertex="1">
          <mxGeometry x="268" y="185" width="72.92" height="70" as="geometry" />
        </mxCell>
        <mxCell id="L7dk3Sz008ZvUSCZmKO--46" style="edgeStyle=orthogonalEdgeStyle;rounded=1;orthogonalLoop=1;jettySize=auto;html=1;exitX=0.005;exitY=0.63;exitDx=0;exitDy=0;exitPerimeter=0;curved=0;flowAnimation=1;fillColor=#d5e8d4;strokeColor=#82b366;" parent="L7dk3Sz008ZvUSCZmKO--13" source="L7dk3Sz008ZvUSCZmKO--31" target="L7dk3Sz008ZvUSCZmKO--37" edge="1">
          <mxGeometry relative="1" as="geometry">
            <Array as="points">
              <mxPoint x="268" y="87" />
              <mxPoint x="219" y="87" />
              <mxPoint x="219" y="231" />
            </Array>
          </mxGeometry>
        </mxCell>
        <mxCell id="L7dk3Sz008ZvUSCZmKO--14" style="edgeStyle=orthogonalEdgeStyle;rounded=1;orthogonalLoop=1;jettySize=auto;html=1;entryX=0.35;entryY=0.5;entryDx=0;entryDy=0;entryPerimeter=0;flowAnimation=1;curved=0;fillColor=#d5e8d4;strokeColor=#82b366;" parent="1" source="L7dk3Sz008ZvUSCZmKO--5" target="L7dk3Sz008ZvUSCZmKO--6" edge="1">
          <mxGeometry relative="1" as="geometry">
            <Array as="points">
              <mxPoint x="235" y="338" />
            </Array>
          </mxGeometry>
        </mxCell>
        <mxCell id="L7dk3Sz008ZvUSCZmKO--20" value="EC2 - Filas do ActiveMQ" style="points=[[0,0],[0.25,0],[0.5,0],[0.75,0],[1,0],[1,0.25],[1,0.5],[1,0.75],[1,1],[0.75,1],[0.5,1],[0.25,1],[0,1],[0,0.75],[0,0.5],[0,0.25]];outlineConnect=0;html=1;whiteSpace=wrap;fontSize=12;fontStyle=0;container=1;pointerEvents=0;collapsible=0;recursiveResize=0;shape=mxgraph.aws4.group;grIcon=mxgraph.aws4.group_ec2_instance_contents;verticalAlign=top;align=left;spacingLeft=30;dashed=0;fillColor=#ffe6cc;strokeColor=#d79b00;" parent="1" vertex="1">
          <mxGeometry x="760" y="91" width="341" height="675" as="geometry" />
        </mxCell>
        <mxCell id="L7dk3Sz008ZvUSCZmKO--21" value="&lt;div style=&quot;font-size: 14px;&quot;&gt;&lt;font style=&quot;font-size: 14px;&quot;&gt;FIla Inicial&lt;/font&gt;&lt;/div&gt;" style="sketch=0;points=[[0,0,0],[0.25,0,0],[0.5,0,0],[0.75,0,0],[1,0,0],[0,1,0],[0.25,1,0],[0.5,1,0],[0.75,1,0],[1,1,0],[0,0.25,0],[0,0.5,0],[0,0.75,0],[1,0.25,0],[1,0.5,0],[1,0.75,0]];outlineConnect=0;fontColor=#232F3E;fillColor=#ED7100;strokeColor=#ffffff;dashed=0;verticalLabelPosition=bottom;verticalAlign=top;align=center;html=1;fontSize=12;fontStyle=0;aspect=fixed;shape=mxgraph.aws4.resourceIcon;resIcon=mxgraph.aws4.ec2;" parent="L7dk3Sz008ZvUSCZmKO--20" vertex="1">
          <mxGeometry x="42" y="526" width="60" height="60" as="geometry" />
        </mxCell>
        <mxCell id="L7dk3Sz008ZvUSCZmKO--22" value="&lt;div style=&quot;font-size: 14px;&quot;&gt;&lt;font style=&quot;font-size: 14px;&quot;&gt;Integration-update-price&lt;/font&gt;&lt;/div&gt;" style="sketch=0;points=[[0,0,0],[0.25,0,0],[0.5,0,0],[0.75,0,0],[1,0,0],[0,1,0],[0.25,1,0],[0.5,1,0],[0.75,1,0],[1,1,0],[0,0.25,0],[0,0.5,0],[0,0.75,0],[1,0.25,0],[1,0.5,0],[1,0.75,0]];outlineConnect=0;fontColor=#232F3E;fillColor=#ED7100;strokeColor=#ffffff;dashed=0;verticalLabelPosition=bottom;verticalAlign=top;align=center;html=1;fontSize=12;fontStyle=0;aspect=fixed;shape=mxgraph.aws4.resourceIcon;resIcon=mxgraph.aws4.ec2;" parent="L7dk3Sz008ZvUSCZmKO--20" vertex="1">
          <mxGeometry x="218" y="45" width="60" height="60" as="geometry" />
        </mxCell>
        <mxCell id="L7dk3Sz008ZvUSCZmKO--23" value="&lt;div style=&quot;font-size: 14px;&quot;&gt;&lt;font style=&quot;font-size: 14px;&quot;&gt;Integration-update-stock&lt;/font&gt;&lt;/div&gt;" style="sketch=0;points=[[0,0,0],[0.25,0,0],[0.5,0,0],[0.75,0,0],[1,0,0],[0,1,0],[0.25,1,0],[0.5,1,0],[0.75,1,0],[1,1,0],[0,0.25,0],[0,0.5,0],[0,0.75,0],[1,0.25,0],[1,0.5,0],[1,0.75,0]];outlineConnect=0;fontColor=#232F3E;fillColor=#ED7100;strokeColor=#ffffff;dashed=0;verticalLabelPosition=bottom;verticalAlign=top;align=center;html=1;fontSize=12;fontStyle=0;aspect=fixed;shape=mxgraph.aws4.resourceIcon;resIcon=mxgraph.aws4.ec2;" parent="L7dk3Sz008ZvUSCZmKO--20" vertex="1">
          <mxGeometry x="218" y="177" width="60" height="60" as="geometry" />
        </mxCell>
        <mxCell id="L7dk3Sz008ZvUSCZmKO--24" value="&lt;div style=&quot;font-size: 14px;&quot;&gt;&lt;font style=&quot;font-size: 14px;&quot;&gt;Integration-update-order&lt;/font&gt;&lt;/div&gt;" style="sketch=0;points=[[0,0,0],[0.25,0,0],[0.5,0,0],[0.75,0,0],[1,0,0],[0,1,0],[0.25,1,0],[0.5,1,0],[0.75,1,0],[1,1,0],[0,0.25,0],[0,0.5,0],[0,0.75,0],[1,0.25,0],[1,0.5,0],[1,0.75,0]];outlineConnect=0;fontColor=#232F3E;fillColor=#ED7100;strokeColor=#ffffff;dashed=0;verticalLabelPosition=bottom;verticalAlign=top;align=center;html=1;fontSize=12;fontStyle=0;aspect=fixed;shape=mxgraph.aws4.resourceIcon;resIcon=mxgraph.aws4.ec2;" parent="L7dk3Sz008ZvUSCZmKO--20" vertex="1">
          <mxGeometry x="62" y="177" width="60" height="60" as="geometry" />
        </mxCell>
        <mxCell id="L7dk3Sz008ZvUSCZmKO--50" value="&lt;div style=&quot;font-size: 14px;&quot;&gt;&lt;font style=&quot;font-size: 14px;&quot;&gt;Integration-product&lt;/font&gt;&lt;/div&gt;" style="sketch=0;points=[[0,0,0],[0.25,0,0],[0.5,0,0],[0.75,0,0],[1,0,0],[0,1,0],[0.25,1,0],[0.5,1,0],[0.75,1,0],[1,1,0],[0,0.25,0],[0,0.5,0],[0,0.75,0],[1,0.25,0],[1,0.5,0],[1,0.75,0]];outlineConnect=0;fontColor=#232F3E;fillColor=#ED7100;strokeColor=#ffffff;dashed=0;verticalLabelPosition=bottom;verticalAlign=top;align=center;html=1;fontSize=12;fontStyle=0;aspect=fixed;shape=mxgraph.aws4.resourceIcon;resIcon=mxgraph.aws4.ec2;" parent="L7dk3Sz008ZvUSCZmKO--20" vertex="1">
          <mxGeometry x="62" y="45" width="60" height="60" as="geometry" />
        </mxCell>
        <mxCell id="L7dk3Sz008ZvUSCZmKO--32" style="edgeStyle=orthogonalEdgeStyle;rounded=1;orthogonalLoop=1;jettySize=auto;html=1;flowAnimation=1;curved=0;fillColor=#d5e8d4;strokeColor=#82b366;exitX=0.9;exitY=0.2;exitDx=0;exitDy=0;exitPerimeter=0;" parent="1" source="L7dk3Sz008ZvUSCZmKO--17" edge="1">
          <mxGeometry relative="1" as="geometry">
            <mxPoint x="805" y="632" as="targetPoint" />
            <Array as="points">
              <mxPoint x="507" y="383" />
              <mxPoint x="507" y="632" />
            </Array>
          </mxGeometry>
        </mxCell>
        <mxCell id="L7dk3Sz008ZvUSCZmKO--56" value="Envia os dados iniciais para uma fila" style="edgeLabel;html=1;align=center;verticalAlign=middle;resizable=0;points=[];" parent="L7dk3Sz008ZvUSCZmKO--32" vertex="1" connectable="0">
          <mxGeometry x="0.4418" y="-2" relative="1" as="geometry">
            <mxPoint as="offset" />
          </mxGeometry>
        </mxCell>
        <mxCell id="L7dk3Sz008ZvUSCZmKO--35" style="edgeStyle=orthogonalEdgeStyle;rounded=1;orthogonalLoop=1;jettySize=auto;html=1;flowAnimation=1;curved=0;entryX=0.995;entryY=0.63;entryDx=0;entryDy=0;entryPerimeter=0;fillColor=#d5e8d4;strokeColor=#82b366;" parent="1" target="L7dk3Sz008ZvUSCZmKO--31" edge="1">
          <mxGeometry relative="1" as="geometry">
            <mxPoint x="764" y="342" as="sourcePoint" />
            <Array as="points">
              <mxPoint x="760" y="342" />
            </Array>
          </mxGeometry>
        </mxCell>
        <mxCell id="L7dk3Sz008ZvUSCZmKO--40" style="edgeStyle=orthogonalEdgeStyle;rounded=1;orthogonalLoop=1;jettySize=auto;html=1;entryX=0.87;entryY=0.65;entryDx=0;entryDy=0;entryPerimeter=0;flowAnimation=1;curved=0;exitX=0;exitY=0.5;exitDx=0;exitDy=0;exitPerimeter=0;fillColor=#d5e8d4;strokeColor=#82b366;" parent="1" source="L7dk3Sz008ZvUSCZmKO--36" target="R_4JafRuiWa1Q7gdGqQE-119" edge="1">
          <mxGeometry relative="1" as="geometry">
            <Array as="points">
              <mxPoint x="-90" y="678" />
              <mxPoint x="-90" y="417" />
            </Array>
          </mxGeometry>
        </mxCell>
        <mxCell id="L7dk3Sz008ZvUSCZmKO--36" value="&lt;font style=&quot;font-size: 14px;&quot;&gt;NAT Gateway&lt;/font&gt;" style="outlineConnect=0;dashed=0;verticalLabelPosition=bottom;verticalAlign=top;align=center;html=1;shape=mxgraph.aws3.vpc_nat_gateway;fillColor=#F58534;gradientColor=none;" parent="1" vertex="1">
          <mxGeometry x="201" y="642" width="69" height="72" as="geometry" />
        </mxCell>
        <mxCell id="L7dk3Sz008ZvUSCZmKO--39" style="edgeStyle=orthogonalEdgeStyle;rounded=1;orthogonalLoop=1;jettySize=auto;html=1;entryX=1;entryY=0.5;entryDx=0;entryDy=0;entryPerimeter=0;curved=0;flowAnimation=1;fillColor=#d5e8d4;strokeColor=#82b366;" parent="1" source="L7dk3Sz008ZvUSCZmKO--17" target="L7dk3Sz008ZvUSCZmKO--36" edge="1">
          <mxGeometry relative="1" as="geometry">
            <Array as="points">
              <mxPoint x="290" y="404" />
              <mxPoint x="290" y="678" />
            </Array>
          </mxGeometry>
        </mxCell>
        <mxCell id="R_4JafRuiWa1Q7gdGqQE-119" value="&lt;font style=&quot;font-size: 14px;&quot;&gt;Adidas&lt;/font&gt;" style="verticalLabelPosition=bottom;html=1;verticalAlign=top;align=center;strokeColor=none;fillColor=#00BEF2;shape=mxgraph.azure.user;" parent="1" vertex="1">
          <mxGeometry x="-218.75" y="385" width="47.5" height="50" as="geometry" />
        </mxCell>
        <mxCell id="L7dk3Sz008ZvUSCZmKO--41" value="&lt;font style=&quot;font-size: 14px;&quot;&gt;anymarket-integration-adidas-db&lt;/font&gt;" style="image;aspect=fixed;html=1;points=[];align=center;fontSize=12;image=img/lib/azure2/databases/Azure_Database_PostgreSQL_Server.svg;direction=east;" parent="1" vertex="1">
          <mxGeometry x="367" y="614" width="48" height="64" as="geometry" />
        </mxCell>
        <mxCell id="L7dk3Sz008ZvUSCZmKO--43" value="&lt;font style=&quot;font-size: 14px;&quot;&gt;Elastic Cache (Redis)&lt;/font&gt;" style="outlineConnect=0;dashed=0;verticalLabelPosition=bottom;verticalAlign=top;align=center;html=1;shape=mxgraph.aws3.elasticache;fillColor=#2E73B8;gradientColor=none;" parent="1" vertex="1">
          <mxGeometry x="517" y="160" width="52" height="65" as="geometry" />
        </mxCell>
        <mxCell id="L7dk3Sz008ZvUSCZmKO--44" style="edgeStyle=orthogonalEdgeStyle;rounded=1;orthogonalLoop=1;jettySize=auto;html=1;entryX=0.71;entryY=0.5;entryDx=0;entryDy=0;entryPerimeter=0;exitX=0.5;exitY=0;exitDx=0;exitDy=0;exitPerimeter=0;curved=0;flowAnimation=1;fillColor=#d5e8d4;strokeColor=#82b366;" parent="1" source="L7dk3Sz008ZvUSCZmKO--31" target="L7dk3Sz008ZvUSCZmKO--43" edge="1">
          <mxGeometry relative="1" as="geometry">
            <Array as="points">
              <mxPoint x="627" y="193" />
            </Array>
          </mxGeometry>
        </mxCell>
        <mxCell id="L7dk3Sz008ZvUSCZmKO--48" style="edgeStyle=orthogonalEdgeStyle;rounded=1;orthogonalLoop=1;jettySize=auto;html=1;curved=0;flowAnimation=1;fillColor=#d5e8d4;strokeColor=#82b366;exitX=0.005;exitY=0.63;exitDx=0;exitDy=0;exitPerimeter=0;" parent="1" source="L7dk3Sz008ZvUSCZmKO--17" target="L7dk3Sz008ZvUSCZmKO--41" edge="1">
          <mxGeometry relative="1" as="geometry">
            <mxPoint x="362" y="490" as="sourcePoint" />
            <Array as="points">
              <mxPoint x="319" y="413" />
              <mxPoint x="319" y="646" />
            </Array>
          </mxGeometry>
        </mxCell>
        <mxCell id="L7dk3Sz008ZvUSCZmKO--52" style="edgeStyle=orthogonalEdgeStyle;rounded=1;orthogonalLoop=1;jettySize=auto;html=1;entryX=0.995;entryY=0.63;entryDx=0;entryDy=0;entryPerimeter=0;exitX=0;exitY=0.75;exitDx=0;exitDy=0;exitPerimeter=0;flowAnimation=1;curved=0;fillColor=#d5e8d4;strokeColor=#82b366;" parent="1" source="L7dk3Sz008ZvUSCZmKO--21" target="L7dk3Sz008ZvUSCZmKO--17" edge="1">
          <mxGeometry relative="1" as="geometry">
            <Array as="points">
              <mxPoint x="802" y="659" />
              <mxPoint x="495" y="659" />
              <mxPoint x="495" y="413" />
            </Array>
          </mxGeometry>
        </mxCell>
        <mxCell id="L7dk3Sz008ZvUSCZmKO--57" value="Pega os dados iniciais e identifica o destino" style="edgeLabel;html=1;align=center;verticalAlign=middle;resizable=0;points=[];" parent="L7dk3Sz008ZvUSCZmKO--52" vertex="1" connectable="0">
          <mxGeometry x="-0.2655" y="4" relative="1" as="geometry">
            <mxPoint x="29" as="offset" />
          </mxGeometry>
        </mxCell>
        <mxCell id="L7dk3Sz008ZvUSCZmKO--54" style="edgeStyle=orthogonalEdgeStyle;rounded=1;orthogonalLoop=1;jettySize=auto;html=1;entryX=0.003;entryY=0.053;entryDx=0;entryDy=0;entryPerimeter=0;flowAnimation=1;curved=0;fillColor=#d5e8d4;strokeColor=#82b366;" parent="1" source="L7dk3Sz008ZvUSCZmKO--17" target="L7dk3Sz008ZvUSCZmKO--20" edge="1">
          <mxGeometry relative="1" as="geometry">
            <Array as="points">
              <mxPoint x="409" y="127" />
            </Array>
          </mxGeometry>
        </mxCell>
        <mxCell id="L7dk3Sz008ZvUSCZmKO--58" value="Envia os dados filtrados para a respectiva fila" style="edgeLabel;html=1;align=center;verticalAlign=middle;resizable=0;points=[];" parent="L7dk3Sz008ZvUSCZmKO--54" vertex="1" connectable="0">
          <mxGeometry x="0.1297" y="-1" relative="1" as="geometry">
            <mxPoint x="49" as="offset" />
          </mxGeometry>
        </mxCell>
      </root>
    </mxGraphModel>
  </diagram>
</mxfile>
